%FSLAX25Y25*%
%MOIN*%
G70*
G01*
G75*
G04 Layer_Physical_Order=2*
G04 Layer_Color=16711680*
%ADD10C,0.02500*%
%ADD11C,0.01500*%
%ADD12C,0.10000*%
%ADD13O,0.07874X0.17716*%
%ADD14O,0.15748X0.07874*%
%ADD15C,0.06500*%
%ADD16C,0.11811*%
%ADD17R,0.05906X0.05906*%
%ADD18C,0.05906*%
%ADD19C,0.08661*%
%ADD20C,0.07087*%
%ADD21R,0.07087X0.07087*%
%ADD22R,0.05906X0.05906*%
%ADD23C,0.06693*%
%ADD24R,0.08000X0.06000*%
%ADD25O,0.08000X0.06000*%
%ADD26O,0.07874X0.03937*%
%ADD27O,0.07874X0.03937*%
%ADD28O,0.08661X0.07087*%
%ADD29C,0.06299*%
%ADD30R,0.06299X0.06299*%
%ADD31O,0.07087X0.08661*%
%ADD32R,0.07284X0.07284*%
%ADD33C,0.07284*%
%ADD34C,0.07874*%
%ADD35R,0.07874X0.07874*%
%ADD36R,0.06299X0.06299*%
%ADD37C,0.05000*%
%ADD38R,0.00787X0.00787*%
%ADD39C,0.00787*%
G36*
X338509Y29715D02*
X335221Y26427D01*
X334759Y26618D01*
Y42669D01*
X335255Y42730D01*
X338509Y29715D01*
D02*
G37*
G36*
X351524Y25468D02*
X338509Y22215D01*
X335221Y25503D01*
X335412Y25965D01*
X351463D01*
X351524Y25468D01*
D02*
G37*
G36*
X334297Y26427D02*
X334106Y25965D01*
X318055D01*
X317994Y26461D01*
X331009Y29715D01*
X334297Y26427D01*
D02*
G37*
G36*
X334759Y25311D02*
Y9261D01*
X334263Y9200D01*
X331009Y22215D01*
X334297Y25503D01*
X334759Y25311D01*
D02*
G37*
G36*
X329658Y13465D02*
X328225D01*
X328214Y19508D01*
X326703Y13465D01*
X325203D01*
X323692Y19508D01*
Y13465D01*
X322259D01*
Y21153D01*
X324581D01*
X325958Y15898D01*
X327325Y21153D01*
X329658D01*
Y13465D01*
D02*
G37*
G36*
X347158Y30965D02*
X345725D01*
X345714Y37008D01*
X344203Y30965D01*
X342703D01*
X341192Y37008D01*
Y30965D01*
X339759D01*
Y38653D01*
X342081D01*
X343459Y33398D01*
X344825Y38653D01*
X347158D01*
Y30965D01*
D02*
G37*
G36*
X388750Y137745D02*
X388250Y137713D01*
X388166Y138348D01*
X387839Y139139D01*
X387544Y139523D01*
X387318Y139818D01*
X384818Y142318D01*
X384139Y142839D01*
X383744Y143003D01*
X383348Y143166D01*
X382924Y143222D01*
X382500Y143278D01*
X382477D01*
X382282Y143532D01*
X381248Y144326D01*
X380274Y144729D01*
Y145271D01*
X381248Y145674D01*
X382282Y146468D01*
X383076Y147502D01*
X383575Y148707D01*
X383746Y150000D01*
X383575Y151293D01*
X383076Y152498D01*
X382282Y153532D01*
X381248Y154326D01*
X380274Y154729D01*
Y155271D01*
X381248Y155674D01*
X382282Y156468D01*
X383076Y157502D01*
X383575Y158707D01*
X383746Y160000D01*
X383575Y161293D01*
X383076Y162498D01*
X382282Y163532D01*
X381248Y164326D01*
X380274Y164729D01*
Y165271D01*
X381248Y165674D01*
X382282Y166468D01*
X383076Y167502D01*
X383575Y168707D01*
X383746Y170000D01*
X383575Y171293D01*
X383076Y172498D01*
X382282Y173532D01*
X381248Y174326D01*
X380043Y174825D01*
X378750Y174996D01*
X377457Y174825D01*
X376252Y174326D01*
X375218Y173532D01*
X374424Y172498D01*
X373925Y171293D01*
X373755Y170000D01*
X373925Y168707D01*
X374424Y167502D01*
X375218Y166468D01*
X376252Y165674D01*
X377226Y165271D01*
Y164729D01*
X376252Y164326D01*
X375218Y163532D01*
X374424Y162498D01*
X373925Y161293D01*
X373755Y160000D01*
X373925Y158707D01*
X374424Y157502D01*
X375218Y156468D01*
X376252Y155674D01*
X377226Y155271D01*
Y154729D01*
X376252Y154326D01*
X375218Y153532D01*
X374424Y152498D01*
X373925Y151293D01*
X373755Y150000D01*
X373925Y148707D01*
X374424Y147502D01*
X375218Y146468D01*
X376252Y145674D01*
X377226Y145271D01*
Y144729D01*
X376252Y144326D01*
X375218Y143532D01*
X375023Y143278D01*
X369472D01*
X368954Y143954D01*
X367796Y144842D01*
X366447Y145401D01*
X365000Y145591D01*
X363553Y145401D01*
X362205Y144842D01*
X361047Y143954D01*
X360158Y142796D01*
X359599Y141447D01*
X359409Y140000D01*
X359599Y138553D01*
X360158Y137205D01*
X361047Y136047D01*
X362205Y135158D01*
X363553Y134599D01*
X365000Y134409D01*
X366447Y134599D01*
X367796Y135158D01*
X368954Y136047D01*
X369472Y136722D01*
X375023D01*
X375218Y136468D01*
X376252Y135674D01*
X377457Y135175D01*
X378750Y135005D01*
X380043Y135175D01*
X381248Y135674D01*
X381274Y135694D01*
X381722Y135473D01*
Y133953D01*
X379250D01*
Y130000D01*
Y126047D01*
X381722D01*
Y113953D01*
X379250D01*
Y110000D01*
Y106047D01*
X381722D01*
Y104528D01*
X381274Y104306D01*
X381248Y104326D01*
X380043Y104825D01*
X378750Y104996D01*
X377457Y104825D01*
X376252Y104326D01*
X375218Y103532D01*
X374424Y102498D01*
X373925Y101293D01*
X373755Y100000D01*
X373893Y98950D01*
X373419Y98717D01*
X370197Y101939D01*
X369842Y102796D01*
X368954Y103954D01*
X367986Y104696D01*
X367952Y104778D01*
Y105222D01*
X367986Y105304D01*
X368954Y106046D01*
X369842Y107204D01*
X370401Y108553D01*
X370591Y110000D01*
X370401Y111447D01*
X369842Y112796D01*
X368954Y113954D01*
X367796Y114842D01*
X366447Y115401D01*
X365000Y115591D01*
X363553Y115401D01*
X362205Y114842D01*
X361047Y113954D01*
X360528Y113278D01*
X358750D01*
X357902Y113166D01*
X357111Y112839D01*
X356727Y112544D01*
X356432Y112318D01*
X353932Y109818D01*
X353411Y109139D01*
X353247Y108744D01*
X353084Y108349D01*
X353028Y107924D01*
X352972Y107500D01*
Y90000D01*
X353028Y89576D01*
X353084Y89152D01*
X353247Y88756D01*
X353411Y88361D01*
X353932Y87682D01*
X358932Y82682D01*
X359611Y82161D01*
X360402Y81834D01*
X361250Y81722D01*
X361394D01*
X361672Y81306D01*
X361517Y80933D01*
X361394Y80000D01*
X361517Y79067D01*
X361877Y78197D01*
X362451Y77451D01*
X363197Y76877D01*
X364067Y76517D01*
X365000Y76394D01*
X365933Y76517D01*
X366803Y76877D01*
X367550Y77451D01*
X368123Y78197D01*
X368483Y79067D01*
X368606Y80000D01*
X368483Y80933D01*
X368328Y81306D01*
X368606Y81722D01*
X372392D01*
X373796Y80318D01*
X373755Y80000D01*
X373925Y78707D01*
X374424Y77502D01*
X375218Y76468D01*
X376252Y75674D01*
X377457Y75175D01*
X378750Y75005D01*
X380043Y75175D01*
X381248Y75674D01*
X382282Y76468D01*
X383076Y77502D01*
X383575Y78707D01*
X383746Y80000D01*
X383575Y81293D01*
X383076Y82498D01*
X382282Y83532D01*
X381248Y84326D01*
X380274Y84729D01*
Y85271D01*
X381248Y85674D01*
X382282Y86468D01*
X383076Y87502D01*
X383575Y88707D01*
X383746Y90000D01*
X383575Y91293D01*
X383076Y92498D01*
X382282Y93532D01*
X381248Y94326D01*
X380274Y94729D01*
Y95271D01*
X381248Y95674D01*
X382282Y96468D01*
X382477Y96722D01*
X382500D01*
X382924Y96778D01*
X383348Y96834D01*
X383744Y96997D01*
X384139Y97161D01*
X384818Y97682D01*
X387318Y100182D01*
X387544Y100477D01*
X387839Y100861D01*
X388166Y101652D01*
X388250Y102287D01*
X388750Y102255D01*
Y0D01*
X356593D01*
X356386Y500D01*
X370361Y14475D01*
X370767Y14174D01*
X370161Y13040D01*
X369709Y11550D01*
X369556Y10000D01*
X369709Y8450D01*
X370161Y6960D01*
X370895Y5587D01*
X371883Y4383D01*
X373087Y3395D01*
X374460Y2661D01*
X375950Y2209D01*
X377500Y2056D01*
X379050Y2209D01*
X380540Y2661D01*
X381913Y3395D01*
X383117Y4383D01*
X384105Y5587D01*
X384839Y6960D01*
X385291Y8450D01*
X385444Y10000D01*
X385291Y11550D01*
X384839Y13040D01*
X384105Y14413D01*
X383117Y15617D01*
X381913Y16605D01*
X380540Y17339D01*
X379050Y17791D01*
X377500Y17944D01*
X375950Y17791D01*
X374460Y17339D01*
X373326Y16733D01*
X373025Y17139D01*
X376068Y20182D01*
X376294Y20477D01*
X376589Y20861D01*
X376753Y21256D01*
X376916Y21652D01*
X376972Y22076D01*
X377028Y22500D01*
Y51250D01*
X376972Y51674D01*
X376916Y52099D01*
X376753Y52494D01*
X376589Y52889D01*
X376328Y53228D01*
X376068Y53568D01*
X370480Y59156D01*
X370591Y60000D01*
X370401Y61447D01*
X369842Y62796D01*
X368954Y63954D01*
X367796Y64842D01*
X366447Y65401D01*
X365000Y65591D01*
X363553Y65401D01*
X362205Y64842D01*
X361047Y63954D01*
X360158Y62796D01*
X359599Y61447D01*
X359409Y60000D01*
X359599Y58553D01*
X360158Y57205D01*
X361047Y56046D01*
X362205Y55158D01*
X363553Y54599D01*
X365000Y54409D01*
X365844Y54520D01*
X366628Y53736D01*
X366345Y53312D01*
X365933Y53483D01*
X365000Y53606D01*
X364067Y53483D01*
X363197Y53123D01*
X362451Y52550D01*
X361877Y51803D01*
X361517Y50933D01*
X361394Y50000D01*
X361517Y49067D01*
X361877Y48197D01*
X362451Y47451D01*
X363197Y46878D01*
X364067Y46517D01*
X365000Y46394D01*
X365933Y46517D01*
X366803Y46878D01*
X367550Y47451D01*
X368123Y48197D01*
X368483Y49067D01*
X368606Y50000D01*
X368483Y50933D01*
X368312Y51345D01*
X368736Y51628D01*
X370472Y49892D01*
Y32581D01*
X369972Y32482D01*
X369842Y32796D01*
X368954Y33954D01*
X367796Y34842D01*
X366447Y35401D01*
X365000Y35591D01*
X364156Y35480D01*
X363372Y36264D01*
X363655Y36688D01*
X364067Y36517D01*
X365000Y36394D01*
X365933Y36517D01*
X366803Y36878D01*
X367550Y37451D01*
X368123Y38197D01*
X368483Y39067D01*
X368606Y40000D01*
X368483Y40933D01*
X368123Y41803D01*
X367550Y42550D01*
X366803Y43123D01*
X365933Y43483D01*
X365000Y43606D01*
X364067Y43483D01*
X363197Y43123D01*
X362451Y42550D01*
X361877Y41803D01*
X361517Y40933D01*
X361394Y40000D01*
X361517Y39067D01*
X361688Y38655D01*
X361264Y38372D01*
X327028Y72608D01*
Y131880D01*
X327681Y132731D01*
X328134Y133825D01*
X328289Y135000D01*
X328134Y136175D01*
X327681Y137269D01*
X326959Y138209D01*
X326020Y138931D01*
X324925Y139384D01*
X323750Y139539D01*
X322575Y139384D01*
X321481Y138931D01*
X320541Y138209D01*
X319819Y137269D01*
X319366Y136175D01*
X319211Y135000D01*
X319366Y133825D01*
X319819Y132731D01*
X320472Y131880D01*
Y71250D01*
X320528Y70826D01*
X320584Y70402D01*
X320747Y70006D01*
X320911Y69611D01*
X321432Y68932D01*
X348750Y41615D01*
X348558Y41153D01*
X337751D01*
X337233Y43224D01*
X337116Y43473D01*
X337030Y43734D01*
X336947Y43830D01*
X336894Y43944D01*
X336690Y44128D01*
X336510Y44337D01*
X336454Y44365D01*
X336238Y44610D01*
X335382Y45028D01*
X334431Y45087D01*
X333531Y44778D01*
X332817Y44147D01*
X332399Y43292D01*
X329254Y31378D01*
X317499Y28439D01*
X317250Y28322D01*
X316989Y28235D01*
X316894Y28153D01*
X316780Y28099D01*
X316595Y27896D01*
X316387Y27716D01*
X316358Y27660D01*
X316113Y27443D01*
X315695Y26588D01*
X315636Y25637D01*
X315946Y24736D01*
X316576Y24023D01*
X317432Y23605D01*
X319759Y22990D01*
Y10965D01*
X331719D01*
X332284Y8705D01*
X332402Y8456D01*
X332488Y8195D01*
X332570Y8100D01*
X332624Y7986D01*
X332828Y7801D01*
X333008Y7592D01*
X333064Y7564D01*
X333280Y7319D01*
X334136Y6901D01*
X335086Y6842D01*
X335987Y7152D01*
X336701Y7782D01*
X337119Y8638D01*
X340264Y20551D01*
X352018Y23490D01*
X352267Y23608D01*
X352529Y23694D01*
X352624Y23776D01*
X352738Y23830D01*
X352923Y24034D01*
X353131Y24213D01*
X353159Y24269D01*
X353404Y24486D01*
X353822Y25342D01*
X353881Y26292D01*
X353572Y27193D01*
X352941Y27906D01*
X352086Y28324D01*
X349658Y28965D01*
Y40053D01*
X350120Y40244D01*
X359520Y30844D01*
X359409Y30000D01*
X359599Y28553D01*
X360158Y27204D01*
X361047Y26046D01*
X362205Y25158D01*
X363553Y24599D01*
X365000Y24409D01*
X366447Y24599D01*
X367796Y25158D01*
X368954Y26046D01*
X369842Y27204D01*
X369972Y27518D01*
X370472Y27419D01*
Y23858D01*
X352392Y5778D01*
X72608D01*
X64524Y13862D01*
X64384Y14925D01*
X63931Y16019D01*
X63209Y16960D01*
X62270Y17681D01*
X61175Y18134D01*
X60000Y18289D01*
X58825Y18134D01*
X57731Y17681D01*
X56791Y16960D01*
X56069Y16019D01*
X55616Y14925D01*
X55461Y13750D01*
X55616Y12575D01*
X56069Y11481D01*
X56791Y10541D01*
X57731Y9819D01*
X58825Y9366D01*
X59888Y9226D01*
X68614Y500D01*
X68407Y0D01*
X0D01*
Y212500D01*
X388750D01*
Y137745D01*
D02*
G37*
%LPC*%
G36*
X14500Y49390D02*
X13646Y49306D01*
X12345Y48911D01*
X11145Y48270D01*
X10093Y47407D01*
X9230Y46355D01*
X8589Y45156D01*
X8195Y43854D01*
X8110Y43000D01*
X14500D01*
Y49390D01*
D02*
G37*
G36*
X237000Y46721D02*
X236391Y46641D01*
X235357Y46212D01*
X234469Y45531D01*
X233788Y44643D01*
X233359Y43609D01*
X233279Y43000D01*
X237000D01*
Y46721D01*
D02*
G37*
G36*
X15500Y49390D02*
Y43000D01*
X21890D01*
X21806Y43854D01*
X21411Y45156D01*
X20770Y46355D01*
X19907Y47407D01*
X18855Y48270D01*
X17655Y48911D01*
X16354Y49306D01*
X15500Y49390D01*
D02*
G37*
G36*
X76721Y44500D02*
X73000D01*
Y40779D01*
X73610Y40859D01*
X74643Y41288D01*
X75531Y41969D01*
X76212Y42857D01*
X76641Y43891D01*
X76721Y44500D01*
D02*
G37*
G36*
X127000Y43921D02*
X126468Y43851D01*
X125507Y43453D01*
X124681Y42819D01*
X124047Y41993D01*
X123649Y41032D01*
X123579Y40500D01*
X127000D01*
Y43921D01*
D02*
G37*
G36*
X241721Y42000D02*
X238000D01*
Y38279D01*
X238610Y38359D01*
X239643Y38788D01*
X240531Y39469D01*
X241212Y40357D01*
X241641Y41391D01*
X241721Y42000D01*
D02*
G37*
G36*
X237000D02*
X233279D01*
X233359Y41391D01*
X233788Y40357D01*
X234469Y39469D01*
X235357Y38788D01*
X236391Y38359D01*
X237000Y38279D01*
Y42000D01*
D02*
G37*
G36*
X56721Y44500D02*
X53000D01*
Y40779D01*
X53610Y40859D01*
X54643Y41288D01*
X55531Y41969D01*
X56212Y42857D01*
X56641Y43891D01*
X56721Y44500D01*
D02*
G37*
G36*
X52000D02*
X48279D01*
X48359Y43891D01*
X48788Y42857D01*
X49469Y41969D01*
X50357Y41288D01*
X51391Y40859D01*
X52000Y40779D01*
Y44500D01*
D02*
G37*
G36*
X128000Y43921D02*
Y40500D01*
X131421D01*
X131351Y41032D01*
X130953Y41993D01*
X130319Y42819D01*
X129493Y43453D01*
X128532Y43851D01*
X128000Y43921D01*
D02*
G37*
G36*
X238000Y46721D02*
Y43000D01*
X241721D01*
X241641Y43609D01*
X241212Y44643D01*
X240531Y45531D01*
X239643Y46212D01*
X238610Y46641D01*
X238000Y46721D01*
D02*
G37*
G36*
X257000Y82000D02*
X252196D01*
X252286Y81314D01*
X252744Y80209D01*
X253472Y79260D01*
X254421Y78531D01*
X255527Y78074D01*
X256713Y77918D01*
X257000D01*
Y82000D01*
D02*
G37*
G36*
X241000Y76535D02*
X240500D01*
Y73000D01*
X244969D01*
X244897Y73544D01*
X244494Y74517D01*
X243853Y75353D01*
X243017Y75994D01*
X242044Y76397D01*
X241000Y76535D01*
D02*
G37*
G36*
X239500D02*
X239000D01*
X237956Y76397D01*
X236983Y75994D01*
X236147Y75353D01*
X235506Y74517D01*
X235103Y73544D01*
X235031Y73000D01*
X239500D01*
Y76535D01*
D02*
G37*
G36*
X262804Y82000D02*
X258000D01*
Y77918D01*
X258288D01*
X259473Y78074D01*
X260579Y78531D01*
X261528Y79260D01*
X262256Y80209D01*
X262714Y81314D01*
X262804Y82000D01*
D02*
G37*
G36*
X257000Y87083D02*
X256713D01*
X255527Y86926D01*
X254421Y86469D01*
X253472Y85740D01*
X252744Y84791D01*
X252286Y83686D01*
X252196Y83000D01*
X257000D01*
Y87083D01*
D02*
G37*
G36*
X18437Y93437D02*
X6563D01*
Y81563D01*
X18437D01*
Y93437D01*
D02*
G37*
G36*
X36931Y117587D02*
X36031Y117278D01*
X35317Y116647D01*
X34899Y115791D01*
X31754Y103878D01*
X19999Y100939D01*
X19750Y100822D01*
X19489Y100735D01*
X19394Y100653D01*
X19280Y100599D01*
X19095Y100396D01*
X18887Y100216D01*
X18858Y100160D01*
X18613Y99943D01*
X18195Y99088D01*
X18136Y98137D01*
X18446Y97237D01*
X19076Y96523D01*
X19932Y96105D01*
X22259Y95490D01*
Y83465D01*
X34219D01*
X34784Y81205D01*
X34902Y80956D01*
X34988Y80695D01*
X35070Y80599D01*
X35124Y80486D01*
X35328Y80301D01*
X35508Y80092D01*
X35564Y80064D01*
X35780Y79819D01*
X36636Y79401D01*
X37586Y79342D01*
X38487Y79652D01*
X39201Y80282D01*
X39619Y81138D01*
X42764Y93051D01*
X54518Y95990D01*
X54767Y96108D01*
X55028Y96194D01*
X55124Y96276D01*
X55238Y96330D01*
X55423Y96534D01*
X55631Y96713D01*
X55659Y96769D01*
X55905Y96986D01*
X56322Y97842D01*
X56381Y98792D01*
X56072Y99693D01*
X55441Y100406D01*
X54586Y100824D01*
X52158Y101465D01*
Y113653D01*
X40251D01*
X39733Y115724D01*
X39616Y115973D01*
X39530Y116234D01*
X39447Y116330D01*
X39394Y116444D01*
X39190Y116628D01*
X39010Y116837D01*
X38954Y116865D01*
X38737Y117110D01*
X37882Y117528D01*
X36931Y117587D01*
D02*
G37*
G36*
X73000Y49221D02*
Y45500D01*
X76721D01*
X76641Y46110D01*
X76212Y47143D01*
X75531Y48031D01*
X74643Y48712D01*
X73610Y49141D01*
X73000Y49221D01*
D02*
G37*
G36*
X53000D02*
Y45500D01*
X56721D01*
X56641Y46110D01*
X56212Y47143D01*
X55531Y48031D01*
X54643Y48712D01*
X53610Y49141D01*
X53000Y49221D01*
D02*
G37*
G36*
X52000D02*
X51391Y49141D01*
X50357Y48712D01*
X49469Y48031D01*
X48788Y47143D01*
X48359Y46110D01*
X48279Y45500D01*
X52000D01*
Y49221D01*
D02*
G37*
G36*
X37500Y75393D02*
X36104Y75209D01*
X34804Y74670D01*
X33687Y73813D01*
X32830Y72696D01*
X32291Y71396D01*
X32107Y70000D01*
X32195Y69331D01*
X28642Y65778D01*
X22212D01*
X21605Y66913D01*
X20617Y68117D01*
X19413Y69105D01*
X18040Y69839D01*
X16550Y70291D01*
X15000Y70444D01*
X13450Y70291D01*
X11960Y69839D01*
X10587Y69105D01*
X9383Y68117D01*
X8395Y66913D01*
X7661Y65540D01*
X7209Y64050D01*
X7056Y62500D01*
X7209Y60950D01*
X7661Y59460D01*
X8395Y58087D01*
X9383Y56883D01*
X10587Y55895D01*
X11960Y55161D01*
X13450Y54709D01*
X15000Y54556D01*
X16550Y54709D01*
X18040Y55161D01*
X19413Y55895D01*
X20617Y56883D01*
X21605Y58087D01*
X22212Y59222D01*
X30000D01*
X30424Y59278D01*
X30849Y59334D01*
X31244Y59497D01*
X31639Y59661D01*
X32318Y60182D01*
X36831Y64696D01*
X37500Y64608D01*
X38169Y64696D01*
X47282Y55583D01*
X47205Y55000D01*
X47385Y53629D01*
X47914Y52352D01*
X48756Y51256D01*
X49852Y50414D01*
X51130Y49885D01*
X52172Y49748D01*
Y49725D01*
X52343D01*
X52500Y49705D01*
X52657Y49725D01*
X52828D01*
Y49748D01*
X53871Y49885D01*
X55148Y50414D01*
X56244Y51256D01*
X57086Y52352D01*
X57615Y53629D01*
X57795Y55000D01*
X57615Y56371D01*
X57086Y57648D01*
X56244Y58744D01*
X55148Y59586D01*
X53871Y60115D01*
X52500Y60295D01*
X51917Y60219D01*
X42805Y69331D01*
X42893Y70000D01*
X42709Y71396D01*
X42170Y72696D01*
X41313Y73813D01*
X40196Y74670D01*
X38896Y75209D01*
X37500Y75393D01*
D02*
G37*
G36*
X244969Y72000D02*
X240500D01*
Y68466D01*
X241000D01*
X242044Y68603D01*
X243017Y69006D01*
X243853Y69647D01*
X244494Y70483D01*
X244897Y71456D01*
X244969Y72000D01*
D02*
G37*
G36*
X239500D02*
X235031D01*
X235103Y71456D01*
X235506Y70483D01*
X236147Y69647D01*
X236983Y69006D01*
X237956Y68603D01*
X239000Y68466D01*
X239500D01*
Y72000D01*
D02*
G37*
G36*
X365000Y73606D02*
X364067Y73483D01*
X363197Y73123D01*
X362451Y72550D01*
X361877Y71803D01*
X361517Y70933D01*
X361394Y70000D01*
X361517Y69067D01*
X361877Y68197D01*
X362451Y67450D01*
X363197Y66878D01*
X364067Y66517D01*
X365000Y66394D01*
X365933Y66517D01*
X366803Y66878D01*
X367550Y67450D01*
X368123Y68197D01*
X368483Y69067D01*
X368606Y70000D01*
X368483Y70933D01*
X368123Y71803D01*
X367550Y72550D01*
X366803Y73123D01*
X365933Y73483D01*
X365000Y73606D01*
D02*
G37*
G36*
X131421Y39500D02*
X128000D01*
Y36079D01*
X128532Y36149D01*
X129493Y36547D01*
X130319Y37181D01*
X130953Y38007D01*
X131351Y38968D01*
X131421Y39500D01*
D02*
G37*
G36*
X94061Y19500D02*
X89250D01*
Y14689D01*
X90142Y14807D01*
X91438Y15344D01*
X92552Y16198D01*
X93406Y17312D01*
X93944Y18609D01*
X94061Y19500D01*
D02*
G37*
G36*
X88250D02*
X83439D01*
X83557Y18609D01*
X84094Y17312D01*
X84948Y16198D01*
X86062Y15344D01*
X87358Y14807D01*
X88250Y14689D01*
Y19500D01*
D02*
G37*
G36*
X73750Y26361D02*
X72509Y26239D01*
X71316Y25877D01*
X70216Y25289D01*
X69252Y24498D01*
X68461Y23534D01*
X67873Y22434D01*
X67511Y21241D01*
X67389Y20000D01*
X67511Y18759D01*
X67873Y17566D01*
X68461Y16466D01*
X69252Y15502D01*
X70216Y14711D01*
X71316Y14123D01*
X72509Y13761D01*
X73750Y13639D01*
X74991Y13761D01*
X76184Y14123D01*
X77284Y14711D01*
X78248Y15502D01*
X79039Y16466D01*
X79627Y17566D01*
X79989Y18759D01*
X80111Y20000D01*
X79989Y21241D01*
X79627Y22434D01*
X79039Y23534D01*
X78248Y24498D01*
X77284Y25289D01*
X76184Y25877D01*
X74991Y26239D01*
X73750Y26361D01*
D02*
G37*
G36*
X279500Y24390D02*
X278646Y24306D01*
X277345Y23911D01*
X276145Y23270D01*
X275094Y22407D01*
X274231Y21355D01*
X273589Y20155D01*
X273195Y18854D01*
X273110Y18000D01*
X279500D01*
Y24390D01*
D02*
G37*
G36*
X240500D02*
Y18000D01*
X246890D01*
X246806Y18854D01*
X246411Y20155D01*
X245770Y21355D01*
X244907Y22407D01*
X243855Y23270D01*
X242655Y23911D01*
X241354Y24306D01*
X240500Y24390D01*
D02*
G37*
G36*
X239500D02*
X238646Y24306D01*
X237345Y23911D01*
X236145Y23270D01*
X235093Y22407D01*
X234230Y21355D01*
X233589Y20155D01*
X233194Y18854D01*
X233110Y18000D01*
X239500D01*
Y24390D01*
D02*
G37*
G36*
X122500Y21643D02*
X121104Y21459D01*
X119804Y20920D01*
X118687Y20063D01*
X117830Y18946D01*
X117291Y17646D01*
X117107Y16250D01*
X117291Y14854D01*
X117830Y13554D01*
X118687Y12437D01*
X119804Y11580D01*
X121104Y11041D01*
X122500Y10858D01*
X123896Y11041D01*
X125196Y11580D01*
X126313Y12437D01*
X127170Y13554D01*
X127709Y14854D01*
X127893Y16250D01*
X127709Y17646D01*
X127170Y18946D01*
X126313Y20063D01*
X125196Y20920D01*
X123896Y21459D01*
X122500Y21643D01*
D02*
G37*
G36*
X239500Y17000D02*
X233110D01*
X233194Y16146D01*
X233589Y14845D01*
X234230Y13645D01*
X235093Y12594D01*
X236145Y11731D01*
X237345Y11089D01*
X238646Y10695D01*
X239500Y10610D01*
Y17000D01*
D02*
G37*
G36*
X260000Y25444D02*
X258450Y25291D01*
X256960Y24839D01*
X255587Y24105D01*
X254383Y23117D01*
X253395Y21913D01*
X252661Y20540D01*
X252209Y19050D01*
X252056Y17500D01*
X252209Y15950D01*
X252661Y14460D01*
X253395Y13087D01*
X254383Y11883D01*
X255587Y10895D01*
X256960Y10161D01*
X258450Y9709D01*
X260000Y9556D01*
X261550Y9709D01*
X263040Y10161D01*
X264413Y10895D01*
X265617Y11883D01*
X266605Y13087D01*
X267339Y14460D01*
X267791Y15950D01*
X267944Y17500D01*
X267791Y19050D01*
X267339Y20540D01*
X266605Y21913D01*
X265617Y23117D01*
X264413Y24105D01*
X263040Y24839D01*
X261550Y25291D01*
X260000Y25444D01*
D02*
G37*
G36*
X12500Y20444D02*
X10950Y20291D01*
X9460Y19839D01*
X8087Y19105D01*
X6883Y18117D01*
X5895Y16913D01*
X5161Y15540D01*
X4709Y14050D01*
X4556Y12500D01*
X4709Y10950D01*
X5161Y9460D01*
X5895Y8087D01*
X6883Y6883D01*
X8087Y5895D01*
X9460Y5161D01*
X10950Y4709D01*
X12500Y4556D01*
X14050Y4709D01*
X15540Y5161D01*
X16913Y5895D01*
X18117Y6883D01*
X19105Y8087D01*
X19839Y9460D01*
X20291Y10950D01*
X20444Y12500D01*
X20291Y14050D01*
X19839Y15540D01*
X19105Y16913D01*
X18117Y18117D01*
X16913Y19105D01*
X15540Y19839D01*
X14050Y20291D01*
X12500Y20444D01*
D02*
G37*
G36*
X286890Y17000D02*
X280500D01*
Y10610D01*
X281354Y10695D01*
X282656Y11089D01*
X283855Y11731D01*
X284907Y12594D01*
X285770Y13645D01*
X286411Y14845D01*
X286806Y16146D01*
X286890Y17000D01*
D02*
G37*
G36*
X279500D02*
X273110D01*
X273195Y16146D01*
X273589Y14845D01*
X274231Y13645D01*
X275094Y12594D01*
X276145Y11731D01*
X277345Y11089D01*
X278646Y10695D01*
X279500Y10610D01*
Y17000D01*
D02*
G37*
G36*
X246890D02*
X240500D01*
Y10610D01*
X241354Y10695D01*
X242655Y11089D01*
X243855Y11731D01*
X244907Y12594D01*
X245770Y13645D01*
X246411Y14845D01*
X246806Y16146D01*
X246890Y17000D01*
D02*
G37*
G36*
X227500Y47795D02*
X226130Y47615D01*
X224852Y47086D01*
X223756Y46244D01*
X222914Y45148D01*
X222385Y43871D01*
X222205Y42500D01*
X222385Y41129D01*
X222914Y39852D01*
X223756Y38756D01*
X224222Y38398D01*
Y35676D01*
X224152Y35666D01*
X223361Y35339D01*
X222682Y34818D01*
X217682Y29818D01*
X217161Y29139D01*
X216997Y28744D01*
X216834Y28348D01*
X216778Y27924D01*
X216722Y27500D01*
Y24712D01*
X215587Y24105D01*
X214383Y23117D01*
X213395Y21913D01*
X212661Y20540D01*
X212209Y19050D01*
X212056Y17500D01*
X212209Y15950D01*
X212661Y14460D01*
X213395Y13087D01*
X214383Y11883D01*
X215587Y10895D01*
X216960Y10161D01*
X218450Y9709D01*
X220000Y9556D01*
X221550Y9709D01*
X223040Y10161D01*
X224413Y10895D01*
X225617Y11883D01*
X226605Y13087D01*
X227339Y14460D01*
X227791Y15950D01*
X227944Y17500D01*
X227791Y19050D01*
X227339Y20540D01*
X226605Y21913D01*
X225617Y23117D01*
X224413Y24105D01*
X223278Y24712D01*
Y26142D01*
X226358Y29222D01*
X242500D01*
X242924Y29278D01*
X243349Y29334D01*
X243744Y29497D01*
X244139Y29661D01*
X244818Y30182D01*
X251358Y36722D01*
X273276D01*
X273687Y36187D01*
X274804Y35330D01*
X276104Y34791D01*
X277500Y34607D01*
X278896Y34791D01*
X280196Y35330D01*
X281313Y36187D01*
X282170Y37304D01*
X282709Y38604D01*
X282893Y40000D01*
X282709Y41396D01*
X282170Y42696D01*
X281313Y43813D01*
X280196Y44670D01*
X278896Y45209D01*
X277500Y45393D01*
X276104Y45209D01*
X274804Y44670D01*
X273687Y43813D01*
X273276Y43278D01*
X250000D01*
X249576Y43222D01*
X249152Y43166D01*
X248756Y43003D01*
X248361Y42839D01*
X247977Y42544D01*
X247682Y42318D01*
X241142Y35778D01*
X230778D01*
Y38398D01*
X231244Y38756D01*
X232086Y39852D01*
X232615Y41129D01*
X232752Y42172D01*
X232775D01*
Y42343D01*
X232796Y42500D01*
X232775Y42657D01*
Y42828D01*
X232752D01*
X232615Y43871D01*
X232086Y45148D01*
X231244Y46244D01*
X230148Y47086D01*
X228871Y47615D01*
X227500Y47795D01*
D02*
G37*
G36*
X115500Y36818D02*
Y33000D01*
X119318D01*
X119235Y33635D01*
X118797Y34692D01*
X118100Y35600D01*
X117192Y36297D01*
X116135Y36735D01*
X115500Y36818D01*
D02*
G37*
G36*
X90000Y50295D02*
X88630Y50115D01*
X87352Y49586D01*
X86256Y48744D01*
X85414Y47648D01*
X84885Y46371D01*
X84705Y45000D01*
X84885Y43630D01*
X85414Y42352D01*
X86256Y41256D01*
X87352Y40414D01*
X88630Y39885D01*
X90000Y39705D01*
X91371Y39885D01*
X92648Y40414D01*
X93744Y41256D01*
X94102Y41722D01*
X101142D01*
X101722Y41142D01*
Y36724D01*
X101187Y36313D01*
X100330Y35196D01*
X99791Y33896D01*
X99607Y32500D01*
X99791Y31104D01*
X100330Y29804D01*
X101187Y28687D01*
X102304Y27830D01*
X103604Y27291D01*
X105000Y27108D01*
X106396Y27291D01*
X107696Y27830D01*
X108813Y28687D01*
X109670Y29804D01*
X110209Y31104D01*
X110252Y31433D01*
X110757D01*
X110766Y31365D01*
X111203Y30308D01*
X111900Y29400D01*
X112808Y28703D01*
X113865Y28266D01*
X114500Y28182D01*
Y32500D01*
Y36818D01*
X113865Y36735D01*
X112808Y36297D01*
X111900Y35600D01*
X111203Y34692D01*
X110766Y33635D01*
X110757Y33567D01*
X110252D01*
X110209Y33896D01*
X109670Y35196D01*
X108813Y36313D01*
X108278Y36724D01*
Y42500D01*
X108166Y43349D01*
X107839Y44139D01*
X107544Y44523D01*
X107318Y44818D01*
X104818Y47318D01*
X104139Y47839D01*
X103744Y48003D01*
X103349Y48166D01*
X102924Y48222D01*
X102500Y48278D01*
X94102D01*
X93744Y48744D01*
X92648Y49586D01*
X91371Y50115D01*
X90000Y50295D01*
D02*
G37*
G36*
X127000Y39500D02*
X123579D01*
X123649Y38968D01*
X124047Y38007D01*
X124681Y37181D01*
X125507Y36547D01*
X126468Y36149D01*
X127000Y36079D01*
Y39500D01*
D02*
G37*
G36*
X21890Y42000D02*
X15500D01*
Y35610D01*
X16354Y35695D01*
X17655Y36089D01*
X18855Y36731D01*
X19907Y37593D01*
X20770Y38645D01*
X21411Y39845D01*
X21806Y41146D01*
X21890Y42000D01*
D02*
G37*
G36*
X14500D02*
X8110D01*
X8195Y41146D01*
X8589Y39845D01*
X9230Y38645D01*
X10093Y37593D01*
X11145Y36731D01*
X12345Y36089D01*
X13646Y35695D01*
X14500Y35610D01*
Y42000D01*
D02*
G37*
G36*
X123000Y31818D02*
Y28000D01*
X126818D01*
X126735Y28635D01*
X126297Y29692D01*
X125600Y30600D01*
X124692Y31297D01*
X123635Y31735D01*
X123000Y31818D01*
D02*
G37*
G36*
X89250Y25311D02*
Y20500D01*
X94061D01*
X93944Y21392D01*
X93406Y22688D01*
X92552Y23802D01*
X91438Y24656D01*
X90142Y25194D01*
X89250Y25311D01*
D02*
G37*
G36*
X88250D02*
X87358Y25194D01*
X86062Y24656D01*
X84948Y23802D01*
X84094Y22688D01*
X83557Y21392D01*
X83439Y20500D01*
X88250D01*
Y25311D01*
D02*
G37*
G36*
X280500Y24390D02*
Y18000D01*
X286890D01*
X286806Y18854D01*
X286411Y20155D01*
X285770Y21355D01*
X284907Y22407D01*
X283855Y23270D01*
X282656Y23911D01*
X281354Y24306D01*
X280500Y24390D01*
D02*
G37*
G36*
X119318Y32000D02*
X115500D01*
Y28182D01*
X116135Y28266D01*
X117192Y28703D01*
X118014Y29334D01*
X118375Y29132D01*
X118444Y29065D01*
X118265Y28635D01*
X118182Y28000D01*
X122000D01*
Y31818D01*
X121365Y31735D01*
X120308Y31297D01*
X119486Y30666D01*
X119125Y30868D01*
X119056Y30935D01*
X119235Y31365D01*
X119318Y32000D01*
D02*
G37*
G36*
X126818Y27000D02*
X123000D01*
Y23182D01*
X123635Y23266D01*
X124692Y23703D01*
X125600Y24400D01*
X126297Y25308D01*
X126735Y26365D01*
X126818Y27000D01*
D02*
G37*
G36*
X122000D02*
X118182D01*
X118265Y26365D01*
X118703Y25308D01*
X119400Y24400D01*
X120308Y23703D01*
X121365Y23266D01*
X122000Y23182D01*
Y27000D01*
D02*
G37*
G36*
X30126Y179520D02*
Y170185D01*
X34606D01*
Y174606D01*
X34436Y175895D01*
X33939Y177096D01*
X33147Y178128D01*
X32116Y178919D01*
X30915Y179416D01*
X30126Y179520D01*
D02*
G37*
G36*
X29126D02*
X28337Y179416D01*
X27136Y178919D01*
X26105Y178128D01*
X25314Y177096D01*
X24816Y175895D01*
X24646Y174606D01*
Y170185D01*
X29126D01*
Y179520D01*
D02*
G37*
G36*
X365000Y173606D02*
X364067Y173483D01*
X363197Y173123D01*
X362451Y172550D01*
X361877Y171803D01*
X361517Y170933D01*
X361394Y170000D01*
X361517Y169067D01*
X361877Y168197D01*
X362451Y167450D01*
X363197Y166877D01*
X364067Y166517D01*
X365000Y166394D01*
X365933Y166517D01*
X366803Y166877D01*
X367550Y167450D01*
X368123Y168197D01*
X368483Y169067D01*
X368606Y170000D01*
X368483Y170933D01*
X368123Y171803D01*
X367550Y172550D01*
X366803Y173123D01*
X365933Y173483D01*
X365000Y173606D01*
D02*
G37*
G36*
X88125Y190444D02*
X86575Y190291D01*
X85085Y189839D01*
X83712Y189105D01*
X82508Y188117D01*
X81520Y186913D01*
X80786Y185540D01*
X80334Y184050D01*
X80181Y182500D01*
X80334Y180950D01*
X80786Y179460D01*
X81520Y178087D01*
X82508Y176883D01*
X83712Y175895D01*
X85085Y175161D01*
X86575Y174709D01*
X88125Y174556D01*
X89675Y174709D01*
X91165Y175161D01*
X92538Y175895D01*
X93742Y176883D01*
X94730Y178087D01*
X95464Y179460D01*
X95916Y180950D01*
X96069Y182500D01*
X95916Y184050D01*
X95464Y185540D01*
X94730Y186913D01*
X93742Y188117D01*
X92538Y189105D01*
X91165Y189839D01*
X89675Y190291D01*
X88125Y190444D01*
D02*
G37*
G36*
X246890Y192000D02*
X240500D01*
Y185610D01*
X241354Y185695D01*
X242655Y186089D01*
X243855Y186731D01*
X244907Y187593D01*
X245770Y188645D01*
X246411Y189845D01*
X246806Y191146D01*
X246890Y192000D01*
D02*
G37*
G36*
X239500D02*
X233110D01*
X233194Y191146D01*
X233589Y189845D01*
X234230Y188645D01*
X235093Y187593D01*
X236145Y186731D01*
X237345Y186089D01*
X238646Y185695D01*
X239500Y185610D01*
Y192000D01*
D02*
G37*
G36*
X129375Y206379D02*
X127928Y206188D01*
X126579Y205629D01*
X125422Y204741D01*
X124533Y203583D01*
X123974Y202235D01*
X123784Y200787D01*
Y199213D01*
X123974Y197766D01*
X124533Y196417D01*
X125422Y195259D01*
X126097Y194741D01*
Y178858D01*
X124932Y177693D01*
X124411Y177014D01*
X124247Y176619D01*
X124084Y176224D01*
X124028Y175799D01*
X123972Y175375D01*
Y172759D01*
X123296Y172241D01*
X122408Y171083D01*
X121849Y169735D01*
X121659Y168288D01*
Y166713D01*
X121849Y165266D01*
X122408Y163917D01*
X123296Y162759D01*
X123972Y162241D01*
Y146108D01*
X123642Y145778D01*
X121724D01*
X121313Y146313D01*
X120196Y147170D01*
X120003Y147250D01*
Y147750D01*
X120196Y147830D01*
X121313Y148687D01*
X122170Y149804D01*
X122709Y151104D01*
X122893Y152500D01*
X122709Y153896D01*
X122170Y155196D01*
X121313Y156313D01*
X120196Y157170D01*
X118896Y157709D01*
X117500Y157893D01*
X116104Y157709D01*
X114804Y157170D01*
X113687Y156313D01*
X112830Y155196D01*
X112291Y153896D01*
X112108Y152500D01*
X112291Y151104D01*
X112830Y149804D01*
X113687Y148687D01*
X114804Y147830D01*
X114997Y147750D01*
Y147250D01*
X114804Y147170D01*
X113687Y146313D01*
X112830Y145196D01*
X112291Y143896D01*
X112108Y142500D01*
X112291Y141104D01*
X112830Y139804D01*
X113687Y138687D01*
X114804Y137830D01*
X116104Y137291D01*
X117500Y137108D01*
X118896Y137291D01*
X120196Y137830D01*
X121313Y138687D01*
X121724Y139222D01*
X125000D01*
X125424Y139278D01*
X125848Y139334D01*
X126244Y139497D01*
X126639Y139661D01*
X127318Y140182D01*
X129568Y142432D01*
X130089Y143111D01*
X130253Y143506D01*
X130416Y143902D01*
X130472Y144326D01*
X130528Y144750D01*
Y162241D01*
X131204Y162759D01*
X131385Y162995D01*
X131885Y163004D01*
X132276Y162526D01*
X133342Y161652D01*
X134558Y161002D01*
X135878Y160601D01*
X137250Y160466D01*
X138622Y160601D01*
X139942Y161002D01*
X141158Y161652D01*
X142224Y162526D01*
X142615Y163004D01*
X143115Y162995D01*
X143297Y162759D01*
X143972Y162241D01*
Y145250D01*
X144028Y144826D01*
X144084Y144402D01*
X144247Y144006D01*
X144411Y143611D01*
X144932Y142932D01*
X147682Y140182D01*
X148361Y139661D01*
X149152Y139334D01*
X150000Y139222D01*
X153276D01*
X153687Y138687D01*
X154804Y137830D01*
X156104Y137291D01*
X157500Y137108D01*
X158896Y137291D01*
X160196Y137830D01*
X161313Y138687D01*
X162170Y139804D01*
X162709Y141104D01*
X162893Y142500D01*
X162709Y143896D01*
X162170Y145196D01*
X161313Y146313D01*
X160196Y147170D01*
X160003Y147250D01*
Y147750D01*
X160196Y147830D01*
X161313Y148687D01*
X162170Y149804D01*
X162709Y151104D01*
X162893Y152500D01*
X162709Y153896D01*
X162170Y155196D01*
X161313Y156313D01*
X160196Y157170D01*
X158896Y157709D01*
X157500Y157893D01*
X156104Y157709D01*
X154804Y157170D01*
X153687Y156313D01*
X152830Y155196D01*
X152291Y153896D01*
X152108Y152500D01*
X152291Y151104D01*
X152830Y149804D01*
X153687Y148687D01*
X154804Y147830D01*
X154997Y147750D01*
Y147250D01*
X154804Y147170D01*
X153687Y146313D01*
X153276Y145778D01*
X151358D01*
X150528Y146608D01*
Y162241D01*
X151204Y162759D01*
X152092Y163917D01*
X152651Y165266D01*
X152841Y166713D01*
Y168288D01*
X152651Y169735D01*
X152092Y171083D01*
X151204Y172241D01*
X150046Y173129D01*
X148697Y173688D01*
X147250Y173879D01*
X146957Y173840D01*
X146736Y174288D01*
X162914Y190466D01*
X183555D01*
X183629Y189966D01*
X183210Y189839D01*
X181837Y189105D01*
X180633Y188117D01*
X179645Y186913D01*
X178911Y185540D01*
X178459Y184050D01*
X178306Y182500D01*
X178459Y180950D01*
X178911Y179460D01*
X179645Y178087D01*
X180633Y176883D01*
X181837Y175895D01*
X183210Y175161D01*
X184700Y174709D01*
X186250Y174556D01*
X187800Y174709D01*
X189290Y175161D01*
X190663Y175895D01*
X191867Y176883D01*
X192855Y178087D01*
X193589Y179460D01*
X194041Y180950D01*
X194194Y182500D01*
X194041Y184050D01*
X193589Y185540D01*
X192855Y186913D01*
X191867Y188117D01*
X190663Y189105D01*
X189290Y189839D01*
X188871Y189966D01*
X188945Y190466D01*
X212087D01*
X212473Y190080D01*
X212661Y189460D01*
X213395Y188087D01*
X214383Y186883D01*
X215587Y185895D01*
X216960Y185161D01*
X218450Y184709D01*
X220000Y184556D01*
X221550Y184709D01*
X223040Y185161D01*
X224413Y185895D01*
X225617Y186883D01*
X226605Y188087D01*
X227339Y189460D01*
X227791Y190950D01*
X227944Y192500D01*
X227791Y194050D01*
X227339Y195540D01*
X226605Y196913D01*
X225617Y198117D01*
X224413Y199105D01*
X223040Y199839D01*
X222420Y200027D01*
X219974Y202474D01*
X218908Y203348D01*
X217692Y203998D01*
X216372Y204399D01*
X215000Y204534D01*
X160000D01*
X160000Y204534D01*
X158628Y204399D01*
X157308Y203998D01*
X156092Y203348D01*
X155026Y202474D01*
X142774Y190222D01*
X142301Y190455D01*
X142466Y191713D01*
Y193288D01*
X142291Y194617D01*
X142532Y194880D01*
X142714Y194983D01*
X143189Y194786D01*
X143875Y194696D01*
Y199500D01*
X139793D01*
Y199213D01*
X139876Y198577D01*
X139417Y198235D01*
X138322Y198688D01*
X136875Y198879D01*
X135428Y198688D01*
X135328Y198647D01*
X134932Y198951D01*
X134966Y199213D01*
Y200787D01*
X134776Y202235D01*
X134217Y203583D01*
X133329Y204741D01*
X132171Y205629D01*
X130822Y206188D01*
X129375Y206379D01*
D02*
G37*
G36*
X369517Y159500D02*
X365500D01*
Y155483D01*
X366186Y155574D01*
X367291Y156032D01*
X368240Y156760D01*
X368969Y157709D01*
X369426Y158814D01*
X369517Y159500D01*
D02*
G37*
G36*
X364500D02*
X360483D01*
X360574Y158814D01*
X361032Y157709D01*
X361760Y156760D01*
X362709Y156032D01*
X363814Y155574D01*
X364500Y155483D01*
Y159500D01*
D02*
G37*
G36*
X45374Y154980D02*
X41937D01*
Y150500D01*
X50288D01*
X50184Y151289D01*
X49687Y152490D01*
X48895Y153521D01*
X47864Y154313D01*
X46663Y154810D01*
X45374Y154980D01*
D02*
G37*
G36*
X29126Y169185D02*
X24646D01*
Y164764D01*
X24816Y163475D01*
X25314Y162274D01*
X26105Y161243D01*
X27136Y160451D01*
X28337Y159954D01*
X29126Y159850D01*
Y169185D01*
D02*
G37*
G36*
X365500Y164517D02*
Y160500D01*
X369517D01*
X369426Y161186D01*
X368969Y162291D01*
X368240Y163240D01*
X367291Y163969D01*
X366186Y164426D01*
X365500Y164517D01*
D02*
G37*
G36*
X364500D02*
X363814Y164426D01*
X362709Y163969D01*
X361760Y163240D01*
X361032Y162291D01*
X360574Y161186D01*
X360483Y160500D01*
X364500D01*
Y164517D01*
D02*
G37*
G36*
X34606Y169185D02*
X30126D01*
Y159850D01*
X30915Y159954D01*
X32116Y160451D01*
X33147Y161243D01*
X33939Y162274D01*
X34436Y163475D01*
X34606Y164764D01*
Y169185D01*
D02*
G37*
G36*
X279500Y192000D02*
X273110D01*
X273195Y191146D01*
X273589Y189845D01*
X274231Y188645D01*
X275094Y187593D01*
X276145Y186731D01*
X277345Y186089D01*
X278646Y185695D01*
X279500Y185610D01*
Y192000D01*
D02*
G37*
G36*
X143875Y205304D02*
X143189Y205214D01*
X142084Y204756D01*
X141135Y204028D01*
X140407Y203079D01*
X139949Y201974D01*
X139793Y200787D01*
Y200500D01*
X143875D01*
Y205304D01*
D02*
G37*
G36*
X348921Y203250D02*
X345500D01*
Y199829D01*
X346032Y199899D01*
X346993Y200297D01*
X347819Y200931D01*
X348453Y201757D01*
X348851Y202718D01*
X348921Y203250D01*
D02*
G37*
G36*
X148958Y199500D02*
X144875D01*
Y194696D01*
X145561Y194786D01*
X146666Y195244D01*
X147615Y195972D01*
X148344Y196921D01*
X148801Y198027D01*
X148958Y199213D01*
Y199500D01*
D02*
G37*
G36*
X144875Y205304D02*
Y200500D01*
X148958D01*
Y200787D01*
X148801Y201974D01*
X148344Y203079D01*
X147615Y204028D01*
X146666Y204756D01*
X145561Y205214D01*
X144875Y205304D01*
D02*
G37*
G36*
X335000Y208746D02*
X333707Y208575D01*
X332502Y208076D01*
X331468Y207282D01*
X330674Y206248D01*
X330271Y205274D01*
X329729D01*
X329326Y206248D01*
X328532Y207282D01*
X327498Y208076D01*
X326293Y208575D01*
X325000Y208746D01*
X323707Y208575D01*
X322502Y208076D01*
X321468Y207282D01*
X321273Y207028D01*
X318750D01*
X317902Y206916D01*
X317343Y206685D01*
X317111Y206589D01*
X316816Y206363D01*
X316432Y206068D01*
X290182Y179818D01*
X289661Y179139D01*
X289497Y178744D01*
X289334Y178349D01*
X289278Y177924D01*
X289222Y177500D01*
Y148858D01*
X283142Y142778D01*
X244712D01*
X244105Y143913D01*
X243117Y145117D01*
X241913Y146105D01*
X240540Y146839D01*
X239050Y147291D01*
X237500Y147444D01*
X235950Y147291D01*
X234460Y146839D01*
X233087Y146105D01*
X231883Y145117D01*
X230895Y143913D01*
X230161Y142540D01*
X229709Y141050D01*
X229556Y139500D01*
X229709Y137950D01*
X230161Y136460D01*
X230895Y135087D01*
X231883Y133883D01*
X233087Y132895D01*
X234460Y132161D01*
X235950Y131709D01*
X237500Y131556D01*
X239050Y131709D01*
X240282Y132083D01*
X241722Y130642D01*
Y114224D01*
X241187Y113813D01*
X240330Y112696D01*
X239791Y111396D01*
X239608Y110000D01*
X239791Y108604D01*
X240237Y107528D01*
X239952Y107028D01*
X212608D01*
X210305Y109331D01*
X210393Y110000D01*
X210209Y111396D01*
X209670Y112696D01*
X208813Y113813D01*
X208278Y114224D01*
Y131142D01*
X209718Y132583D01*
X210950Y132209D01*
X212500Y132056D01*
X214050Y132209D01*
X215540Y132661D01*
X216913Y133395D01*
X218117Y134383D01*
X219105Y135587D01*
X219839Y136960D01*
X220291Y138450D01*
X220444Y140000D01*
X220291Y141550D01*
X219839Y143040D01*
X219105Y144413D01*
X218117Y145617D01*
X216913Y146605D01*
X215540Y147339D01*
X214050Y147791D01*
X212500Y147944D01*
X210950Y147791D01*
X209460Y147339D01*
X208087Y146605D01*
X206883Y145617D01*
X205895Y144413D01*
X205161Y143040D01*
X204709Y141550D01*
X204556Y140000D01*
X204709Y138450D01*
X205083Y137218D01*
X202682Y134818D01*
X202278Y134291D01*
X201778Y134461D01*
Y144642D01*
X206358Y149222D01*
X220000D01*
X220424Y149278D01*
X220848Y149334D01*
X221244Y149497D01*
X221639Y149661D01*
X222318Y150182D01*
X257218Y185083D01*
X258450Y184709D01*
X260000Y184556D01*
X261550Y184709D01*
X263040Y185161D01*
X264413Y185895D01*
X265617Y186883D01*
X266605Y188087D01*
X267339Y189460D01*
X267791Y190950D01*
X267944Y192500D01*
X267791Y194050D01*
X267339Y195540D01*
X266605Y196913D01*
X265617Y198117D01*
X264413Y199105D01*
X263040Y199839D01*
X261550Y200291D01*
X260000Y200444D01*
X258450Y200291D01*
X256960Y199839D01*
X255587Y199105D01*
X254383Y198117D01*
X253395Y196913D01*
X252661Y195540D01*
X252209Y194050D01*
X252056Y192500D01*
X252209Y190950D01*
X252583Y189718D01*
X218642Y155778D01*
X205000D01*
X204152Y155666D01*
X203361Y155339D01*
X202682Y154818D01*
X196182Y148318D01*
X195661Y147639D01*
X195498Y147244D01*
X195334Y146848D01*
X195278Y146424D01*
X195222Y146000D01*
Y95042D01*
X194722Y94892D01*
X194139Y95339D01*
X193744Y95503D01*
X193349Y95666D01*
X192924Y95722D01*
X192500Y95778D01*
X181476D01*
X181173Y96173D01*
X180097Y96998D01*
X178844Y97517D01*
X177500Y97694D01*
X176156Y97517D01*
X174903Y96998D01*
X173827Y96173D01*
X173002Y95097D01*
X172528Y93953D01*
X172028Y94053D01*
Y103750D01*
X171916Y104598D01*
X171685Y105157D01*
X171589Y105389D01*
X171363Y105684D01*
X171068Y106068D01*
X161068Y116068D01*
X160389Y116589D01*
X159994Y116753D01*
X159599Y116916D01*
X159174Y116972D01*
X158750Y117028D01*
X141250D01*
X140402Y116916D01*
X139843Y116685D01*
X139611Y116589D01*
X139316Y116363D01*
X138932Y116068D01*
X113642Y90778D01*
X77480D01*
X77460Y90814D01*
X76718Y91719D01*
X75814Y92460D01*
X74783Y93012D01*
X73664Y93351D01*
X72500Y93466D01*
X71336Y93351D01*
X70217Y93012D01*
X69186Y92460D01*
X68282Y91719D01*
X67540Y90814D01*
X66988Y89783D01*
X66649Y88664D01*
X66534Y87500D01*
X66649Y86336D01*
X66988Y85217D01*
X67540Y84186D01*
X68282Y83282D01*
X69186Y82540D01*
X69222Y82520D01*
Y76358D01*
X62682Y69818D01*
X62161Y69139D01*
X61997Y68744D01*
X61834Y68348D01*
X61778Y67924D01*
X61722Y67500D01*
Y38858D01*
X56142Y33278D01*
X41724D01*
X41313Y33813D01*
X40196Y34670D01*
X38896Y35209D01*
X37500Y35393D01*
X36104Y35209D01*
X34804Y34670D01*
X33687Y33813D01*
X32830Y32696D01*
X32291Y31396D01*
X32107Y30000D01*
X32291Y28604D01*
X32830Y27304D01*
X33687Y26187D01*
X34804Y25330D01*
X36104Y24791D01*
X37500Y24608D01*
X38896Y24791D01*
X40196Y25330D01*
X41313Y26187D01*
X41724Y26722D01*
X57500D01*
X57924Y26778D01*
X58349Y26834D01*
X58744Y26997D01*
X59139Y27161D01*
X59818Y27682D01*
X67318Y35182D01*
X67544Y35477D01*
X67839Y35861D01*
X68003Y36256D01*
X68166Y36652D01*
X68222Y37076D01*
X68278Y37500D01*
Y42780D01*
X68778Y42880D01*
X68788Y42857D01*
X69469Y41969D01*
X70357Y41288D01*
X71391Y40859D01*
X72000Y40779D01*
Y45000D01*
Y49221D01*
X71391Y49141D01*
X70357Y48712D01*
X69469Y48031D01*
X68788Y47143D01*
X68778Y47120D01*
X68278Y47220D01*
Y61100D01*
X68603Y61211D01*
X68778Y61238D01*
X69852Y60414D01*
X71130Y59885D01*
X72500Y59705D01*
X73871Y59885D01*
X75148Y60414D01*
X76244Y61256D01*
X76602Y61722D01*
X85898D01*
X86256Y61256D01*
X87352Y60414D01*
X88630Y59885D01*
X90000Y59705D01*
X91371Y59885D01*
X92648Y60414D01*
X93744Y61256D01*
X94586Y62352D01*
X95115Y63630D01*
X95295Y65000D01*
X95115Y66371D01*
X94586Y67648D01*
X93744Y68744D01*
X93278Y69102D01*
Y73642D01*
X98858Y79222D01*
X118276D01*
X118687Y78687D01*
X119804Y77830D01*
X121104Y77291D01*
X122500Y77108D01*
X123169Y77196D01*
X124222Y76142D01*
Y74953D01*
X122547D01*
Y65047D01*
X125436D01*
X125536Y64547D01*
X125002Y64326D01*
X123968Y63532D01*
X123773Y63278D01*
X121358D01*
X118278Y66358D01*
Y68276D01*
X118813Y68687D01*
X119670Y69804D01*
X120209Y71104D01*
X120393Y72500D01*
X120209Y73896D01*
X119670Y75196D01*
X118813Y76313D01*
X117696Y77170D01*
X116396Y77709D01*
X115000Y77893D01*
X113604Y77709D01*
X112304Y77170D01*
X111187Y76313D01*
X110330Y75196D01*
X110250Y75003D01*
X109750D01*
X109670Y75196D01*
X108813Y76313D01*
X107696Y77170D01*
X106396Y77709D01*
X105000Y77893D01*
X103604Y77709D01*
X102304Y77170D01*
X101187Y76313D01*
X100330Y75196D01*
X99791Y73896D01*
X99607Y72500D01*
X99791Y71104D01*
X100330Y69804D01*
X101187Y68687D01*
X101722Y68276D01*
Y60000D01*
X101778Y59576D01*
X101834Y59152D01*
X101997Y58756D01*
X102161Y58361D01*
X102682Y57682D01*
X112682Y47682D01*
X113066Y47387D01*
X113361Y47161D01*
X113593Y47065D01*
X114152Y46834D01*
X115000Y46722D01*
X123773D01*
X123968Y46468D01*
X125002Y45674D01*
X126207Y45175D01*
X127500Y45005D01*
X128793Y45175D01*
X129998Y45674D01*
X131032Y46468D01*
X131826Y47502D01*
X132325Y48707D01*
X132495Y50000D01*
X132325Y51293D01*
X131826Y52498D01*
X131032Y53532D01*
X129998Y54326D01*
X129024Y54729D01*
Y55271D01*
X129998Y55674D01*
X131032Y56468D01*
X131228Y56722D01*
X132500D01*
X132924Y56778D01*
X133349Y56834D01*
X133744Y56998D01*
X134139Y57161D01*
X134818Y57682D01*
X139818Y62682D01*
X140339Y63361D01*
X140666Y64152D01*
X140778Y65000D01*
Y92351D01*
X142650D01*
Y102650D01*
X135439D01*
X135247Y103112D01*
X142310Y110174D01*
X142480Y110143D01*
X142787Y109579D01*
X142483Y108844D01*
X142306Y107500D01*
X142483Y106156D01*
X143002Y104903D01*
X143827Y103827D01*
X144222Y103524D01*
Y90000D01*
X144278Y89576D01*
X144334Y89152D01*
X144498Y88756D01*
X144661Y88361D01*
X145182Y87682D01*
X152682Y80182D01*
X152977Y79956D01*
X153361Y79661D01*
X153756Y79497D01*
X154152Y79334D01*
X154576Y79278D01*
X155000Y79222D01*
X158276D01*
X158687Y78687D01*
X159804Y77830D01*
X161104Y77291D01*
X162068Y77164D01*
X162383Y76618D01*
X162291Y76396D01*
X162108Y75000D01*
X162196Y74331D01*
X161374Y73510D01*
X161032Y73532D01*
X159998Y74326D01*
X158793Y74825D01*
X157500Y74995D01*
X156207Y74825D01*
X155002Y74326D01*
X153968Y73532D01*
X153174Y72498D01*
X152675Y71293D01*
X152505Y70000D01*
X152675Y68707D01*
X153174Y67502D01*
X153968Y66468D01*
X155002Y65674D01*
X155976Y65271D01*
Y64729D01*
X155002Y64326D01*
X153968Y63532D01*
X153174Y62498D01*
X152675Y61293D01*
X152505Y60000D01*
X152675Y58707D01*
X153174Y57502D01*
X153968Y56468D01*
X155002Y55674D01*
X155976Y55271D01*
Y54729D01*
X155002Y54326D01*
X153968Y53532D01*
X153174Y52498D01*
X152675Y51293D01*
X152505Y50000D01*
X152675Y48707D01*
X153174Y47502D01*
X153968Y46468D01*
X155002Y45674D01*
X155976Y45271D01*
Y44730D01*
X155002Y44326D01*
X153968Y43532D01*
X153174Y42498D01*
X152675Y41293D01*
X152505Y40000D01*
X152675Y38707D01*
X153174Y37502D01*
X153968Y36468D01*
X155002Y35674D01*
X156207Y35175D01*
X157500Y35005D01*
X158793Y35175D01*
X159998Y35674D01*
X161032Y36468D01*
X161826Y37502D01*
X162325Y38707D01*
X162496Y40000D01*
X162325Y41293D01*
X161826Y42498D01*
X161032Y43532D01*
X159998Y44326D01*
X159024Y44730D01*
Y45271D01*
X159998Y45674D01*
X161032Y46468D01*
X161826Y47502D01*
X162325Y48707D01*
X162496Y50000D01*
X162325Y51293D01*
X161826Y52498D01*
X161032Y53532D01*
X159998Y54326D01*
X159024Y54729D01*
Y55271D01*
X159998Y55674D01*
X161032Y56468D01*
X161826Y57502D01*
X162325Y58707D01*
X162496Y60000D01*
X162325Y61293D01*
X161826Y62498D01*
X161032Y63532D01*
X159998Y64326D01*
X159024Y64729D01*
Y65271D01*
X159998Y65674D01*
X161032Y66468D01*
X161228Y66722D01*
X162500D01*
X162924Y66778D01*
X163348Y66834D01*
X163744Y66997D01*
X164139Y67161D01*
X164818Y67682D01*
X166831Y69696D01*
X167500Y69608D01*
X168896Y69791D01*
X170196Y70330D01*
X171313Y71187D01*
X172170Y72304D01*
X172709Y73604D01*
X172893Y75000D01*
X172709Y76396D01*
X172170Y77696D01*
X172028Y77881D01*
Y90947D01*
X172528Y91047D01*
X173002Y89903D01*
X173827Y88827D01*
X174903Y88002D01*
X176156Y87483D01*
X177500Y87306D01*
X178844Y87483D01*
X180097Y88002D01*
X181173Y88827D01*
X181476Y89222D01*
X191142D01*
X191722Y88642D01*
Y87650D01*
X182351D01*
Y77350D01*
X184222D01*
Y61368D01*
X183722Y61069D01*
X183004Y61366D01*
X181969Y61503D01*
X178032D01*
X176996Y61366D01*
X176030Y60966D01*
X175201Y60330D01*
X174565Y59501D01*
X174165Y58536D01*
X174029Y57500D01*
X174165Y56464D01*
X174277Y56194D01*
X173999Y55778D01*
X172500D01*
X171652Y55666D01*
X170861Y55339D01*
X170182Y54818D01*
X165182Y49818D01*
X164661Y49139D01*
X164497Y48744D01*
X164334Y48349D01*
X164278Y47924D01*
X164222Y47500D01*
Y39224D01*
X163687Y38813D01*
X162830Y37696D01*
X162291Y36396D01*
X162108Y35000D01*
X162291Y33604D01*
X162383Y33382D01*
X162068Y32836D01*
X161104Y32709D01*
X159804Y32170D01*
X158687Y31313D01*
X157830Y30196D01*
X157291Y28896D01*
X157107Y27500D01*
X157291Y26104D01*
X157830Y24804D01*
X158687Y23687D01*
X159804Y22830D01*
X161104Y22291D01*
X162160Y22152D01*
X162160D01*
X162350Y22127D01*
Y22125D01*
Y22110D01*
Y22083D01*
Y21667D01*
Y21640D01*
Y21625D01*
Y21623D01*
X162160Y21598D01*
X162160D01*
X161104Y21459D01*
X159804Y20920D01*
X158687Y20063D01*
X157830Y18946D01*
X157291Y17646D01*
X157107Y16250D01*
X157291Y14854D01*
X157830Y13554D01*
X158687Y12437D01*
X159804Y11580D01*
X161104Y11041D01*
X162500Y10858D01*
X163896Y11041D01*
X165196Y11580D01*
X166313Y12437D01*
X166724Y12972D01*
X178750D01*
X179174Y13028D01*
X179598Y13084D01*
X179994Y13248D01*
X180389Y13411D01*
X181068Y13932D01*
X181564Y14428D01*
X181713Y14409D01*
X183288D01*
X184734Y14599D01*
X186083Y15158D01*
X187241Y16047D01*
X188129Y17205D01*
X188688Y18553D01*
X188879Y20000D01*
X188688Y21447D01*
X188657Y21521D01*
X200818Y33682D01*
X201113Y34066D01*
X201339Y34361D01*
X201435Y34593D01*
X201666Y35152D01*
X201778Y36000D01*
Y52668D01*
X202226Y52889D01*
X202304Y52830D01*
X203604Y52291D01*
X205000Y52108D01*
X206396Y52291D01*
X207696Y52830D01*
X208813Y53687D01*
X209670Y54804D01*
X210209Y56104D01*
X210393Y57500D01*
X210305Y58169D01*
X212318Y60182D01*
X212839Y60861D01*
X213166Y61652D01*
X213278Y62500D01*
Y68032D01*
X213522Y68133D01*
X214566Y68934D01*
X215368Y69978D01*
X215871Y71195D01*
X216043Y72500D01*
X215871Y73805D01*
X215368Y75022D01*
X214566Y76066D01*
X213522Y76868D01*
X213202Y77000D01*
X213301Y77500D01*
X216000D01*
Y87500D01*
X204000D01*
Y77500D01*
X206699D01*
X206798Y77000D01*
X206479Y76868D01*
X205434Y76066D01*
X204633Y75022D01*
X204129Y73805D01*
X203957Y72500D01*
X204129Y71195D01*
X204633Y69978D01*
X205434Y68934D01*
X206479Y68133D01*
X206722Y68032D01*
Y63858D01*
X205669Y62805D01*
X205000Y62893D01*
X203604Y62709D01*
X202304Y62170D01*
X202226Y62111D01*
X201778Y62332D01*
Y92668D01*
X202226Y92889D01*
X202304Y92830D01*
X203604Y92291D01*
X205000Y92107D01*
X206396Y92291D01*
X207696Y92830D01*
X208813Y93687D01*
X209670Y94804D01*
X210209Y96104D01*
X210393Y97500D01*
X210209Y98896D01*
X209670Y100196D01*
X209502Y100415D01*
X209818Y100826D01*
X210170Y100680D01*
X210402Y100584D01*
X210500Y100571D01*
X211250Y100472D01*
X239952D01*
X240237Y99972D01*
X239791Y98896D01*
X239608Y97500D01*
X239791Y96104D01*
X240330Y94804D01*
X241187Y93687D01*
X241722Y93276D01*
Y88858D01*
X240407Y87543D01*
X239000D01*
X237695Y87371D01*
X236478Y86867D01*
X235434Y86066D01*
X234633Y85022D01*
X234129Y83805D01*
X233957Y82500D01*
X234129Y81195D01*
X234633Y79979D01*
X235434Y78934D01*
X236478Y78133D01*
X237695Y77629D01*
X239000Y77457D01*
X241000D01*
X242305Y77629D01*
X243522Y78133D01*
X244566Y78934D01*
X245368Y79979D01*
X245871Y81195D01*
X246043Y82500D01*
X245880Y83744D01*
X247318Y85182D01*
X247839Y85861D01*
X248166Y86652D01*
X248278Y87500D01*
Y93276D01*
X248813Y93687D01*
X249670Y94804D01*
X250209Y96104D01*
X250393Y97500D01*
X250209Y98896D01*
X249818Y99839D01*
X250242Y100122D01*
X251343Y99022D01*
X251312Y98947D01*
X251121Y97500D01*
X251312Y96053D01*
X251871Y94705D01*
X252759Y93546D01*
X253917Y92658D01*
X255265Y92099D01*
X256713Y91909D01*
X258288D01*
X258549Y91943D01*
X258853Y91547D01*
X258812Y91447D01*
X258622Y90000D01*
X258812Y88553D01*
X259265Y87458D01*
X258923Y86999D01*
X258288Y87083D01*
X258000D01*
Y83000D01*
X262804D01*
X262714Y83686D01*
X262517Y84161D01*
X262620Y84343D01*
X262883Y84584D01*
X264213Y84409D01*
X265788D01*
X267234Y84599D01*
X268583Y85158D01*
X269741Y86046D01*
X270630Y87204D01*
X271188Y88553D01*
X271379Y90000D01*
X271188Y91447D01*
X271157Y91522D01*
X272258Y92622D01*
X272682Y92339D01*
X272291Y91396D01*
X272108Y90000D01*
X272291Y88604D01*
X272830Y87304D01*
X273687Y86187D01*
X274804Y85330D01*
X274997Y85250D01*
Y84750D01*
X274804Y84670D01*
X273687Y83813D01*
X272830Y82696D01*
X272291Y81396D01*
X272108Y80000D01*
X272291Y78604D01*
X272830Y77304D01*
X273687Y76187D01*
X274804Y75330D01*
X276104Y74791D01*
X277500Y74607D01*
X278896Y74791D01*
X280196Y75330D01*
X281313Y76187D01*
X282170Y77304D01*
X282709Y78604D01*
X282893Y80000D01*
X282805Y80669D01*
X288858Y86722D01*
X300528D01*
X301046Y86046D01*
X302014Y85304D01*
X302048Y85222D01*
Y84778D01*
X302014Y84696D01*
X301046Y83954D01*
X300158Y82796D01*
X299599Y81447D01*
X299409Y80000D01*
X299599Y78553D01*
X300158Y77205D01*
X301046Y76047D01*
X302014Y75304D01*
X302048Y75222D01*
Y74778D01*
X302014Y74696D01*
X301046Y73954D01*
X300528Y73278D01*
X293750D01*
X293326Y73222D01*
X292902Y73166D01*
X292506Y73003D01*
X292111Y72839D01*
X291432Y72318D01*
X279892Y60778D01*
X249224D01*
X248813Y61313D01*
X247696Y62170D01*
X246396Y62709D01*
X245000Y62893D01*
X243604Y62709D01*
X242304Y62170D01*
X241187Y61313D01*
X240330Y60196D01*
X239791Y58896D01*
X239608Y57500D01*
X239791Y56104D01*
X240330Y54804D01*
X241187Y53687D01*
X242304Y52830D01*
X243604Y52291D01*
X245000Y52108D01*
X246396Y52291D01*
X247696Y52830D01*
X248813Y53687D01*
X249224Y54222D01*
X281250D01*
X281674Y54278D01*
X282099Y54334D01*
X282494Y54497D01*
X282889Y54661D01*
X283568Y55182D01*
X295108Y66722D01*
X300528D01*
X301046Y66047D01*
X302014Y65304D01*
X302048Y65222D01*
Y64778D01*
X302014Y64696D01*
X301046Y63954D01*
X300158Y62796D01*
X299599Y61447D01*
X299409Y60000D01*
X299599Y58553D01*
X300158Y57205D01*
X301046Y56046D01*
X302014Y55304D01*
X302048Y55222D01*
Y54778D01*
X302014Y54696D01*
X301046Y53954D01*
X300158Y52796D01*
X299599Y51447D01*
X299409Y50000D01*
X299599Y48553D01*
X300158Y47205D01*
X301046Y46047D01*
X302014Y45304D01*
X302048Y45222D01*
Y44778D01*
X302014Y44696D01*
X301046Y43954D01*
X300158Y42796D01*
X299599Y41447D01*
X299409Y40000D01*
X299599Y38553D01*
X300158Y37205D01*
X301046Y36046D01*
X302014Y35304D01*
X302048Y35222D01*
Y34778D01*
X302014Y34696D01*
X301046Y33954D01*
X300158Y32796D01*
X299599Y31447D01*
X299409Y30000D01*
X299599Y28553D01*
X300158Y27204D01*
X301046Y26046D01*
X302204Y25158D01*
X303553Y24599D01*
X305000Y24409D01*
X306447Y24599D01*
X307796Y25158D01*
X308954Y26046D01*
X309842Y27204D01*
X310401Y28553D01*
X310591Y30000D01*
X310401Y31447D01*
X309842Y32796D01*
X308954Y33954D01*
X307986Y34696D01*
X307952Y34778D01*
Y35222D01*
X307986Y35304D01*
X308954Y36046D01*
X309842Y37205D01*
X310401Y38553D01*
X310591Y40000D01*
X310401Y41447D01*
X309842Y42796D01*
X308954Y43954D01*
X307986Y44696D01*
X307952Y44778D01*
Y45222D01*
X307986Y45304D01*
X308954Y46047D01*
X309842Y47205D01*
X310401Y48553D01*
X310591Y50000D01*
X310401Y51447D01*
X309842Y52796D01*
X308954Y53954D01*
X307986Y54696D01*
X307952Y54778D01*
Y55222D01*
X307986Y55304D01*
X308954Y56046D01*
X309842Y57205D01*
X310401Y58553D01*
X310591Y60000D01*
X310401Y61447D01*
X309842Y62796D01*
X308954Y63954D01*
X307986Y64696D01*
X307952Y64778D01*
Y65222D01*
X307986Y65304D01*
X308954Y66047D01*
X309842Y67204D01*
X310401Y68553D01*
X310591Y70000D01*
X310401Y71447D01*
X309842Y72796D01*
X308954Y73954D01*
X307986Y74696D01*
X307952Y74778D01*
Y75222D01*
X307986Y75304D01*
X308954Y76047D01*
X309842Y77205D01*
X310401Y78553D01*
X310591Y80000D01*
X310401Y81447D01*
X309842Y82796D01*
X308954Y83954D01*
X307986Y84696D01*
X307952Y84778D01*
Y85222D01*
X307986Y85304D01*
X308954Y86046D01*
X309842Y87204D01*
X310401Y88553D01*
X310591Y90000D01*
X310401Y91447D01*
X309842Y92796D01*
X308954Y93954D01*
X307986Y94696D01*
X307952Y94778D01*
Y95222D01*
X307986Y95304D01*
X308954Y96047D01*
X309842Y97205D01*
X310401Y98553D01*
X310591Y100000D01*
X310401Y101447D01*
X309842Y102796D01*
X308954Y103954D01*
X307986Y104696D01*
X307952Y104778D01*
Y105222D01*
X307986Y105304D01*
X308954Y106046D01*
X309842Y107204D01*
X310401Y108553D01*
X310591Y110000D01*
X310401Y111447D01*
X309842Y112796D01*
X308954Y113954D01*
X307986Y114696D01*
X307952Y114778D01*
Y115222D01*
X307986Y115304D01*
X308954Y116047D01*
X309842Y117204D01*
X310401Y118553D01*
X310591Y120000D01*
X310401Y121447D01*
X309842Y122796D01*
X308954Y123954D01*
X307986Y124696D01*
X307952Y124778D01*
Y125222D01*
X307986Y125304D01*
X308954Y126047D01*
X309842Y127205D01*
X310401Y128553D01*
X310591Y130000D01*
X310401Y131447D01*
X309842Y132796D01*
X308954Y133954D01*
X307796Y134842D01*
X306761Y135271D01*
Y135812D01*
X307291Y136031D01*
X308240Y136760D01*
X308969Y137709D01*
X309426Y138814D01*
X309517Y139500D01*
X300483D01*
X300574Y138814D01*
X301031Y137709D01*
X301760Y136760D01*
X302709Y136031D01*
X303239Y135812D01*
Y135271D01*
X302204Y134842D01*
X301046Y133954D01*
X300158Y132796D01*
X299599Y131447D01*
X299409Y130000D01*
X299599Y128553D01*
X300158Y127205D01*
X301046Y126047D01*
X302014Y125304D01*
X302048Y125222D01*
Y124778D01*
X302014Y124696D01*
X301046Y123954D01*
X300158Y122796D01*
X299599Y121447D01*
X299409Y120000D01*
X299599Y118553D01*
X300158Y117204D01*
X301046Y116047D01*
X302014Y115304D01*
X302048Y115222D01*
Y114778D01*
X302014Y114696D01*
X301046Y113954D01*
X300158Y112796D01*
X299599Y111447D01*
X299409Y110000D01*
X299599Y108553D01*
X300158Y107204D01*
X301046Y106046D01*
X302014Y105304D01*
X302048Y105222D01*
Y104778D01*
X302014Y104696D01*
X301046Y103954D01*
X300528Y103278D01*
X287500D01*
X286652Y103166D01*
X286093Y102935D01*
X285861Y102839D01*
X285566Y102613D01*
X285182Y102318D01*
X278169Y95305D01*
X277500Y95393D01*
X276104Y95209D01*
X275161Y94818D01*
X274878Y95242D01*
X279818Y100182D01*
X280339Y100861D01*
X280503Y101256D01*
X280666Y101652D01*
X280722Y102076D01*
X280778Y102500D01*
Y125776D01*
X281313Y126187D01*
X282170Y127304D01*
X282709Y128604D01*
X282893Y130000D01*
X282709Y131396D01*
X282170Y132696D01*
X281313Y133813D01*
X280196Y134670D01*
X278896Y135209D01*
X277500Y135393D01*
X276104Y135209D01*
X274804Y134670D01*
X273687Y133813D01*
X272830Y132696D01*
X272291Y131396D01*
X272108Y130000D01*
X272291Y128604D01*
X272830Y127304D01*
X273687Y126187D01*
X274222Y125776D01*
Y103858D01*
X265936Y95572D01*
X265788Y95591D01*
X264213D01*
X263951Y95557D01*
X263647Y95953D01*
X263688Y96053D01*
X263879Y97500D01*
X263688Y98947D01*
X263129Y100296D01*
X262241Y101454D01*
X261083Y102342D01*
X259735Y102901D01*
X258288Y103091D01*
X256713D01*
X256564Y103072D01*
X253568Y106068D01*
X252889Y106589D01*
X252494Y106753D01*
X252098Y106916D01*
X251674Y106972D01*
X251250Y107028D01*
X250048D01*
X249763Y107528D01*
X250209Y108604D01*
X250393Y110000D01*
X250209Y111396D01*
X249670Y112696D01*
X248813Y113813D01*
X248278Y114224D01*
Y132000D01*
X248222Y132424D01*
X248166Y132849D01*
X248003Y133244D01*
X247839Y133639D01*
X247544Y134023D01*
X247318Y134318D01*
X245876Y135760D01*
X246067Y136222D01*
X284500D01*
X284924Y136278D01*
X285349Y136334D01*
X285744Y136497D01*
X286139Y136661D01*
X286818Y137182D01*
X294818Y145182D01*
X295339Y145861D01*
X295666Y146652D01*
X295722Y147076D01*
X295778Y147500D01*
Y153933D01*
X296240Y154124D01*
X299520Y150844D01*
X299409Y150000D01*
X299599Y148553D01*
X300158Y147204D01*
X301046Y146046D01*
X302204Y145158D01*
X303239Y144729D01*
Y144188D01*
X302709Y143969D01*
X301760Y143240D01*
X301031Y142291D01*
X300574Y141186D01*
X300483Y140500D01*
X309517D01*
X309426Y141186D01*
X308969Y142291D01*
X308240Y143240D01*
X307291Y143969D01*
X306761Y144188D01*
Y144729D01*
X307796Y145158D01*
X308954Y146046D01*
X309842Y147204D01*
X310401Y148553D01*
X310591Y150000D01*
X310401Y151447D01*
X309842Y152796D01*
X308954Y153954D01*
X307986Y154696D01*
X307952Y154778D01*
Y155222D01*
X307986Y155304D01*
X308954Y156046D01*
X309842Y157204D01*
X310401Y158553D01*
X310591Y160000D01*
X310401Y161447D01*
X309842Y162796D01*
X308954Y163954D01*
X308915Y163983D01*
X309076Y164457D01*
X310543D01*
Y175543D01*
X302082D01*
X301891Y176005D01*
X319585Y193700D01*
X320047Y193508D01*
Y188797D01*
X329953D01*
Y191686D01*
X330453Y191786D01*
X330674Y191252D01*
X331468Y190218D01*
X332502Y189424D01*
X333707Y188925D01*
X335000Y188755D01*
X336293Y188925D01*
X337498Y189424D01*
X338532Y190218D01*
X339326Y191252D01*
X339729Y192226D01*
X340271D01*
X340674Y191252D01*
X341468Y190218D01*
X342502Y189424D01*
X343707Y188925D01*
X345000Y188755D01*
X346293Y188925D01*
X347498Y189424D01*
X348532Y190218D01*
X349326Y191252D01*
X349825Y192457D01*
X349995Y193750D01*
X349825Y195043D01*
X349326Y196248D01*
X348532Y197282D01*
X347498Y198076D01*
X346293Y198575D01*
X345000Y198746D01*
X344682Y198704D01*
X343995Y199391D01*
X344228Y199865D01*
X344500Y199829D01*
Y203250D01*
X341079D01*
X341149Y202718D01*
X341342Y202253D01*
X340959Y201871D01*
X340848Y201916D01*
X340179Y202005D01*
X339871Y202398D01*
X339832Y202510D01*
X339996Y203750D01*
X339825Y205043D01*
X339326Y206248D01*
X338532Y207282D01*
X337498Y208076D01*
X336293Y208575D01*
X335000Y208746D01*
D02*
G37*
G36*
X345500Y207671D02*
Y204250D01*
X348921D01*
X348851Y204782D01*
X348453Y205744D01*
X347819Y206569D01*
X346993Y207203D01*
X346032Y207601D01*
X345500Y207671D01*
D02*
G37*
G36*
X344500D02*
X343968Y207601D01*
X343007Y207203D01*
X342181Y206569D01*
X341547Y205744D01*
X341149Y204782D01*
X341079Y204250D01*
X344500D01*
Y207671D01*
D02*
G37*
G36*
X240500Y199390D02*
Y193000D01*
X246890D01*
X246806Y193854D01*
X246411Y195156D01*
X245770Y196355D01*
X244907Y197407D01*
X243855Y198270D01*
X242655Y198911D01*
X241354Y199306D01*
X240500Y199390D01*
D02*
G37*
G36*
X239500D02*
X238646Y199306D01*
X237345Y198911D01*
X236145Y198270D01*
X235093Y197407D01*
X234230Y196355D01*
X233589Y195156D01*
X233194Y193854D01*
X233110Y193000D01*
X239500D01*
Y199390D01*
D02*
G37*
G36*
X286890Y192000D02*
X280500D01*
Y185610D01*
X281354Y185695D01*
X282656Y186089D01*
X283855Y186731D01*
X284907Y187593D01*
X285770Y188645D01*
X286411Y189845D01*
X286806Y191146D01*
X286890Y192000D01*
D02*
G37*
G36*
X279500Y199390D02*
X278646Y199306D01*
X277345Y198911D01*
X276145Y198270D01*
X275094Y197407D01*
X274231Y196355D01*
X273589Y195156D01*
X273195Y193854D01*
X273110Y193000D01*
X279500D01*
Y199390D01*
D02*
G37*
G36*
X377500Y210444D02*
X375950Y210291D01*
X374460Y209839D01*
X373087Y209105D01*
X371883Y208117D01*
X370895Y206913D01*
X370161Y205540D01*
X369709Y204050D01*
X369556Y202500D01*
X369709Y200950D01*
X370161Y199460D01*
X370895Y198087D01*
X371883Y196883D01*
X373087Y195895D01*
X374460Y195161D01*
X375950Y194709D01*
X377500Y194556D01*
X379050Y194709D01*
X380540Y195161D01*
X381913Y195895D01*
X383117Y196883D01*
X384105Y198087D01*
X384839Y199460D01*
X385291Y200950D01*
X385444Y202500D01*
X385291Y204050D01*
X384839Y205540D01*
X384105Y206913D01*
X383117Y208117D01*
X381913Y209105D01*
X380540Y209839D01*
X379050Y210291D01*
X377500Y210444D01*
D02*
G37*
G36*
X12500Y209194D02*
X10950Y209041D01*
X9460Y208589D01*
X8087Y207855D01*
X6883Y206867D01*
X5895Y205663D01*
X5161Y204290D01*
X4709Y202800D01*
X4556Y201250D01*
X4709Y199700D01*
X5161Y198210D01*
X5895Y196837D01*
X6883Y195633D01*
X8087Y194645D01*
X9460Y193911D01*
X10950Y193459D01*
X12500Y193306D01*
X14050Y193459D01*
X15540Y193911D01*
X16913Y194645D01*
X18117Y195633D01*
X19105Y196837D01*
X19839Y198210D01*
X20291Y199700D01*
X20444Y201250D01*
X20291Y202800D01*
X19839Y204290D01*
X19105Y205663D01*
X18117Y206867D01*
X16913Y207855D01*
X15540Y208589D01*
X14050Y209041D01*
X12500Y209194D01*
D02*
G37*
G36*
X280500Y199390D02*
Y193000D01*
X286890D01*
X286806Y193854D01*
X286411Y195156D01*
X285770Y196355D01*
X284907Y197407D01*
X283855Y198270D01*
X282656Y198911D01*
X281354Y199306D01*
X280500Y199390D01*
D02*
G37*
G36*
X40937Y154980D02*
X37500D01*
X36211Y154810D01*
X35010Y154313D01*
X33979Y153521D01*
X33188Y152490D01*
X32690Y151289D01*
X32586Y150500D01*
X40937D01*
Y154980D01*
D02*
G37*
G36*
X365000Y123606D02*
X364067Y123483D01*
X363197Y123123D01*
X362451Y122550D01*
X361877Y121803D01*
X361517Y120933D01*
X361394Y120000D01*
X361517Y119067D01*
X361877Y118197D01*
X362451Y117450D01*
X363197Y116877D01*
X364067Y116517D01*
X365000Y116394D01*
X365933Y116517D01*
X366803Y116877D01*
X367550Y117450D01*
X368123Y118197D01*
X368483Y119067D01*
X368606Y120000D01*
X368483Y120933D01*
X368123Y121803D01*
X367550Y122550D01*
X366803Y123123D01*
X365933Y123483D01*
X365000Y123606D01*
D02*
G37*
G36*
X378250Y113953D02*
X374797D01*
Y110500D01*
X378250D01*
Y113953D01*
D02*
G37*
G36*
Y109500D02*
X374797D01*
Y106047D01*
X378250D01*
Y109500D01*
D02*
G37*
G36*
X72000Y122000D02*
X67586D01*
X67690Y121211D01*
X68188Y120010D01*
X68979Y118979D01*
X70010Y118188D01*
X71211Y117690D01*
X72000Y117586D01*
Y122000D01*
D02*
G37*
G36*
X17414D02*
X13000D01*
Y117586D01*
X13789Y117690D01*
X14990Y118188D01*
X16021Y118979D01*
X16813Y120010D01*
X17310Y121211D01*
X17414Y122000D01*
D02*
G37*
G36*
X12000D02*
X7586D01*
X7690Y121211D01*
X8188Y120010D01*
X8979Y118979D01*
X10010Y118188D01*
X11211Y117690D01*
X12000Y117586D01*
Y122000D01*
D02*
G37*
G36*
X92158Y102000D02*
X88141D01*
X88231Y101314D01*
X88689Y100209D01*
X89417Y99260D01*
X90366Y98532D01*
X91471Y98074D01*
X92158Y97983D01*
Y102000D01*
D02*
G37*
G36*
X187500Y107694D02*
X186156Y107517D01*
X184903Y106998D01*
X183827Y106173D01*
X183002Y105097D01*
X182483Y103844D01*
X182306Y102500D01*
X182483Y101156D01*
X183002Y99903D01*
X183827Y98827D01*
X184903Y98002D01*
X186156Y97483D01*
X187500Y97306D01*
X188844Y97483D01*
X190097Y98002D01*
X191173Y98827D01*
X191998Y99903D01*
X192517Y101156D01*
X192694Y102500D01*
X192517Y103844D01*
X191998Y105097D01*
X191173Y106173D01*
X190097Y106998D01*
X188844Y107517D01*
X187500Y107694D01*
D02*
G37*
G36*
X112343Y108091D02*
X110896Y107901D01*
X109547Y107342D01*
X108389Y106454D01*
X107501Y105296D01*
X106942Y103947D01*
X106751Y102500D01*
X106942Y101053D01*
X107501Y99704D01*
X108389Y98546D01*
X109547Y97658D01*
X110896Y97099D01*
X112343Y96909D01*
X113790Y97099D01*
X115138Y97658D01*
X116296Y98546D01*
X117185Y99704D01*
X117743Y101053D01*
X117934Y102500D01*
X117743Y103947D01*
X117185Y105296D01*
X116296Y106454D01*
X115138Y107342D01*
X113790Y107901D01*
X112343Y108091D01*
D02*
G37*
G36*
X93158Y107017D02*
Y103000D01*
X97174D01*
X97084Y103686D01*
X96626Y104791D01*
X95898Y105740D01*
X94949Y106469D01*
X93844Y106926D01*
X93158Y107017D01*
D02*
G37*
G36*
X92158D02*
X91471Y106926D01*
X90366Y106469D01*
X89417Y105740D01*
X88689Y104791D01*
X88231Y103686D01*
X88141Y103000D01*
X92158D01*
Y107017D01*
D02*
G37*
G36*
X97174Y102000D02*
X93158D01*
Y97983D01*
X93844Y98074D01*
X94949Y98532D01*
X95898Y99260D01*
X96626Y100209D01*
X97084Y101314D01*
X97174Y102000D01*
D02*
G37*
G36*
X77414Y122000D02*
X73000D01*
Y117586D01*
X73789Y117690D01*
X74990Y118188D01*
X76021Y118979D01*
X76812Y120010D01*
X77310Y121211D01*
X77414Y122000D01*
D02*
G37*
G36*
X378250Y133953D02*
X374797D01*
Y130500D01*
X378250D01*
Y133953D01*
D02*
G37*
G36*
X35000Y140691D02*
X33527Y140497D01*
X32155Y139928D01*
X30976Y139024D01*
X30072Y137845D01*
X29504Y136473D01*
X29310Y135000D01*
X29504Y133527D01*
X30072Y132155D01*
X30976Y130976D01*
X32155Y130072D01*
X33527Y129504D01*
X35000Y129310D01*
X36473Y129504D01*
X37845Y130072D01*
X39024Y130976D01*
X39928Y132155D01*
X40497Y133527D01*
X40690Y135000D01*
X40497Y136473D01*
X39928Y137845D01*
X39024Y139024D01*
X37845Y139928D01*
X36473Y140497D01*
X35000Y140691D01*
D02*
G37*
G36*
X54036Y180572D02*
X52872Y180457D01*
X51753Y180118D01*
X50721Y179567D01*
X49817Y178825D01*
X49075Y177921D01*
X48524Y176889D01*
X48184Y175770D01*
X48070Y174606D01*
Y173373D01*
X47537Y172377D01*
X47137Y171057D01*
X47002Y169685D01*
X47137Y168313D01*
X47537Y166993D01*
X48070Y165997D01*
Y164764D01*
X48184Y163600D01*
X48524Y162481D01*
X49075Y161449D01*
X49817Y160545D01*
X50721Y159803D01*
X51753Y159252D01*
X52872Y158913D01*
X52966Y158903D01*
Y142914D01*
X50694Y140642D01*
X49358D01*
Y139160D01*
X49152Y138908D01*
X48502Y137692D01*
X48101Y136372D01*
X47966Y135000D01*
X48101Y133628D01*
X48502Y132308D01*
X49152Y131092D01*
X49358Y130840D01*
Y129358D01*
X50840D01*
X51092Y129152D01*
X52308Y128502D01*
X53628Y128101D01*
X55000Y127966D01*
X56372Y128101D01*
X57692Y128502D01*
X58908Y129152D01*
X59160Y129358D01*
X60642D01*
Y130694D01*
X64974Y135026D01*
X65848Y136092D01*
X66499Y137308D01*
X66899Y138628D01*
X67034Y140000D01*
X67034Y140000D01*
Y163721D01*
X66899Y165093D01*
X66499Y166412D01*
X65848Y167628D01*
X64974Y168694D01*
X60001Y173667D01*
Y174606D01*
X59887Y175770D01*
X59547Y176889D01*
X58996Y177921D01*
X58254Y178825D01*
X57350Y179567D01*
X56318Y180118D01*
X55199Y180457D01*
X54036Y180572D01*
D02*
G37*
G36*
X365000Y153606D02*
X364067Y153483D01*
X363197Y153123D01*
X362451Y152550D01*
X361877Y151803D01*
X361517Y150933D01*
X361394Y150000D01*
X361517Y149067D01*
X361877Y148197D01*
X362451Y147450D01*
X363197Y146878D01*
X364067Y146517D01*
X365000Y146394D01*
X365933Y146517D01*
X366803Y146878D01*
X367550Y147450D01*
X368123Y148197D01*
X368483Y149067D01*
X368606Y150000D01*
X368483Y150933D01*
X368123Y151803D01*
X367550Y152550D01*
X366803Y153123D01*
X365933Y153483D01*
X365000Y153606D01*
D02*
G37*
G36*
X50288Y149500D02*
X41937D01*
Y145020D01*
X45374D01*
X46663Y145190D01*
X47864Y145688D01*
X48895Y146479D01*
X49687Y147510D01*
X50184Y148711D01*
X50288Y149500D01*
D02*
G37*
G36*
X40937D02*
X32586D01*
X32690Y148711D01*
X33188Y147510D01*
X33979Y146479D01*
X35010Y145688D01*
X36211Y145190D01*
X37500Y145020D01*
X40937D01*
Y149500D01*
D02*
G37*
G36*
X72000Y127414D02*
X71211Y127310D01*
X70010Y126813D01*
X68979Y126021D01*
X68188Y124990D01*
X67690Y123789D01*
X67586Y123000D01*
X72000D01*
Y127414D01*
D02*
G37*
G36*
X73000D02*
Y123000D01*
X77414D01*
X77310Y123789D01*
X76812Y124990D01*
X76021Y126021D01*
X74990Y126813D01*
X73789Y127310D01*
X73000Y127414D01*
D02*
G37*
G36*
X12000D02*
X11211Y127310D01*
X10010Y126813D01*
X8979Y126021D01*
X8188Y124990D01*
X7690Y123789D01*
X7586Y123000D01*
X12000D01*
Y127414D01*
D02*
G37*
G36*
X13000D02*
Y123000D01*
X17414D01*
X17310Y123789D01*
X16813Y124990D01*
X16021Y126021D01*
X14990Y126813D01*
X13789Y127310D01*
X13000Y127414D01*
D02*
G37*
G36*
X378250Y129500D02*
X374797D01*
Y126047D01*
X378250D01*
Y129500D01*
D02*
G37*
G36*
X365000Y133606D02*
X364067Y133483D01*
X363197Y133123D01*
X362451Y132550D01*
X361877Y131803D01*
X361517Y130933D01*
X361394Y130000D01*
X361517Y129067D01*
X361877Y128197D01*
X362451Y127451D01*
X363197Y126877D01*
X364067Y126517D01*
X365000Y126394D01*
X365933Y126517D01*
X366803Y126877D01*
X367550Y127451D01*
X368123Y128197D01*
X368483Y129067D01*
X368606Y130000D01*
X368483Y130933D01*
X368123Y131803D01*
X367550Y132550D01*
X366803Y133123D01*
X365933Y133483D01*
X365000Y133606D01*
D02*
G37*
%LPD*%
G36*
X54024Y97968D02*
X41009Y94715D01*
X37721Y98003D01*
X37912Y98465D01*
X53963D01*
X54024Y97968D01*
D02*
G37*
G36*
X49658Y103465D02*
X48225D01*
X48214Y109508D01*
X46703Y103465D01*
X45203D01*
X43692Y109508D01*
Y103465D01*
X42259D01*
Y111153D01*
X44581D01*
X45959Y105898D01*
X47325Y111153D01*
X49658D01*
Y103465D01*
D02*
G37*
G36*
X32158Y85965D02*
X30725D01*
X30714Y92008D01*
X29203Y85965D01*
X27703D01*
X26192Y92008D01*
Y85965D01*
X24759D01*
Y93653D01*
X27081D01*
X28458Y88398D01*
X29825Y93653D01*
X32158D01*
Y85965D01*
D02*
G37*
G36*
X41009Y102215D02*
X37721Y98927D01*
X37259Y99118D01*
Y115168D01*
X37755Y115230D01*
X41009Y102215D01*
D02*
G37*
G36*
X36797Y98927D02*
X36606Y98465D01*
X20555D01*
X20494Y98961D01*
X33509Y102215D01*
X36797Y98927D01*
D02*
G37*
G36*
X37259Y97811D02*
Y81761D01*
X36763Y81700D01*
X33509Y94715D01*
X36797Y98003D01*
X37259Y97811D01*
D02*
G37*
D10*
X323750Y71250D02*
Y135000D01*
Y71250D02*
X365000Y30000D01*
X318750Y203750D02*
X325000D01*
X292500Y177500D02*
X318750Y203750D01*
X292500Y147500D02*
Y177500D01*
X284500Y139500D02*
X292500Y147500D01*
X237500Y139500D02*
X284500D01*
X333750Y133750D02*
X352500D01*
X363341D01*
X353750Y135000D02*
Y160000D01*
X352500Y133750D02*
X353750Y135000D01*
X296250Y158750D02*
X305000Y150000D01*
X296250Y158750D02*
Y175000D01*
X320000Y198750D01*
X340000D02*
X345000Y193750D01*
X353750Y160000D02*
X365000D01*
X353750D02*
Y198750D01*
X327500Y140000D02*
X333750Y133750D01*
X363341D02*
X363416Y133825D01*
X366584D01*
X370409Y130000D01*
X378750D01*
X305000Y140000D02*
X327500D01*
X365000Y60000D02*
X373750Y51250D01*
X71250Y2500D02*
X353750D01*
X373750Y22500D01*
Y51250D01*
X60000Y13750D02*
X71250Y2500D01*
X280000Y201250D02*
X288750Y210000D01*
X338750D01*
X345000Y203750D01*
X348750D01*
X353750Y198750D01*
X378750Y100000D02*
X382500D01*
X385000Y102500D01*
Y137500D01*
X382500Y140000D02*
X385000Y137500D01*
X378750Y140000D02*
X382500D01*
X365000D02*
X378750D01*
Y110000D02*
Y130000D01*
X358750Y110000D02*
X365000D01*
X356250Y107500D02*
X358750Y110000D01*
X356250Y90000D02*
Y107500D01*
Y90000D02*
X361250Y85000D01*
X373750D01*
X378750Y80000D01*
X365000Y100000D02*
X367500D01*
X377500Y90000D01*
X378750D01*
X220000Y152500D02*
X260000Y192500D01*
X205000Y152500D02*
X220000D01*
X198500Y146000D02*
X205000Y152500D01*
X280000Y192500D02*
Y201250D01*
X273750Y207500D02*
X280000Y201250D01*
X247500Y207500D02*
X273750D01*
X240000Y200000D02*
X247500Y207500D01*
X88750Y25000D02*
X107500D01*
X85000D02*
X88750D01*
Y20000D02*
Y25000D01*
X287500Y100000D02*
X305000D01*
X277500Y90000D02*
X287500Y100000D01*
Y90000D02*
X305000D01*
X277500Y80000D02*
X287500Y90000D01*
X237500Y57500D02*
Y70000D01*
Y42500D02*
Y57500D01*
X210000Y7500D02*
X230000D01*
X116250D02*
X210000D01*
Y43750D01*
X223750Y57500D01*
X237500D01*
X107500Y16250D02*
Y25000D01*
Y16250D02*
X116250Y7500D01*
X230000D02*
X240000Y17500D01*
X280000D02*
Y18750D01*
X270000Y28750D02*
X280000Y18750D01*
X251250Y28750D02*
X270000D01*
X240000Y17500D02*
X251250Y28750D01*
X227500Y32500D02*
X242500D01*
X225000D02*
X227500D01*
Y42500D01*
X220000Y17500D02*
Y27500D01*
X225000Y32500D01*
X242500D02*
X250000Y40000D01*
X277500D01*
X293750Y70000D02*
X305000D01*
X281250Y57500D02*
X293750Y70000D01*
X245000Y57500D02*
X281250D01*
X167500Y75000D02*
X168750Y76250D01*
Y103750D01*
X158750Y113750D02*
X168750Y103750D01*
X141250Y113750D02*
X158750D01*
X115000Y87500D02*
X141250Y113750D01*
X72500Y87500D02*
X115000D01*
X178750Y16250D02*
X182500Y20000D01*
X162500Y16250D02*
X178750D01*
X277500Y102500D02*
Y130000D01*
X265000Y90000D02*
X277500Y102500D01*
X237500Y70000D02*
X240000Y72500D01*
X247500D01*
X257500Y82500D01*
X205000Y110000D02*
X211250Y103750D01*
X251250D01*
X257500Y97500D01*
X245000Y110000D02*
Y132000D01*
X237500Y139500D02*
X245000Y132000D01*
X205000Y110000D02*
Y132500D01*
X212500Y140000D01*
X198500Y36000D02*
Y146000D01*
X182500Y20000D02*
X198500Y36000D01*
X245000Y87500D02*
Y97500D01*
X240000Y82500D02*
X245000Y87500D01*
X205000Y57500D02*
X210000Y62500D01*
Y72500D01*
X182500Y35000D02*
X187500D01*
X195000Y42500D01*
Y90000D01*
X192500Y92500D02*
X195000Y90000D01*
X177500Y92500D02*
X192500D01*
X122500Y32500D02*
X125000D01*
X115000D02*
X122500D01*
Y27500D02*
Y32500D01*
X162500Y27500D02*
X175000D01*
X180000Y52500D02*
X185000D01*
X187500Y55000D01*
Y82500D01*
X182500Y35000D02*
Y45000D01*
X180000Y47500D02*
X182500Y45000D01*
X172500Y52500D02*
X180000D01*
X167500Y47500D02*
X172500Y52500D01*
X167500Y35000D02*
Y47500D01*
X157500Y70000D02*
X162500D01*
X167500Y75000D01*
X60000Y50000D02*
Y122500D01*
X55000Y45000D02*
X60000Y50000D01*
X52500Y45000D02*
X55000D01*
X72500Y75000D02*
Y87500D01*
X65000Y67500D02*
X72500Y75000D01*
X65000Y37500D02*
Y67500D01*
X57500Y30000D02*
X65000Y37500D01*
X15000Y35000D02*
Y42500D01*
Y35000D02*
X27500Y22500D01*
X57500D01*
X72500Y37500D01*
X107500Y25000D02*
X115000Y32500D01*
X72500Y37500D02*
X85000Y25000D01*
X72500Y37500D02*
Y45000D01*
Y65000D02*
X90000D01*
X127500Y35000D02*
Y40000D01*
X125000Y32500D02*
X127500Y35000D01*
X105000Y32500D02*
Y42500D01*
X102500Y45000D02*
X105000Y42500D01*
X90000Y45000D02*
X102500D01*
X97500Y82500D02*
X122500D01*
X90000Y75000D02*
X97500Y82500D01*
X90000Y65000D02*
Y75000D01*
X120000Y60000D02*
X127500D01*
X115000Y65000D02*
X120000Y60000D01*
X115000Y65000D02*
Y72500D01*
Y50000D02*
X127500D01*
X105000Y60000D02*
X115000Y50000D01*
X105000Y60000D02*
Y72500D01*
X127500Y70000D02*
Y77500D01*
X122500Y82500D02*
X127500Y77500D01*
Y60000D02*
X132500D01*
X137500Y65000D01*
Y97500D01*
X155000Y82500D02*
X162500D01*
X147500Y90000D02*
X155000Y82500D01*
X147500Y90000D02*
Y107500D01*
X144375Y200000D02*
X151875Y207500D01*
X232500D01*
X240000Y200000D01*
Y192500D02*
Y200000D01*
X129375Y177500D02*
Y200000D01*
X127250Y167500D02*
Y175375D01*
X129375Y177500D01*
X147250Y145250D02*
Y167500D01*
Y145250D02*
X150000Y142500D01*
X157500D01*
X127250Y144750D02*
Y167500D01*
X125000Y142500D02*
X127250Y144750D01*
X117500Y142500D02*
X125000D01*
X37500Y30000D02*
X57500D01*
X15000Y42500D02*
X50000D01*
X52500Y45000D01*
X37500Y70000D02*
X52500Y55000D01*
X30000Y62500D02*
X37500Y70000D01*
X15000Y62500D02*
X30000D01*
D11*
X320000Y198750D02*
X340000D01*
D12*
X92500Y122500D02*
X157500D01*
X200000Y165000D01*
X215000D01*
X240000Y190000D01*
Y192500D01*
X60000Y122500D02*
X72500D01*
X12500D02*
X60000D01*
X72500D02*
X92500D01*
Y102500D02*
Y122500D01*
X137250Y167500D02*
Y174750D01*
X160000Y197500D01*
X215000D01*
X220000Y192500D01*
X54036Y169685D02*
X60000Y163721D01*
Y140000D02*
Y163721D01*
X55000Y135000D02*
X60000Y140000D01*
X12500Y122500D02*
Y135000D01*
X27500Y150000D01*
X41437D01*
Y157874D01*
X29626Y169685D02*
X41437Y157874D01*
D13*
X54036Y169685D02*
D03*
X29626D02*
D03*
D14*
X41437Y150000D02*
D03*
D15*
X52500Y55000D02*
D03*
Y45000D02*
D03*
X227500Y42500D02*
D03*
X237500D02*
D03*
X90000Y45000D02*
D03*
Y65000D02*
D03*
X72500D02*
D03*
Y45000D02*
D03*
D16*
X377500Y202500D02*
D03*
Y10000D02*
D03*
X12500Y12500D02*
D03*
Y201250D02*
D03*
X260000Y17500D02*
D03*
X240000D02*
D03*
X220000D02*
D03*
X280000D02*
D03*
X212500Y140000D02*
D03*
X237500Y139500D02*
D03*
X260000Y192500D02*
D03*
X280000D02*
D03*
X240000D02*
D03*
X220000D02*
D03*
X186250Y182500D02*
D03*
X88125D02*
D03*
X15000Y62500D02*
D03*
Y42500D02*
D03*
D17*
X378750Y130000D02*
D03*
Y110000D02*
D03*
D18*
Y140000D02*
D03*
Y150000D02*
D03*
Y160000D02*
D03*
Y170000D02*
D03*
X325000Y203750D02*
D03*
X335000Y193750D02*
D03*
Y203750D02*
D03*
X345000Y193750D02*
D03*
Y203750D02*
D03*
X127500Y60000D02*
D03*
Y50000D02*
D03*
Y40000D02*
D03*
X157500Y70000D02*
D03*
Y60000D02*
D03*
Y50000D02*
D03*
Y40000D02*
D03*
X378750Y80000D02*
D03*
Y90000D02*
D03*
Y100000D02*
D03*
D19*
X73750Y20000D02*
D03*
X88750D02*
D03*
D20*
X365000Y160000D02*
D03*
Y140000D02*
D03*
Y110000D02*
D03*
Y100000D02*
D03*
Y60000D02*
D03*
Y30000D02*
D03*
X305000D02*
D03*
Y40000D02*
D03*
Y50000D02*
D03*
Y60000D02*
D03*
Y70000D02*
D03*
Y80000D02*
D03*
Y90000D02*
D03*
Y100000D02*
D03*
Y110000D02*
D03*
Y120000D02*
D03*
Y130000D02*
D03*
Y140000D02*
D03*
Y150000D02*
D03*
Y160000D02*
D03*
X112343Y102500D02*
D03*
X92658D02*
D03*
D21*
X305000Y170000D02*
D03*
D22*
X325000Y193750D02*
D03*
X127500Y70000D02*
D03*
D23*
X122500Y16250D02*
D03*
X162500D02*
D03*
X277500Y40000D02*
D03*
Y80000D02*
D03*
X245000Y110000D02*
D03*
X205000D02*
D03*
X277500Y130000D02*
D03*
Y90000D02*
D03*
X245000Y57500D02*
D03*
X205000D02*
D03*
X245000Y97500D02*
D03*
X205000D02*
D03*
X167500Y75000D02*
D03*
Y35000D02*
D03*
X162500Y27500D02*
D03*
X122500D02*
D03*
X115000Y32500D02*
D03*
Y72500D02*
D03*
X105000D02*
D03*
Y32500D02*
D03*
X162500Y82500D02*
D03*
X122500D02*
D03*
X157500Y142500D02*
D03*
X117500D02*
D03*
Y152500D02*
D03*
X157500D02*
D03*
X37500Y30000D02*
D03*
Y70000D02*
D03*
D24*
X210000Y82500D02*
D03*
D25*
X240000D02*
D03*
X210000Y72500D02*
D03*
X240000D02*
D03*
D26*
X180000Y47500D02*
D03*
D27*
Y52500D02*
D03*
Y57500D02*
D03*
D28*
X182500Y20000D02*
D03*
X175000Y27500D02*
D03*
X182500Y35000D02*
D03*
X257500Y97500D02*
D03*
X265000Y90000D02*
D03*
X257500Y82500D02*
D03*
D29*
X157500Y97500D02*
D03*
X147500Y107500D02*
D03*
X187500Y102500D02*
D03*
X177500Y92500D02*
D03*
D30*
X137500Y97500D02*
D03*
D31*
X147250Y167500D02*
D03*
X137250D02*
D03*
X127250D02*
D03*
X144375Y200000D02*
D03*
X136875Y192500D02*
D03*
X129375Y200000D02*
D03*
D32*
X55000Y135000D02*
D03*
D33*
X35000D02*
D03*
D34*
X72500Y87500D02*
D03*
Y122500D02*
D03*
X12500D02*
D03*
D35*
Y87500D02*
D03*
D36*
X187500Y82500D02*
D03*
D37*
X323750Y135000D02*
D03*
X60000Y13750D02*
D03*
D38*
X334759Y25965D02*
D03*
X37259Y98465D02*
D03*
D39*
X337259Y29715D02*
X351463Y25965D01*
X334759Y9261D02*
X338509Y23465D01*
X318055Y25965D02*
X332259Y22215D01*
X331009Y28465D02*
X334759Y42669D01*
X39759Y102215D02*
X53963Y98465D01*
X37259Y81761D02*
X41009Y95965D01*
X20555Y98465D02*
X34759Y94715D01*
X33509Y100965D02*
X37259Y115168D01*
M02*
