%FSLAX25Y25*%
%MOIN*%
G70*
G01*
G75*
G04 Layer_Physical_Order=1*
G04 Layer_Color=255*
%ADD10C,0.02500*%
%ADD11C,0.01500*%
%ADD12C,0.10000*%
%ADD13O,0.07874X0.17716*%
%ADD14O,0.15748X0.07874*%
%ADD15C,0.06500*%
%ADD16C,0.11811*%
%ADD17R,0.05906X0.05906*%
%ADD18C,0.05906*%
%ADD19C,0.08661*%
%ADD20C,0.07087*%
%ADD21R,0.07087X0.07087*%
%ADD22R,0.05906X0.05906*%
%ADD23C,0.06693*%
%ADD24R,0.08000X0.06000*%
%ADD25O,0.08000X0.06000*%
%ADD26O,0.07874X0.03937*%
%ADD27O,0.07874X0.03937*%
%ADD28O,0.08661X0.07087*%
%ADD29C,0.06299*%
%ADD30R,0.06299X0.06299*%
%ADD31O,0.07087X0.08661*%
%ADD32R,0.07284X0.07284*%
%ADD33C,0.07284*%
%ADD34C,0.07874*%
%ADD35R,0.07874X0.07874*%
%ADD36R,0.06299X0.06299*%
%ADD37C,0.05000*%
G36*
X331722Y185183D02*
Y175108D01*
X321432Y164818D01*
X320911Y164139D01*
X320747Y163744D01*
X320584Y163348D01*
X320528Y162924D01*
X320472Y162500D01*
Y138120D01*
X319819Y137269D01*
X319366Y136175D01*
X319211Y135000D01*
X319366Y133825D01*
X319420Y133694D01*
X319143Y133278D01*
X309472D01*
X308954Y133954D01*
X307796Y134842D01*
X306761Y135271D01*
Y135812D01*
X307291Y136031D01*
X308240Y136760D01*
X308969Y137709D01*
X309426Y138814D01*
X309517Y139500D01*
X300483D01*
X300574Y138814D01*
X301031Y137709D01*
X301760Y136760D01*
X302709Y136031D01*
X303239Y135812D01*
Y135271D01*
X302204Y134842D01*
X301046Y133954D01*
X300158Y132796D01*
X300028Y132482D01*
X299528Y132581D01*
Y147419D01*
X300028Y147518D01*
X300158Y147204D01*
X301046Y146046D01*
X302204Y145158D01*
X303239Y144729D01*
Y144188D01*
X302709Y143969D01*
X301760Y143240D01*
X301031Y142291D01*
X300574Y141186D01*
X300483Y140500D01*
X309517D01*
X309426Y141186D01*
X308969Y142291D01*
X308240Y143240D01*
X307291Y143969D01*
X306761Y144188D01*
Y144729D01*
X307796Y145158D01*
X308954Y146046D01*
X309842Y147204D01*
X310401Y148553D01*
X310591Y150000D01*
X310401Y151447D01*
X309842Y152796D01*
X308954Y153954D01*
X307986Y154696D01*
X307952Y154778D01*
Y155222D01*
X307986Y155304D01*
X308954Y156046D01*
X309842Y157204D01*
X310401Y158553D01*
X310591Y160000D01*
X310401Y161447D01*
X309842Y162796D01*
X308954Y163954D01*
X308915Y163983D01*
X309076Y164457D01*
X310543D01*
Y175543D01*
X302082D01*
X301891Y176005D01*
X308858Y182972D01*
X327500D01*
X327924Y183028D01*
X328348Y183084D01*
X328744Y183247D01*
X329139Y183411D01*
X329818Y183932D01*
X331260Y185374D01*
X331722Y185183D01*
D02*
G37*
G36*
X375218Y166468D02*
X376252Y165674D01*
X377226Y165271D01*
Y164729D01*
X376252Y164326D01*
X375218Y163532D01*
X374424Y162498D01*
X373925Y161293D01*
X373755Y160000D01*
X373796Y159682D01*
X367048Y152934D01*
X366803Y153123D01*
X365933Y153483D01*
X365000Y153606D01*
X364067Y153483D01*
X363197Y153123D01*
X362451Y152550D01*
X361877Y151803D01*
X361517Y150933D01*
X361394Y150000D01*
X361417Y149829D01*
X361087Y149453D01*
X357065D01*
X356731Y149953D01*
X356916Y150402D01*
X357028Y151250D01*
Y158642D01*
X360358Y161972D01*
X360782Y161689D01*
X360574Y161186D01*
X360483Y160500D01*
X369517D01*
X369426Y161186D01*
X368969Y162291D01*
X368475Y162935D01*
X368266Y163268D01*
X368566Y163600D01*
X368902Y163857D01*
X371767Y166722D01*
X375023D01*
X375218Y166468D01*
D02*
G37*
G36*
X328614Y212000D02*
X325318Y208704D01*
X325000Y208746D01*
X323707Y208575D01*
X322502Y208076D01*
X321468Y207282D01*
X320674Y206248D01*
X320175Y205043D01*
X320005Y203750D01*
X320175Y202457D01*
X320674Y201252D01*
X321468Y200218D01*
X322502Y199424D01*
X323036Y199203D01*
X322937Y198703D01*
X320047D01*
Y197028D01*
X308750D01*
X308326Y196972D01*
X307902Y196916D01*
X307506Y196753D01*
X307111Y196589D01*
X306432Y196068D01*
X290182Y179818D01*
X289661Y179139D01*
X289497Y178744D01*
X289334Y178349D01*
X289278Y177924D01*
X289222Y177500D01*
Y42500D01*
X289278Y42076D01*
X289334Y41652D01*
X289497Y41256D01*
X289661Y40861D01*
X290182Y40182D01*
X299520Y30844D01*
X299409Y30000D01*
X299599Y28553D01*
X300158Y27204D01*
X301046Y26046D01*
X302204Y25158D01*
X303553Y24599D01*
X305000Y24409D01*
X306447Y24599D01*
X307796Y25158D01*
X308954Y26046D01*
X309842Y27204D01*
X310401Y28553D01*
X310591Y30000D01*
X310401Y31447D01*
X309842Y32796D01*
X308954Y33954D01*
X307986Y34696D01*
X307952Y34778D01*
Y35222D01*
X307986Y35304D01*
X308954Y36046D01*
X309842Y37205D01*
X310401Y38553D01*
X310591Y40000D01*
X310401Y41447D01*
X309842Y42796D01*
X308954Y43954D01*
X307986Y44696D01*
X307952Y44778D01*
Y45222D01*
X307986Y45304D01*
X308954Y46047D01*
X309842Y47205D01*
X310401Y48553D01*
X310591Y50000D01*
X310401Y51447D01*
X309842Y52796D01*
X308954Y53954D01*
X307986Y54696D01*
X307952Y54778D01*
Y55222D01*
X307986Y55304D01*
X308954Y56046D01*
X309842Y57205D01*
X310401Y58553D01*
X310591Y60000D01*
X310401Y61447D01*
X309842Y62796D01*
X308954Y63954D01*
X307986Y64696D01*
X307952Y64778D01*
Y65222D01*
X307986Y65304D01*
X308954Y66047D01*
X309842Y67204D01*
X310401Y68553D01*
X310491Y69239D01*
X310964Y69400D01*
X311722Y68642D01*
Y25108D01*
X297392Y10778D01*
X283134D01*
X283009Y11278D01*
X283855Y11731D01*
X284907Y12594D01*
X285770Y13645D01*
X286411Y14845D01*
X286806Y16146D01*
X286890Y17000D01*
X273110D01*
X273195Y16146D01*
X273589Y14845D01*
X274231Y13645D01*
X275094Y12594D01*
X276145Y11731D01*
X276992Y11278D01*
X276866Y10778D01*
X271358D01*
X267418Y14718D01*
X267791Y15950D01*
X267944Y17500D01*
X267791Y19050D01*
X267339Y20540D01*
X266605Y21913D01*
X265617Y23117D01*
X264413Y24105D01*
X263040Y24839D01*
X261550Y25291D01*
X260000Y25444D01*
X258450Y25291D01*
X256960Y24839D01*
X255587Y24105D01*
X254383Y23117D01*
X253395Y21913D01*
X252661Y20540D01*
X252209Y19050D01*
X252056Y17500D01*
X252209Y15950D01*
X252661Y14460D01*
X253395Y13087D01*
X254383Y11883D01*
X255587Y10895D01*
X256960Y10161D01*
X258450Y9709D01*
X260000Y9556D01*
X261550Y9709D01*
X262782Y10083D01*
X267682Y5182D01*
X268066Y4887D01*
X268361Y4661D01*
X268593Y4565D01*
X269152Y4334D01*
X270000Y4222D01*
X298750D01*
X299174Y4278D01*
X299599Y4334D01*
X299994Y4497D01*
X300389Y4661D01*
X301068Y5182D01*
X317318Y21432D01*
X317839Y22111D01*
X318003Y22506D01*
X318166Y22902D01*
X318222Y23326D01*
X318278Y23750D01*
Y70000D01*
X318166Y70849D01*
X317935Y71408D01*
X317839Y71639D01*
X317613Y71934D01*
X317318Y72318D01*
X310480Y79156D01*
X310591Y80000D01*
X310401Y81447D01*
X309842Y82796D01*
X308954Y83954D01*
X307986Y84696D01*
X307952Y84778D01*
Y85222D01*
X307986Y85304D01*
X308954Y86046D01*
X309842Y87204D01*
X310401Y88553D01*
X310591Y90000D01*
X310401Y91447D01*
X309842Y92796D01*
X308954Y93954D01*
X307986Y94696D01*
X307952Y94778D01*
Y95222D01*
X307986Y95304D01*
X308954Y96047D01*
X309842Y97205D01*
X310401Y98553D01*
X310591Y100000D01*
X310401Y101447D01*
X309842Y102796D01*
X308954Y103954D01*
X307986Y104696D01*
X307952Y104778D01*
Y105222D01*
X307986Y105304D01*
X308954Y106046D01*
X309472Y106722D01*
X327500D01*
X327924Y106778D01*
X328348Y106834D01*
X328744Y106998D01*
X329139Y107161D01*
X329818Y107682D01*
X343858Y121722D01*
X361394D01*
X361672Y121306D01*
X361517Y120933D01*
X361394Y120000D01*
X361517Y119067D01*
X361877Y118197D01*
X362451Y117450D01*
X363197Y116877D01*
X364067Y116517D01*
X365000Y116394D01*
X365933Y116517D01*
X366803Y116877D01*
X367550Y117450D01*
X368123Y118197D01*
X368483Y119067D01*
X368606Y120000D01*
X368483Y120933D01*
X368320Y121326D01*
X368349Y121834D01*
X368568Y121925D01*
X368744Y121997D01*
X369139Y122161D01*
X369818Y122682D01*
X374335Y127199D01*
X374797Y127008D01*
Y126047D01*
X378250D01*
Y130000D01*
Y133953D01*
X375778D01*
Y135473D01*
X376226Y135694D01*
X376252Y135674D01*
X377457Y135175D01*
X378750Y135005D01*
X380043Y135175D01*
X381248Y135674D01*
X382282Y136468D01*
X383076Y137502D01*
X383575Y138707D01*
X383746Y140000D01*
X383704Y140318D01*
X387318Y143932D01*
X387544Y144227D01*
X387839Y144611D01*
X388071Y145170D01*
X388166Y145402D01*
X388179Y145500D01*
X388250Y146037D01*
X388750Y146005D01*
Y0D01*
X0D01*
Y212500D01*
X328407D01*
X328614Y212000D01*
D02*
G37*
G36*
X381722Y179892D02*
Y174528D01*
X381274Y174306D01*
X381248Y174326D01*
X380043Y174825D01*
X378750Y174996D01*
X377457Y174825D01*
X376252Y174326D01*
X375218Y173532D01*
X375023Y173278D01*
X370409D01*
X369561Y173166D01*
X368770Y172839D01*
X368259Y172447D01*
X367631Y172444D01*
X367550Y172550D01*
X366803Y173123D01*
X365933Y173483D01*
X365000Y173606D01*
X364067Y173483D01*
X363197Y173123D01*
X362451Y172550D01*
X361877Y171803D01*
X361517Y170933D01*
X361394Y170000D01*
X361417Y169829D01*
X361087Y169453D01*
X359925D01*
X359077Y169342D01*
X358286Y169014D01*
X357902Y168719D01*
X357607Y168493D01*
X351432Y162318D01*
X350911Y161639D01*
X350747Y161244D01*
X350584Y160848D01*
X350528Y160424D01*
X350472Y160000D01*
Y152608D01*
X331142Y133278D01*
X328358D01*
X328080Y133694D01*
X328134Y133825D01*
X328289Y135000D01*
X328134Y136175D01*
X327681Y137269D01*
X327028Y138120D01*
Y161142D01*
X337318Y171432D01*
X337544Y171727D01*
X337839Y172111D01*
X338166Y172902D01*
X338278Y173750D01*
Y190023D01*
X338532Y190218D01*
X339326Y191252D01*
X339729Y192226D01*
X340271D01*
X340674Y191252D01*
X341468Y190218D01*
X342502Y189424D01*
X343707Y188925D01*
X345000Y188755D01*
X346293Y188925D01*
X347498Y189424D01*
X348532Y190218D01*
X349326Y191252D01*
X349825Y192457D01*
X349995Y193750D01*
X349825Y195043D01*
X349326Y196248D01*
X348532Y197282D01*
X347498Y198076D01*
X346293Y198575D01*
X345000Y198746D01*
X343707Y198575D01*
X342502Y198076D01*
X341468Y197282D01*
X340674Y196248D01*
X340271Y195274D01*
X339729D01*
X339326Y196248D01*
X338532Y197282D01*
X337498Y198076D01*
X336524Y198479D01*
Y199021D01*
X337498Y199424D01*
X338532Y200218D01*
X339326Y201252D01*
X339825Y202457D01*
X339996Y203750D01*
X339825Y205043D01*
X339326Y206248D01*
X339306Y206274D01*
X339528Y206722D01*
X341668D01*
X341915Y206222D01*
X341547Y205744D01*
X341149Y204782D01*
X341079Y204250D01*
X348921D01*
X348851Y204782D01*
X348453Y205744D01*
X348086Y206222D01*
X348332Y206722D01*
X354892D01*
X381722Y179892D01*
D02*
G37*
%LPC*%
G36*
X237000Y46721D02*
X236391Y46641D01*
X235357Y46212D01*
X234469Y45531D01*
X233788Y44643D01*
X233359Y43609D01*
X233279Y43000D01*
X237000D01*
Y46721D01*
D02*
G37*
G36*
X15500Y49390D02*
Y43000D01*
X21890D01*
X21806Y43854D01*
X21411Y45156D01*
X20770Y46355D01*
X19907Y47407D01*
X18855Y48270D01*
X17655Y48911D01*
X16354Y49306D01*
X15500Y49390D01*
D02*
G37*
G36*
X238000Y46721D02*
Y43000D01*
X241721D01*
X241641Y43609D01*
X241212Y44643D01*
X240531Y45531D01*
X239643Y46212D01*
X238610Y46641D01*
X238000Y46721D01*
D02*
G37*
G36*
X53000Y49221D02*
Y45500D01*
X56721D01*
X56641Y46110D01*
X56212Y47143D01*
X55531Y48031D01*
X54643Y48712D01*
X53610Y49141D01*
X53000Y49221D01*
D02*
G37*
G36*
X52000D02*
X51391Y49141D01*
X50357Y48712D01*
X49469Y48031D01*
X48788Y47143D01*
X48359Y46110D01*
X48279Y45500D01*
X52000D01*
Y49221D01*
D02*
G37*
G36*
X132453Y74953D02*
X122547D01*
Y65047D01*
X125436D01*
X125536Y64547D01*
X125002Y64326D01*
X123968Y63532D01*
X123174Y62498D01*
X122675Y61293D01*
X122505Y60000D01*
X122675Y58707D01*
X123174Y57502D01*
X123968Y56468D01*
X125002Y55674D01*
X125976Y55271D01*
Y54729D01*
X125002Y54326D01*
X123968Y53532D01*
X123174Y52498D01*
X122675Y51293D01*
X122505Y50000D01*
X122675Y48707D01*
X123174Y47502D01*
X123968Y46468D01*
X125002Y45674D01*
X126207Y45175D01*
X127500Y45005D01*
X128793Y45175D01*
X129998Y45674D01*
X131032Y46468D01*
X131826Y47502D01*
X132325Y48707D01*
X132495Y50000D01*
X132325Y51293D01*
X131826Y52498D01*
X131032Y53532D01*
X129998Y54326D01*
X129024Y54729D01*
Y55271D01*
X129998Y55674D01*
X131032Y56468D01*
X131826Y57502D01*
X132325Y58707D01*
X132495Y60000D01*
X132325Y61293D01*
X131826Y62498D01*
X131032Y63532D01*
X129998Y64326D01*
X129464Y64547D01*
X129564Y65047D01*
X132453D01*
Y74953D01*
D02*
G37*
G36*
X52000Y44500D02*
X48279D01*
X48359Y43891D01*
X48788Y42857D01*
X49469Y41969D01*
X50357Y41288D01*
X51391Y40859D01*
X52000Y40779D01*
Y44500D01*
D02*
G37*
G36*
X128000Y43921D02*
Y40500D01*
X131421D01*
X131351Y41032D01*
X130953Y41993D01*
X130319Y42819D01*
X129493Y43453D01*
X128532Y43851D01*
X128000Y43921D01*
D02*
G37*
G36*
X127000D02*
X126468Y43851D01*
X125507Y43453D01*
X124681Y42819D01*
X124047Y41993D01*
X123649Y41032D01*
X123579Y40500D01*
X127000D01*
Y43921D01*
D02*
G37*
G36*
X56721Y44500D02*
X53000D01*
Y40779D01*
X53610Y40859D01*
X54643Y41288D01*
X55531Y41969D01*
X56212Y42857D01*
X56641Y43891D01*
X56721Y44500D01*
D02*
G37*
G36*
X14500Y49390D02*
X13646Y49306D01*
X12345Y48911D01*
X11145Y48270D01*
X10093Y47407D01*
X9230Y46355D01*
X8589Y45156D01*
X8195Y43854D01*
X8110Y43000D01*
X14500D01*
Y49390D01*
D02*
G37*
G36*
X227500Y47795D02*
X226130Y47615D01*
X224852Y47086D01*
X223756Y46244D01*
X222914Y45148D01*
X222385Y43871D01*
X222205Y42500D01*
X222385Y41129D01*
X222914Y39852D01*
X223756Y38756D01*
X224852Y37914D01*
X226130Y37385D01*
X227500Y37205D01*
X228871Y37385D01*
X230148Y37914D01*
X231244Y38756D01*
X232086Y39852D01*
X232615Y41129D01*
X232752Y42172D01*
X232775D01*
Y42343D01*
X232796Y42500D01*
X232775Y42657D01*
Y42828D01*
X232752D01*
X232615Y43871D01*
X232086Y45148D01*
X231244Y46244D01*
X230148Y47086D01*
X228871Y47615D01*
X227500Y47795D01*
D02*
G37*
G36*
X76721Y44500D02*
X73000D01*
Y40779D01*
X73610Y40859D01*
X74643Y41288D01*
X75531Y41969D01*
X76212Y42857D01*
X76641Y43891D01*
X76721Y44500D01*
D02*
G37*
G36*
X73000Y49221D02*
Y45500D01*
X76721D01*
X76641Y46110D01*
X76212Y47143D01*
X75531Y48031D01*
X74643Y48712D01*
X73610Y49141D01*
X73000Y49221D01*
D02*
G37*
G36*
X239500Y76535D02*
X239000D01*
X237956Y76397D01*
X236983Y75994D01*
X236147Y75353D01*
X235506Y74517D01*
X235103Y73544D01*
X235031Y73000D01*
X239500D01*
Y76535D01*
D02*
G37*
G36*
X244969Y72000D02*
X240500D01*
Y68466D01*
X241000D01*
X242044Y68603D01*
X243017Y69006D01*
X243853Y69647D01*
X244494Y70483D01*
X244897Y71456D01*
X244969Y72000D01*
D02*
G37*
G36*
X239500D02*
X235031D01*
X235103Y71456D01*
X235506Y70483D01*
X236147Y69647D01*
X236983Y69006D01*
X237956Y68603D01*
X239000Y68466D01*
X239500D01*
Y72000D01*
D02*
G37*
G36*
X241000Y76535D02*
X240500D01*
Y73000D01*
X244969D01*
X244897Y73544D01*
X244494Y74517D01*
X243853Y75353D01*
X243017Y75994D01*
X242044Y76397D01*
X241000Y76535D01*
D02*
G37*
G36*
X378750Y104996D02*
X377457Y104825D01*
X376252Y104326D01*
X375218Y103532D01*
X374424Y102498D01*
X373925Y101293D01*
X373755Y100000D01*
X373925Y98707D01*
X374424Y97502D01*
X375218Y96468D01*
X376252Y95674D01*
X377226Y95271D01*
Y94729D01*
X376252Y94326D01*
X375218Y93532D01*
X374424Y92498D01*
X373925Y91293D01*
X373755Y90000D01*
X373925Y88707D01*
X374424Y87502D01*
X375218Y86468D01*
X376252Y85674D01*
X377226Y85271D01*
Y84729D01*
X376252Y84326D01*
X375218Y83532D01*
X374424Y82498D01*
X373925Y81293D01*
X373755Y80000D01*
X373925Y78707D01*
X374424Y77502D01*
X375218Y76468D01*
X376252Y75674D01*
X377457Y75175D01*
X378750Y75005D01*
X380043Y75175D01*
X381248Y75674D01*
X382282Y76468D01*
X383076Y77502D01*
X383575Y78707D01*
X383746Y80000D01*
X383575Y81293D01*
X383076Y82498D01*
X382282Y83532D01*
X381248Y84326D01*
X380274Y84729D01*
Y85271D01*
X381248Y85674D01*
X382282Y86468D01*
X383076Y87502D01*
X383575Y88707D01*
X383746Y90000D01*
X383575Y91293D01*
X383076Y92498D01*
X382282Y93532D01*
X381248Y94326D01*
X380274Y94729D01*
Y95271D01*
X381248Y95674D01*
X382282Y96468D01*
X383076Y97502D01*
X383575Y98707D01*
X383746Y100000D01*
X383575Y101293D01*
X383076Y102498D01*
X382282Y103532D01*
X381248Y104326D01*
X380043Y104825D01*
X378750Y104996D01*
D02*
G37*
G36*
X115000Y77893D02*
X113604Y77709D01*
X112304Y77170D01*
X111187Y76313D01*
X110330Y75196D01*
X110250Y75003D01*
X109750D01*
X109670Y75196D01*
X108813Y76313D01*
X107696Y77170D01*
X106396Y77709D01*
X105000Y77893D01*
X103604Y77709D01*
X102304Y77170D01*
X101187Y76313D01*
X100330Y75196D01*
X99791Y73896D01*
X99607Y72500D01*
X99791Y71104D01*
X100330Y69804D01*
X101187Y68687D01*
X101722Y68276D01*
Y61358D01*
X99892Y59528D01*
X91815D01*
X91716Y60028D01*
X92648Y60414D01*
X93744Y61256D01*
X94586Y62352D01*
X95115Y63630D01*
X95295Y65000D01*
X95115Y66371D01*
X94586Y67648D01*
X93744Y68744D01*
X92648Y69586D01*
X91371Y70115D01*
X90000Y70295D01*
X88630Y70115D01*
X87352Y69586D01*
X86256Y68744D01*
X85414Y67648D01*
X84885Y66371D01*
X84705Y65000D01*
X84885Y63630D01*
X85414Y62352D01*
X86256Y61256D01*
X87352Y60414D01*
X88630Y59885D01*
X88893Y59851D01*
X88961Y59337D01*
X88756Y59253D01*
X88361Y59089D01*
X88022Y58828D01*
X87682Y58568D01*
X78932Y49818D01*
X78411Y49139D01*
X78247Y48744D01*
X78084Y48349D01*
X78028Y47924D01*
X77972Y47500D01*
Y35108D01*
X71432Y28568D01*
X70911Y27889D01*
X70748Y27494D01*
X70584Y27099D01*
X70528Y26674D01*
X70472Y26250D01*
Y25426D01*
X70216Y25289D01*
X69252Y24498D01*
X68778Y23921D01*
X68278Y24100D01*
Y42780D01*
X68778Y42880D01*
X68788Y42857D01*
X69469Y41969D01*
X70357Y41288D01*
X71391Y40859D01*
X72000Y40779D01*
Y45000D01*
Y49221D01*
X71391Y49141D01*
X70357Y48712D01*
X69469Y48031D01*
X68788Y47143D01*
X68778Y47120D01*
X68278Y47220D01*
Y56142D01*
X71917Y59781D01*
X72500Y59705D01*
X73871Y59885D01*
X75148Y60414D01*
X76244Y61256D01*
X77086Y62352D01*
X77615Y63630D01*
X77795Y65000D01*
X77615Y66371D01*
X77086Y67648D01*
X76244Y68744D01*
X75148Y69586D01*
X73871Y70115D01*
X72500Y70295D01*
X71130Y70115D01*
X69852Y69586D01*
X68756Y68744D01*
X67914Y67648D01*
X67385Y66371D01*
X67205Y65000D01*
X67282Y64417D01*
X62682Y59818D01*
X62161Y59139D01*
X61997Y58744D01*
X61834Y58349D01*
X61778Y57924D01*
X61722Y57500D01*
Y20108D01*
X59888Y18274D01*
X58825Y18134D01*
X57731Y17681D01*
X56791Y16960D01*
X56069Y16019D01*
X55616Y14925D01*
X55461Y13750D01*
X55616Y12575D01*
X56069Y11481D01*
X56791Y10541D01*
X57731Y9819D01*
X58825Y9366D01*
X60000Y9211D01*
X61175Y9366D01*
X62270Y9819D01*
X63209Y10541D01*
X63931Y11481D01*
X64384Y12575D01*
X64524Y13638D01*
X67318Y16432D01*
X67668Y16888D01*
X68250Y16860D01*
X68461Y16466D01*
X69252Y15502D01*
X70216Y14711D01*
X71316Y14123D01*
X72509Y13761D01*
X73750Y13639D01*
X74991Y13761D01*
X76184Y14123D01*
X77284Y14711D01*
X78248Y15502D01*
X79039Y16466D01*
X79627Y17566D01*
X79989Y18759D01*
X80111Y20000D01*
X79989Y21241D01*
X79627Y22434D01*
X79039Y23534D01*
X78248Y24498D01*
X77649Y24990D01*
X77625Y25489D01*
X83568Y31432D01*
X83794Y31727D01*
X84089Y32111D01*
X84253Y32506D01*
X84416Y32902D01*
X84472Y33326D01*
X84528Y33750D01*
Y43185D01*
X85028Y43284D01*
X85414Y42352D01*
X86256Y41256D01*
X87352Y40414D01*
X88630Y39885D01*
X90000Y39705D01*
X91371Y39885D01*
X92648Y40414D01*
X93744Y41256D01*
X94586Y42352D01*
X95115Y43630D01*
X95295Y45000D01*
X95115Y46371D01*
X94586Y47648D01*
X93744Y48744D01*
X92648Y49586D01*
X91371Y50115D01*
X90000Y50295D01*
X89296Y50203D01*
X89062Y50676D01*
X91358Y52972D01*
X101250D01*
X101674Y53028D01*
X102099Y53084D01*
X102494Y53247D01*
X102889Y53411D01*
X103568Y53932D01*
X107318Y57682D01*
X107839Y58361D01*
X108003Y58756D01*
X108166Y59152D01*
X108222Y59576D01*
X108278Y60000D01*
Y68276D01*
X108813Y68687D01*
X109670Y69804D01*
X109750Y69997D01*
X110250D01*
X110330Y69804D01*
X111187Y68687D01*
X112304Y67830D01*
X113604Y67291D01*
X115000Y67107D01*
X116396Y67291D01*
X117696Y67830D01*
X118813Y68687D01*
X119670Y69804D01*
X120209Y71104D01*
X120393Y72500D01*
X120209Y73896D01*
X119670Y75196D01*
X118813Y76313D01*
X117696Y77170D01*
X116396Y77709D01*
X115000Y77893D01*
D02*
G37*
G36*
X277500Y95393D02*
X276104Y95209D01*
X274804Y94670D01*
X273687Y93813D01*
X272830Y92696D01*
X272291Y91396D01*
X272108Y90000D01*
X272291Y88604D01*
X272830Y87304D01*
X273687Y86187D01*
X274804Y85330D01*
X274997Y85250D01*
Y84750D01*
X274804Y84670D01*
X273687Y83813D01*
X272830Y82696D01*
X272291Y81396D01*
X272108Y80000D01*
X272291Y78604D01*
X272830Y77304D01*
X273687Y76187D01*
X274804Y75330D01*
X276104Y74791D01*
X277500Y74607D01*
X278896Y74791D01*
X280196Y75330D01*
X281313Y76187D01*
X282170Y77304D01*
X282709Y78604D01*
X282893Y80000D01*
X282709Y81396D01*
X282170Y82696D01*
X281313Y83813D01*
X280196Y84670D01*
X280003Y84750D01*
Y85250D01*
X280196Y85330D01*
X281313Y86187D01*
X282170Y87304D01*
X282709Y88604D01*
X282893Y90000D01*
X282709Y91396D01*
X282170Y92696D01*
X281313Y93813D01*
X280196Y94670D01*
X278896Y95209D01*
X277500Y95393D01*
D02*
G37*
G36*
X365000Y73606D02*
X364067Y73483D01*
X363197Y73123D01*
X362451Y72550D01*
X361877Y71803D01*
X361517Y70933D01*
X361394Y70000D01*
X361517Y69067D01*
X361877Y68197D01*
X362451Y67450D01*
X363197Y66878D01*
X364067Y66517D01*
X365000Y66394D01*
X365933Y66517D01*
X366803Y66878D01*
X367550Y67450D01*
X368123Y68197D01*
X368483Y69067D01*
X368606Y70000D01*
X368483Y70933D01*
X368123Y71803D01*
X367550Y72550D01*
X366803Y73123D01*
X365933Y73483D01*
X365000Y73606D01*
D02*
G37*
G36*
X205000Y62893D02*
X203604Y62709D01*
X202304Y62170D01*
X201187Y61313D01*
X200330Y60196D01*
X199791Y58896D01*
X199608Y57500D01*
X199791Y56104D01*
X200330Y54804D01*
X201187Y53687D01*
X202304Y52830D01*
X203604Y52291D01*
X205000Y52108D01*
X206396Y52291D01*
X207696Y52830D01*
X208813Y53687D01*
X209670Y54804D01*
X210209Y56104D01*
X210393Y57500D01*
X210209Y58896D01*
X209670Y60196D01*
X208813Y61313D01*
X207696Y62170D01*
X206396Y62709D01*
X205000Y62893D01*
D02*
G37*
G36*
X52500Y60295D02*
X51130Y60115D01*
X49852Y59586D01*
X48756Y58744D01*
X47914Y57648D01*
X47385Y56371D01*
X47205Y55000D01*
X47385Y53629D01*
X47914Y52352D01*
X48756Y51256D01*
X49852Y50414D01*
X51130Y49885D01*
X52172Y49748D01*
Y49725D01*
X52343D01*
X52500Y49705D01*
X52657Y49725D01*
X52828D01*
Y49748D01*
X53871Y49885D01*
X55148Y50414D01*
X56244Y51256D01*
X57086Y52352D01*
X57615Y53629D01*
X57795Y55000D01*
X57615Y56371D01*
X57086Y57648D01*
X56244Y58744D01*
X55148Y59586D01*
X53871Y60115D01*
X52500Y60295D01*
D02*
G37*
G36*
X365000Y53606D02*
X364067Y53483D01*
X363197Y53123D01*
X362451Y52550D01*
X361877Y51803D01*
X361517Y50933D01*
X361394Y50000D01*
X361517Y49067D01*
X361877Y48197D01*
X362451Y47451D01*
X363197Y46878D01*
X364067Y46517D01*
X365000Y46394D01*
X365933Y46517D01*
X366803Y46878D01*
X367550Y47451D01*
X368123Y48197D01*
X368483Y49067D01*
X368606Y50000D01*
X368483Y50933D01*
X368123Y51803D01*
X367550Y52550D01*
X366803Y53123D01*
X365933Y53483D01*
X365000Y53606D01*
D02*
G37*
G36*
X245000Y62893D02*
X243604Y62709D01*
X242304Y62170D01*
X241187Y61313D01*
X240330Y60196D01*
X239791Y58896D01*
X239608Y57500D01*
X239791Y56104D01*
X240330Y54804D01*
X241187Y53687D01*
X242304Y52830D01*
X243604Y52291D01*
X245000Y52108D01*
X246396Y52291D01*
X247696Y52830D01*
X248813Y53687D01*
X249670Y54804D01*
X250209Y56104D01*
X250393Y57500D01*
X250209Y58896D01*
X249670Y60196D01*
X248813Y61313D01*
X247696Y62170D01*
X246396Y62709D01*
X245000Y62893D01*
D02*
G37*
G36*
X37500Y75393D02*
X36104Y75209D01*
X34804Y74670D01*
X33687Y73813D01*
X32830Y72696D01*
X32291Y71396D01*
X32107Y70000D01*
X32291Y68604D01*
X32830Y67304D01*
X33687Y66187D01*
X34804Y65330D01*
X36104Y64791D01*
X37500Y64608D01*
X38896Y64791D01*
X40196Y65330D01*
X41313Y66187D01*
X42170Y67304D01*
X42709Y68604D01*
X42893Y70000D01*
X42709Y71396D01*
X42170Y72696D01*
X41313Y73813D01*
X40196Y74670D01*
X38896Y75209D01*
X37500Y75393D01*
D02*
G37*
G36*
X15000Y70444D02*
X13450Y70291D01*
X11960Y69839D01*
X10587Y69105D01*
X9383Y68117D01*
X8395Y66913D01*
X7661Y65540D01*
X7209Y64050D01*
X7056Y62500D01*
X7209Y60950D01*
X7661Y59460D01*
X8395Y58087D01*
X9383Y56883D01*
X10587Y55895D01*
X11960Y55161D01*
X13450Y54709D01*
X15000Y54556D01*
X16550Y54709D01*
X18040Y55161D01*
X19413Y55895D01*
X20617Y56883D01*
X21605Y58087D01*
X22339Y59460D01*
X22791Y60950D01*
X22944Y62500D01*
X22791Y64050D01*
X22339Y65540D01*
X21605Y66913D01*
X20617Y68117D01*
X19413Y69105D01*
X18040Y69839D01*
X16550Y70291D01*
X15000Y70444D01*
D02*
G37*
G36*
X365000Y65591D02*
X363553Y65401D01*
X362205Y64842D01*
X361047Y63954D01*
X360158Y62796D01*
X359599Y61447D01*
X359409Y60000D01*
X359599Y58553D01*
X360158Y57205D01*
X361047Y56046D01*
X362205Y55158D01*
X363553Y54599D01*
X365000Y54409D01*
X366447Y54599D01*
X367796Y55158D01*
X368954Y56046D01*
X369842Y57205D01*
X370401Y58553D01*
X370591Y60000D01*
X370401Y61447D01*
X369842Y62796D01*
X368954Y63954D01*
X367796Y64842D01*
X366447Y65401D01*
X365000Y65591D01*
D02*
G37*
G36*
X241721Y42000D02*
X238000D01*
Y38279D01*
X238610Y38359D01*
X239643Y38788D01*
X240531Y39469D01*
X241212Y40357D01*
X241641Y41391D01*
X241721Y42000D01*
D02*
G37*
G36*
X279500Y24390D02*
X278646Y24306D01*
X277345Y23911D01*
X276145Y23270D01*
X275094Y22407D01*
X274231Y21355D01*
X273589Y20155D01*
X273195Y18854D01*
X273110Y18000D01*
X279500D01*
Y24390D01*
D02*
G37*
G36*
X240500D02*
Y18000D01*
X246890D01*
X246806Y18854D01*
X246411Y20155D01*
X245770Y21355D01*
X244907Y22407D01*
X243855Y23270D01*
X242655Y23911D01*
X241354Y24306D01*
X240500Y24390D01*
D02*
G37*
G36*
X239500D02*
X238646Y24306D01*
X237345Y23911D01*
X236145Y23270D01*
X235093Y22407D01*
X234230Y21355D01*
X233589Y20155D01*
X233194Y18854D01*
X233110Y18000D01*
X239500D01*
Y24390D01*
D02*
G37*
G36*
X280500D02*
Y18000D01*
X286890D01*
X286806Y18854D01*
X286411Y20155D01*
X285770Y21355D01*
X284907Y22407D01*
X283855Y23270D01*
X282656Y23911D01*
X281354Y24306D01*
X280500Y24390D01*
D02*
G37*
G36*
X122000Y27000D02*
X118182D01*
X118265Y26365D01*
X118703Y25308D01*
X119400Y24400D01*
X120308Y23703D01*
X121365Y23266D01*
X122000Y23182D01*
Y27000D01*
D02*
G37*
G36*
X89250Y25311D02*
Y20500D01*
X94061D01*
X93944Y21392D01*
X93406Y22688D01*
X92552Y23802D01*
X91438Y24656D01*
X90142Y25194D01*
X89250Y25311D01*
D02*
G37*
G36*
X88250D02*
X87358Y25194D01*
X86062Y24656D01*
X84948Y23802D01*
X84094Y22688D01*
X83557Y21392D01*
X83439Y20500D01*
X88250D01*
Y25311D01*
D02*
G37*
G36*
X94061Y19500D02*
X89250D01*
Y14689D01*
X90142Y14807D01*
X91438Y15344D01*
X92552Y16198D01*
X93406Y17312D01*
X93944Y18609D01*
X94061Y19500D01*
D02*
G37*
G36*
X220000Y25444D02*
X218450Y25291D01*
X216960Y24839D01*
X215587Y24105D01*
X214383Y23117D01*
X213395Y21913D01*
X212661Y20540D01*
X212209Y19050D01*
X212056Y17500D01*
X212209Y15950D01*
X212661Y14460D01*
X213395Y13087D01*
X214383Y11883D01*
X215587Y10895D01*
X216960Y10161D01*
X218450Y9709D01*
X220000Y9556D01*
X221550Y9709D01*
X223040Y10161D01*
X224413Y10895D01*
X225617Y11883D01*
X226605Y13087D01*
X227339Y14460D01*
X227791Y15950D01*
X227944Y17500D01*
X227791Y19050D01*
X227339Y20540D01*
X226605Y21913D01*
X225617Y23117D01*
X224413Y24105D01*
X223040Y24839D01*
X221550Y25291D01*
X220000Y25444D01*
D02*
G37*
G36*
X12500Y20444D02*
X10950Y20291D01*
X9460Y19839D01*
X8087Y19105D01*
X6883Y18117D01*
X5895Y16913D01*
X5161Y15540D01*
X4709Y14050D01*
X4556Y12500D01*
X4709Y10950D01*
X5161Y9460D01*
X5895Y8087D01*
X6883Y6883D01*
X8087Y5895D01*
X9460Y5161D01*
X10950Y4709D01*
X12500Y4556D01*
X14050Y4709D01*
X15540Y5161D01*
X16913Y5895D01*
X18117Y6883D01*
X19105Y8087D01*
X19839Y9460D01*
X20291Y10950D01*
X20444Y12500D01*
X20291Y14050D01*
X19839Y15540D01*
X19105Y16913D01*
X18117Y18117D01*
X16913Y19105D01*
X15540Y19839D01*
X14050Y20291D01*
X12500Y20444D01*
D02*
G37*
G36*
X377500Y17944D02*
X375950Y17791D01*
X374460Y17339D01*
X373087Y16605D01*
X371883Y15617D01*
X370895Y14413D01*
X370161Y13040D01*
X369709Y11550D01*
X369556Y10000D01*
X369709Y8450D01*
X370161Y6960D01*
X370895Y5587D01*
X371883Y4383D01*
X373087Y3395D01*
X374460Y2661D01*
X375950Y2209D01*
X377500Y2056D01*
X379050Y2209D01*
X380540Y2661D01*
X381913Y3395D01*
X383117Y4383D01*
X384105Y5587D01*
X384839Y6960D01*
X385291Y8450D01*
X385444Y10000D01*
X385291Y11550D01*
X384839Y13040D01*
X384105Y14413D01*
X383117Y15617D01*
X381913Y16605D01*
X380540Y17339D01*
X379050Y17791D01*
X377500Y17944D01*
D02*
G37*
G36*
X239500Y17000D02*
X233110D01*
X233194Y16146D01*
X233589Y14845D01*
X234230Y13645D01*
X235093Y12594D01*
X236145Y11731D01*
X237345Y11089D01*
X238646Y10695D01*
X239500Y10610D01*
Y17000D01*
D02*
G37*
G36*
X88250Y19500D02*
X83439D01*
X83557Y18609D01*
X84094Y17312D01*
X84948Y16198D01*
X86062Y15344D01*
X87358Y14807D01*
X88250Y14689D01*
Y19500D01*
D02*
G37*
G36*
X105000Y37893D02*
X103604Y37709D01*
X102304Y37170D01*
X101187Y36313D01*
X100330Y35196D01*
X99791Y33896D01*
X99607Y32500D01*
X99791Y31104D01*
X100330Y29804D01*
X101187Y28687D01*
X102304Y27830D01*
X103604Y27291D01*
X105000Y27108D01*
X105669Y27196D01*
X117182Y15682D01*
X117291Y14854D01*
X117830Y13554D01*
X118687Y12437D01*
X119804Y11580D01*
X121104Y11041D01*
X122500Y10858D01*
X123896Y11041D01*
X125196Y11580D01*
X126313Y12437D01*
X127170Y13554D01*
X127709Y14854D01*
X127893Y16250D01*
X127709Y17646D01*
X127170Y18946D01*
X126313Y20063D01*
X125196Y20920D01*
X123896Y21459D01*
X122500Y21643D01*
X121104Y21459D01*
X120802Y21334D01*
X114421Y27715D01*
X114500Y27875D01*
Y32500D01*
Y36818D01*
X113865Y36735D01*
X112808Y36297D01*
X111900Y35600D01*
X111203Y34692D01*
X110766Y33635D01*
X110757Y33567D01*
X110252D01*
X110209Y33896D01*
X109670Y35196D01*
X108813Y36313D01*
X107696Y37170D01*
X106396Y37709D01*
X105000Y37893D01*
D02*
G37*
G36*
X246890Y17000D02*
X240500D01*
Y10610D01*
X241354Y10695D01*
X242655Y11089D01*
X243855Y11731D01*
X244907Y12594D01*
X245770Y13645D01*
X246411Y14845D01*
X246806Y16146D01*
X246890Y17000D01*
D02*
G37*
G36*
X21890Y42000D02*
X15500D01*
Y35610D01*
X16354Y35695D01*
X17655Y36089D01*
X18855Y36731D01*
X19907Y37593D01*
X20770Y38645D01*
X21411Y39845D01*
X21806Y41146D01*
X21890Y42000D01*
D02*
G37*
G36*
X14500D02*
X8110D01*
X8195Y41146D01*
X8589Y39845D01*
X9230Y38645D01*
X10093Y37593D01*
X11145Y36731D01*
X12345Y36089D01*
X13646Y35695D01*
X14500Y35610D01*
Y42000D01*
D02*
G37*
G36*
X157500Y74995D02*
X156207Y74825D01*
X155002Y74326D01*
X153968Y73532D01*
X153174Y72498D01*
X152675Y71293D01*
X152505Y70000D01*
X152675Y68707D01*
X153174Y67502D01*
X153968Y66468D01*
X155002Y65674D01*
X155976Y65271D01*
Y64729D01*
X155002Y64326D01*
X153968Y63532D01*
X153174Y62498D01*
X152675Y61293D01*
X152505Y60000D01*
X152675Y58707D01*
X153174Y57502D01*
X153968Y56468D01*
X155002Y55674D01*
X155976Y55271D01*
Y54729D01*
X155002Y54326D01*
X153968Y53532D01*
X153174Y52498D01*
X152675Y51293D01*
X152505Y50000D01*
X152675Y48707D01*
X153174Y47502D01*
X153968Y46468D01*
X155002Y45674D01*
X155976Y45271D01*
Y44730D01*
X155002Y44326D01*
X153968Y43532D01*
X153174Y42498D01*
X152675Y41293D01*
X152505Y40000D01*
X152675Y38707D01*
X153174Y37502D01*
X153968Y36468D01*
X155002Y35674D01*
X156207Y35175D01*
X157500Y35005D01*
X158793Y35175D01*
X159998Y35674D01*
X161032Y36468D01*
X161826Y37502D01*
X162325Y38707D01*
X162496Y40000D01*
X162325Y41293D01*
X161826Y42498D01*
X161032Y43532D01*
X159998Y44326D01*
X159024Y44730D01*
Y45271D01*
X159998Y45674D01*
X161032Y46468D01*
X161826Y47502D01*
X162325Y48707D01*
X162496Y50000D01*
X162325Y51293D01*
X161826Y52498D01*
X161032Y53532D01*
X159998Y54326D01*
X159024Y54729D01*
Y55271D01*
X159998Y55674D01*
X161032Y56468D01*
X161826Y57502D01*
X162325Y58707D01*
X162496Y60000D01*
X162325Y61293D01*
X161826Y62498D01*
X161032Y63532D01*
X159998Y64326D01*
X159024Y64729D01*
Y65271D01*
X159998Y65674D01*
X161032Y66468D01*
X161826Y67502D01*
X162325Y68707D01*
X162496Y70000D01*
X162325Y71293D01*
X161826Y72498D01*
X161032Y73532D01*
X159998Y74326D01*
X158793Y74825D01*
X157500Y74995D01*
D02*
G37*
G36*
X127000Y39500D02*
X123579D01*
X123649Y38968D01*
X124047Y38007D01*
X124681Y37181D01*
X125507Y36547D01*
X126468Y36149D01*
X127000Y36079D01*
Y39500D01*
D02*
G37*
G36*
X237000Y42000D02*
X233279D01*
X233359Y41391D01*
X233788Y40357D01*
X234469Y39469D01*
X235357Y38788D01*
X236391Y38359D01*
X237000Y38279D01*
Y42000D01*
D02*
G37*
G36*
X365000Y43606D02*
X364067Y43483D01*
X363197Y43123D01*
X362451Y42550D01*
X361877Y41803D01*
X361517Y40933D01*
X361394Y40000D01*
X361517Y39067D01*
X361877Y38197D01*
X362451Y37451D01*
X363197Y36878D01*
X364067Y36517D01*
X365000Y36394D01*
X365933Y36517D01*
X366803Y36878D01*
X367550Y37451D01*
X368123Y38197D01*
X368483Y39067D01*
X368606Y40000D01*
X368483Y40933D01*
X368123Y41803D01*
X367550Y42550D01*
X366803Y43123D01*
X365933Y43483D01*
X365000Y43606D01*
D02*
G37*
G36*
X131421Y39500D02*
X128000D01*
Y36079D01*
X128532Y36149D01*
X129493Y36547D01*
X130319Y37181D01*
X130953Y38007D01*
X131351Y38968D01*
X131421Y39500D01*
D02*
G37*
G36*
X277500Y45393D02*
X276104Y45209D01*
X274804Y44670D01*
X273687Y43813D01*
X272830Y42696D01*
X272291Y41396D01*
X272108Y40000D01*
X272291Y38604D01*
X272830Y37304D01*
X273687Y36187D01*
X274804Y35330D01*
X276104Y34791D01*
X277500Y34607D01*
X278896Y34791D01*
X280196Y35330D01*
X281313Y36187D01*
X282170Y37304D01*
X282709Y38604D01*
X282893Y40000D01*
X282709Y41396D01*
X282170Y42696D01*
X281313Y43813D01*
X280196Y44670D01*
X278896Y45209D01*
X277500Y45393D01*
D02*
G37*
G36*
X37500Y35393D02*
X36104Y35209D01*
X34804Y34670D01*
X33687Y33813D01*
X32830Y32696D01*
X32291Y31396D01*
X32107Y30000D01*
X32291Y28604D01*
X32830Y27304D01*
X33687Y26187D01*
X34804Y25330D01*
X36104Y24791D01*
X37500Y24608D01*
X38896Y24791D01*
X40196Y25330D01*
X41313Y26187D01*
X42170Y27304D01*
X42709Y28604D01*
X42893Y30000D01*
X42709Y31396D01*
X42170Y32696D01*
X41313Y33813D01*
X40196Y34670D01*
X38896Y35209D01*
X37500Y35393D01*
D02*
G37*
G36*
X365000Y35591D02*
X363553Y35401D01*
X362205Y34842D01*
X361047Y33954D01*
X360158Y32796D01*
X359599Y31447D01*
X359409Y30000D01*
X359599Y28553D01*
X360158Y27204D01*
X361047Y26046D01*
X362205Y25158D01*
X363553Y24599D01*
X365000Y24409D01*
X366447Y24599D01*
X367796Y25158D01*
X368954Y26046D01*
X369842Y27204D01*
X370401Y28553D01*
X370591Y30000D01*
X370401Y31447D01*
X369842Y32796D01*
X368954Y33954D01*
X367796Y34842D01*
X366447Y35401D01*
X365000Y35591D01*
D02*
G37*
G36*
X126818Y27000D02*
X123000D01*
Y23182D01*
X123635Y23266D01*
X124692Y23703D01*
X125600Y24400D01*
X126297Y25308D01*
X126735Y26365D01*
X126818Y27000D01*
D02*
G37*
G36*
X119318Y32000D02*
X115500D01*
Y28182D01*
X116135Y28266D01*
X117192Y28703D01*
X118014Y29334D01*
X118375Y29132D01*
X118444Y29065D01*
X118265Y28635D01*
X118182Y28000D01*
X122000D01*
Y31818D01*
X121365Y31735D01*
X120308Y31297D01*
X119486Y30666D01*
X119125Y30868D01*
X119056Y30935D01*
X119235Y31365D01*
X119318Y32000D01*
D02*
G37*
G36*
X115500Y36818D02*
Y33000D01*
X119318D01*
X119235Y33635D01*
X118797Y34692D01*
X118100Y35600D01*
X117192Y36297D01*
X116135Y36735D01*
X115500Y36818D01*
D02*
G37*
G36*
X181969Y61503D02*
X178032D01*
X176996Y61366D01*
X176030Y60966D01*
X175201Y60330D01*
X174565Y59501D01*
X174165Y58536D01*
X174029Y57500D01*
X174165Y56464D01*
X174565Y55499D01*
X174948Y55000D01*
X174565Y54501D01*
X174165Y53536D01*
X174029Y52500D01*
X174165Y51464D01*
X174565Y50499D01*
X174948Y50000D01*
X174565Y49501D01*
X174165Y48536D01*
X174029Y47500D01*
X174165Y46464D01*
X174565Y45499D01*
X175201Y44670D01*
X176030Y44034D01*
X176996Y43634D01*
X178032Y43497D01*
X181969D01*
X183004Y43634D01*
X183970Y44034D01*
X184799Y44670D01*
X185435Y45499D01*
X185835Y46464D01*
X185971Y47500D01*
X185835Y48536D01*
X185435Y49501D01*
X185052Y50000D01*
X185435Y50499D01*
X185835Y51464D01*
X185971Y52500D01*
X185853Y53395D01*
X186061Y53771D01*
X186213Y53929D01*
X186417Y53947D01*
X191722Y48642D01*
Y33858D01*
X188642Y30778D01*
X187665D01*
X187419Y31278D01*
X188129Y32204D01*
X188688Y33553D01*
X188879Y35000D01*
X188688Y36447D01*
X188129Y37796D01*
X187241Y38954D01*
X186083Y39842D01*
X184734Y40401D01*
X183288Y40591D01*
X181713D01*
X180266Y40401D01*
X178917Y39842D01*
X177759Y38954D01*
X176871Y37796D01*
X176312Y36447D01*
X176121Y35000D01*
X176312Y33553D01*
X176353Y33453D01*
X176049Y33057D01*
X175787Y33091D01*
X174213D01*
X172970Y32928D01*
X172598Y33338D01*
X172709Y33604D01*
X172893Y35000D01*
X172709Y36396D01*
X172170Y37696D01*
X171313Y38813D01*
X170196Y39670D01*
X168896Y40209D01*
X167500Y40393D01*
X166104Y40209D01*
X164804Y39670D01*
X163687Y38813D01*
X162830Y37696D01*
X162291Y36396D01*
X162108Y35000D01*
X162291Y33604D01*
X162383Y33382D01*
X162068Y32836D01*
X161104Y32709D01*
X159804Y32170D01*
X158687Y31313D01*
X157830Y30196D01*
X157291Y28896D01*
X157107Y27500D01*
X157291Y26104D01*
X157830Y24804D01*
X158687Y23687D01*
X159804Y22830D01*
X161104Y22291D01*
X162160Y22152D01*
X162160D01*
X162350Y22127D01*
Y22125D01*
Y22110D01*
Y22083D01*
Y21667D01*
Y21640D01*
Y21625D01*
Y21623D01*
X162160Y21598D01*
X162160D01*
X161104Y21459D01*
X159804Y20920D01*
X158687Y20063D01*
X157830Y18946D01*
X157291Y17646D01*
X157107Y16250D01*
X157291Y14854D01*
X157830Y13554D01*
X158687Y12437D01*
X159804Y11580D01*
X161104Y11041D01*
X162500Y10858D01*
X163896Y11041D01*
X165196Y11580D01*
X166313Y12437D01*
X167170Y13554D01*
X167709Y14854D01*
X167893Y16250D01*
X167709Y17646D01*
X167170Y18946D01*
X166313Y20063D01*
X165196Y20920D01*
X163896Y21459D01*
X162840Y21598D01*
X162840D01*
X162650Y21623D01*
Y21625D01*
Y21640D01*
Y21667D01*
Y22083D01*
Y22110D01*
Y22125D01*
Y22127D01*
X162840Y22152D01*
X162840D01*
X163896Y22291D01*
X165196Y22830D01*
X166313Y23687D01*
X167170Y24804D01*
X167709Y26104D01*
X167893Y27500D01*
X167709Y28896D01*
X167617Y29118D01*
X167932Y29664D01*
X168605Y29753D01*
X168956Y29295D01*
X168812Y28947D01*
X168622Y27500D01*
X168812Y26053D01*
X169371Y24704D01*
X170259Y23547D01*
X171417Y22658D01*
X172766Y22099D01*
X174213Y21909D01*
X175787D01*
X176049Y21943D01*
X176353Y21547D01*
X176312Y21447D01*
X176121Y20000D01*
X176312Y18553D01*
X176871Y17205D01*
X177759Y16047D01*
X178917Y15158D01*
X180266Y14599D01*
X181713Y14409D01*
X183288D01*
X184734Y14599D01*
X186083Y15158D01*
X187241Y16047D01*
X188129Y17205D01*
X188688Y18553D01*
X188879Y20000D01*
X188688Y21447D01*
X188129Y22796D01*
X187419Y23722D01*
X187665Y24222D01*
X190000D01*
X190424Y24278D01*
X190849Y24334D01*
X191244Y24498D01*
X191639Y24661D01*
X192318Y25182D01*
X197318Y30182D01*
X197839Y30861D01*
X198166Y31652D01*
X198278Y32500D01*
Y50000D01*
X198222Y50424D01*
X198166Y50849D01*
X198003Y51244D01*
X197839Y51639D01*
X197544Y52023D01*
X197318Y52318D01*
X189818Y59818D01*
X189139Y60339D01*
X188744Y60503D01*
X188348Y60666D01*
X187924Y60722D01*
X187500Y60778D01*
X184215D01*
X183970Y60966D01*
X183004Y61366D01*
X181969Y61503D01*
D02*
G37*
G36*
X123000Y31818D02*
Y28000D01*
X126818D01*
X126735Y28635D01*
X126297Y29692D01*
X125600Y30600D01*
X124692Y31297D01*
X123635Y31735D01*
X123000Y31818D01*
D02*
G37*
G36*
X365000Y83606D02*
X364067Y83483D01*
X363197Y83123D01*
X362451Y82550D01*
X361877Y81803D01*
X361517Y80933D01*
X361394Y80000D01*
X361517Y79067D01*
X361877Y78197D01*
X362451Y77451D01*
X363197Y76877D01*
X364067Y76517D01*
X365000Y76394D01*
X365933Y76517D01*
X366803Y76877D01*
X367550Y77451D01*
X368123Y78197D01*
X368483Y79067D01*
X368606Y80000D01*
X368483Y80933D01*
X368123Y81803D01*
X367550Y82550D01*
X366803Y83123D01*
X365933Y83483D01*
X365000Y83606D01*
D02*
G37*
G36*
X147250Y174534D02*
X145878Y174399D01*
X144558Y173998D01*
X143342Y173348D01*
X142276Y172474D01*
X141885Y171997D01*
X141385Y172005D01*
X141204Y172241D01*
X140046Y173129D01*
X138697Y173688D01*
X137250Y173879D01*
X135803Y173688D01*
X134455Y173129D01*
X133297Y172241D01*
X132554Y171274D01*
X132472Y171240D01*
X132028D01*
X131946Y171274D01*
X131204Y172241D01*
X130046Y173129D01*
X128697Y173688D01*
X127250Y173879D01*
X125803Y173688D01*
X124454Y173129D01*
X123296Y172241D01*
X122408Y171083D01*
X121849Y169735D01*
X121659Y168288D01*
Y166713D01*
X121849Y165266D01*
X122408Y163917D01*
X123296Y162759D01*
X124454Y161871D01*
X125803Y161312D01*
X127250Y161121D01*
X128697Y161312D01*
X130046Y161871D01*
X131204Y162759D01*
X131946Y163726D01*
X132028Y163760D01*
X132472D01*
X132554Y163726D01*
X133297Y162759D01*
X134455Y161871D01*
X135803Y161312D01*
X137250Y161121D01*
X138697Y161312D01*
X139716Y161734D01*
X140216Y161400D01*
Y137664D01*
X122087Y119534D01*
X77012D01*
X76791Y119982D01*
X76812Y120010D01*
X77310Y121211D01*
X77414Y122000D01*
X67586D01*
X67690Y121211D01*
X68188Y120010D01*
X68209Y119982D01*
X67988Y119534D01*
X42034D01*
Y135000D01*
X41899Y136372D01*
X41499Y137692D01*
X40848Y138908D01*
X39974Y139974D01*
X38908Y140849D01*
X37692Y141498D01*
X36372Y141899D01*
X35000Y142034D01*
X33628Y141899D01*
X32308Y141498D01*
X31092Y140849D01*
X30026Y139974D01*
X29152Y138908D01*
X28502Y137692D01*
X28101Y136372D01*
X27966Y135000D01*
Y112914D01*
X8490Y93437D01*
X6563D01*
Y91242D01*
X6002Y90192D01*
X5601Y88872D01*
X5466Y87500D01*
X5601Y86128D01*
X6002Y84808D01*
X6563Y83758D01*
Y81563D01*
X8758D01*
X9808Y81002D01*
X11128Y80601D01*
X12500Y80466D01*
X13872Y80601D01*
X15192Y81002D01*
X16242Y81563D01*
X18437D01*
Y83490D01*
X40414Y105466D01*
X88642D01*
X88863Y105018D01*
X88689Y104791D01*
X88231Y103686D01*
X88141Y103000D01*
X97174D01*
X97084Y103686D01*
X96626Y104791D01*
X96452Y105018D01*
X96674Y105466D01*
X105466D01*
Y102657D01*
X105601Y101285D01*
X106002Y99966D01*
X106652Y98750D01*
X107526Y97684D01*
X108592Y96809D01*
X109808Y96159D01*
X111128Y95759D01*
X112500Y95624D01*
X113872Y95759D01*
X115192Y96159D01*
X116408Y96809D01*
X117474Y97684D01*
X118349Y98750D01*
X118999Y99966D01*
X119399Y101285D01*
X119534Y102657D01*
Y105466D01*
X125000D01*
X126372Y105601D01*
X127692Y106002D01*
X128908Y106652D01*
X129974Y107526D01*
X152224Y129776D01*
X153098Y130842D01*
X153749Y132058D01*
X154149Y133378D01*
X154284Y134750D01*
Y137664D01*
X154732Y137885D01*
X154804Y137830D01*
X156104Y137291D01*
X157500Y137108D01*
X158896Y137291D01*
X160082Y137783D01*
X190693Y107171D01*
X190363Y106794D01*
X190097Y106998D01*
X188844Y107517D01*
X187500Y107694D01*
X186156Y107517D01*
X184903Y106998D01*
X183827Y106173D01*
X183002Y105097D01*
X182483Y103844D01*
X182306Y102500D01*
X182483Y101156D01*
X183002Y99903D01*
X183827Y98827D01*
X184903Y98002D01*
X186156Y97483D01*
X187500Y97306D01*
X188844Y97483D01*
X190097Y98002D01*
X191173Y98827D01*
X191998Y99903D01*
X192517Y101156D01*
X192694Y102500D01*
X192517Y103844D01*
X191998Y105097D01*
X191794Y105363D01*
X192171Y105693D01*
X199696Y98169D01*
X199608Y97500D01*
X199791Y96104D01*
X200330Y94804D01*
X201187Y93687D01*
X202304Y92830D01*
X203604Y92291D01*
X205000Y92107D01*
X206396Y92291D01*
X207696Y92830D01*
X208813Y93687D01*
X209670Y94804D01*
X210209Y96104D01*
X210393Y97500D01*
X210209Y98896D01*
X209670Y100196D01*
X208813Y101313D01*
X207696Y102170D01*
X206396Y102709D01*
X205000Y102893D01*
X204331Y102805D01*
X202378Y104758D01*
X202661Y105182D01*
X203604Y104791D01*
X205000Y104607D01*
X206396Y104791D01*
X207696Y105330D01*
X208813Y106187D01*
X209670Y107304D01*
X210209Y108604D01*
X210393Y110000D01*
X210209Y111396D01*
X209670Y112696D01*
X208813Y113813D01*
X207696Y114670D01*
X206396Y115209D01*
X205000Y115393D01*
X203604Y115209D01*
X202304Y114670D01*
X201187Y113813D01*
X200330Y112696D01*
X199791Y111396D01*
X199608Y110000D01*
X199791Y108604D01*
X200182Y107661D01*
X199758Y107378D01*
X162333Y144803D01*
X162170Y145196D01*
X161313Y146313D01*
X160196Y147170D01*
X160003Y147250D01*
Y147750D01*
X160196Y147830D01*
X161313Y148687D01*
X161724Y149222D01*
X237392D01*
X238796Y147819D01*
X238569Y147339D01*
X237500Y147444D01*
X235950Y147291D01*
X234460Y146839D01*
X233087Y146105D01*
X231883Y145117D01*
X230895Y143913D01*
X230161Y142540D01*
X229709Y141050D01*
X229556Y139500D01*
X229709Y137950D01*
X230161Y136460D01*
X230895Y135087D01*
X231883Y133883D01*
X233087Y132895D01*
X234460Y132161D01*
X235950Y131709D01*
X237500Y131556D01*
X239050Y131709D01*
X240540Y132161D01*
X241913Y132895D01*
X243117Y133883D01*
X244105Y135087D01*
X244839Y136460D01*
X245291Y137950D01*
X245444Y139500D01*
X245339Y140569D01*
X245819Y140796D01*
X251722Y134892D01*
Y108858D01*
X250242Y107378D01*
X249818Y107661D01*
X250209Y108604D01*
X250393Y110000D01*
X250209Y111396D01*
X249670Y112696D01*
X248813Y113813D01*
X247696Y114670D01*
X246396Y115209D01*
X245000Y115393D01*
X243604Y115209D01*
X242304Y114670D01*
X241187Y113813D01*
X240776Y113278D01*
X237500D01*
X236652Y113166D01*
X235861Y112839D01*
X235477Y112544D01*
X235182Y112318D01*
X210364Y87500D01*
X204000D01*
Y83636D01*
X198642Y78278D01*
X192650D01*
Y87650D01*
X182351D01*
Y78278D01*
X171724D01*
X171313Y78813D01*
X170196Y79670D01*
X168896Y80209D01*
X167932Y80336D01*
X167617Y80882D01*
X167709Y81104D01*
X167893Y82500D01*
X167709Y83896D01*
X167170Y85196D01*
X166313Y86313D01*
X165196Y87170D01*
X163896Y87709D01*
X162500Y87893D01*
X161104Y87709D01*
X159804Y87170D01*
X158687Y86313D01*
X157830Y85196D01*
X157291Y83896D01*
X157107Y82500D01*
X157291Y81104D01*
X157830Y79804D01*
X158687Y78687D01*
X159804Y77830D01*
X161104Y77291D01*
X162068Y77164D01*
X162383Y76618D01*
X162291Y76396D01*
X162108Y75000D01*
X162291Y73604D01*
X162830Y72304D01*
X163687Y71187D01*
X164804Y70330D01*
X166104Y69791D01*
X167500Y69608D01*
X168896Y69791D01*
X170196Y70330D01*
X171313Y71187D01*
X171724Y71722D01*
X200000D01*
X200424Y71778D01*
X200849Y71834D01*
X201244Y71997D01*
X201639Y72161D01*
X202318Y72682D01*
X203654Y74018D01*
X204104Y73809D01*
X204126Y73783D01*
X203957Y72500D01*
X204129Y71195D01*
X204633Y69978D01*
X205434Y68934D01*
X206479Y68133D01*
X207695Y67629D01*
X209000Y67457D01*
X211000D01*
X212305Y67629D01*
X213522Y68133D01*
X214566Y68934D01*
X215368Y69978D01*
X215871Y71195D01*
X216043Y72500D01*
X215871Y73805D01*
X215368Y75022D01*
X214566Y76066D01*
X213522Y76868D01*
X213202Y77000D01*
X213301Y77500D01*
X216000D01*
Y83864D01*
X238858Y106722D01*
X240776D01*
X241187Y106187D01*
X242304Y105330D01*
X243604Y104791D01*
X245000Y104607D01*
X246396Y104791D01*
X247339Y105182D01*
X247622Y104758D01*
X245669Y102805D01*
X245000Y102893D01*
X243604Y102709D01*
X242304Y102170D01*
X241187Y101313D01*
X240330Y100196D01*
X239791Y98896D01*
X239608Y97500D01*
X239791Y96104D01*
X240330Y94804D01*
X241187Y93687D01*
X242304Y92830D01*
X243604Y92291D01*
X245000Y92107D01*
X246396Y92291D01*
X247696Y92830D01*
X248813Y93687D01*
X249670Y94804D01*
X250209Y96104D01*
X250393Y97500D01*
X250305Y98169D01*
X250766Y98630D01*
X251239Y98397D01*
X251121Y97500D01*
X251312Y96053D01*
X251871Y94705D01*
X252759Y93546D01*
X253917Y92658D01*
X255265Y92099D01*
X256713Y91909D01*
X258288D01*
X258549Y91943D01*
X258853Y91547D01*
X258812Y91447D01*
X258622Y90000D01*
X258812Y88553D01*
X259265Y87458D01*
X258923Y86999D01*
X258288Y87083D01*
X258000D01*
Y83000D01*
X262804D01*
X262714Y83686D01*
X262517Y84161D01*
X262620Y84343D01*
X262883Y84584D01*
X264213Y84409D01*
X265788D01*
X267234Y84599D01*
X268583Y85158D01*
X269741Y86046D01*
X270630Y87204D01*
X271188Y88553D01*
X271379Y90000D01*
X271188Y91447D01*
X270630Y92796D01*
X269741Y93954D01*
X268583Y94842D01*
X267234Y95401D01*
X265788Y95591D01*
X264213D01*
X263951Y95557D01*
X263647Y95953D01*
X263688Y96053D01*
X263879Y97500D01*
X263688Y98947D01*
X263129Y100296D01*
X262241Y101454D01*
X261083Y102342D01*
X259735Y102901D01*
X258288Y103091D01*
X256713D01*
X255816Y102973D01*
X255583Y103447D01*
X257318Y105182D01*
X257613Y105566D01*
X257839Y105861D01*
X257935Y106093D01*
X258166Y106652D01*
X258278Y107500D01*
Y136250D01*
X258222Y136674D01*
X258166Y137099D01*
X258003Y137494D01*
X257839Y137889D01*
X257318Y138568D01*
X241068Y154818D01*
X240389Y155339D01*
X239994Y155503D01*
X239598Y155666D01*
X239174Y155722D01*
X238750Y155778D01*
X161724D01*
X161313Y156313D01*
X160196Y157170D01*
X158896Y157709D01*
X157500Y157893D01*
X156104Y157709D01*
X154804Y157170D01*
X154732Y157115D01*
X154284Y157336D01*
Y167500D01*
X154149Y168872D01*
X153749Y170192D01*
X153098Y171408D01*
X152224Y172474D01*
X151158Y173348D01*
X149942Y173998D01*
X148622Y174399D01*
X147250Y174534D01*
D02*
G37*
G36*
X30126Y179520D02*
Y170185D01*
X34606D01*
Y174606D01*
X34436Y175895D01*
X33939Y177096D01*
X33147Y178128D01*
X32116Y178919D01*
X30915Y179416D01*
X30126Y179520D01*
D02*
G37*
G36*
X29126D02*
X28337Y179416D01*
X27136Y178919D01*
X26105Y178128D01*
X25314Y177096D01*
X24816Y175895D01*
X24646Y174606D01*
Y170185D01*
X29126D01*
Y179520D01*
D02*
G37*
G36*
X88125Y190444D02*
X86575Y190291D01*
X85085Y189839D01*
X83712Y189105D01*
X82508Y188117D01*
X81520Y186913D01*
X80786Y185540D01*
X80334Y184050D01*
X80181Y182500D01*
X80334Y180950D01*
X80786Y179460D01*
X81520Y178087D01*
X82508Y176883D01*
X83712Y175895D01*
X85085Y175161D01*
X86575Y174709D01*
X88125Y174556D01*
X89675Y174709D01*
X91165Y175161D01*
X92538Y175895D01*
X93742Y176883D01*
X94730Y178087D01*
X95464Y179460D01*
X95916Y180950D01*
X96069Y182500D01*
X95916Y184050D01*
X95464Y185540D01*
X94730Y186913D01*
X93742Y188117D01*
X92538Y189105D01*
X91165Y189839D01*
X89675Y190291D01*
X88125Y190444D01*
D02*
G37*
G36*
X260000Y200444D02*
X258450Y200291D01*
X256960Y199839D01*
X255587Y199105D01*
X254383Y198117D01*
X253395Y196913D01*
X252661Y195540D01*
X252209Y194050D01*
X252056Y192500D01*
X252209Y190950D01*
X252661Y189460D01*
X253395Y188087D01*
X254383Y186883D01*
X255587Y185895D01*
X256960Y185161D01*
X258450Y184709D01*
X260000Y184556D01*
X261550Y184709D01*
X263040Y185161D01*
X264413Y185895D01*
X265617Y186883D01*
X266605Y188087D01*
X267339Y189460D01*
X267791Y190950D01*
X267944Y192500D01*
X267791Y194050D01*
X267339Y195540D01*
X266605Y196913D01*
X265617Y198117D01*
X264413Y199105D01*
X263040Y199839D01*
X261550Y200291D01*
X260000Y200444D01*
D02*
G37*
G36*
X220000D02*
X218450Y200291D01*
X216960Y199839D01*
X215587Y199105D01*
X214383Y198117D01*
X213395Y196913D01*
X212661Y195540D01*
X212209Y194050D01*
X212056Y192500D01*
X212209Y190950D01*
X212661Y189460D01*
X213395Y188087D01*
X214383Y186883D01*
X215587Y185895D01*
X216960Y185161D01*
X218450Y184709D01*
X220000Y184556D01*
X221550Y184709D01*
X223040Y185161D01*
X224413Y185895D01*
X225617Y186883D01*
X226605Y188087D01*
X227339Y189460D01*
X227791Y190950D01*
X227944Y192500D01*
X227791Y194050D01*
X227339Y195540D01*
X226605Y196913D01*
X225617Y198117D01*
X224413Y199105D01*
X223040Y199839D01*
X221550Y200291D01*
X220000Y200444D01*
D02*
G37*
G36*
X186250Y190444D02*
X184700Y190291D01*
X183210Y189839D01*
X181837Y189105D01*
X180633Y188117D01*
X179645Y186913D01*
X178911Y185540D01*
X178459Y184050D01*
X178306Y182500D01*
X178459Y180950D01*
X178911Y179460D01*
X179645Y178087D01*
X180633Y176883D01*
X181837Y175895D01*
X183210Y175161D01*
X184700Y174709D01*
X186250Y174556D01*
X187800Y174709D01*
X189290Y175161D01*
X190663Y175895D01*
X191867Y176883D01*
X192855Y178087D01*
X193589Y179460D01*
X194041Y180950D01*
X194194Y182500D01*
X194041Y184050D01*
X193589Y185540D01*
X192855Y186913D01*
X191867Y188117D01*
X190663Y189105D01*
X189290Y189839D01*
X187800Y190291D01*
X186250Y190444D01*
D02*
G37*
G36*
X34606Y169185D02*
X30126D01*
Y159850D01*
X30915Y159954D01*
X32116Y160451D01*
X33147Y161243D01*
X33939Y162274D01*
X34436Y163475D01*
X34606Y164764D01*
Y169185D01*
D02*
G37*
G36*
X45374Y154980D02*
X41937D01*
Y150500D01*
X50288D01*
X50184Y151289D01*
X49687Y152490D01*
X48895Y153521D01*
X47864Y154313D01*
X46663Y154810D01*
X45374Y154980D01*
D02*
G37*
G36*
X40937D02*
X37500D01*
X36211Y154810D01*
X35010Y154313D01*
X33979Y153521D01*
X33188Y152490D01*
X32690Y151289D01*
X32586Y150500D01*
X40937D01*
Y154980D01*
D02*
G37*
G36*
X50288Y149500D02*
X41937D01*
Y145020D01*
X45374D01*
X46663Y145190D01*
X47864Y145688D01*
X48895Y146479D01*
X49687Y147510D01*
X50184Y148711D01*
X50288Y149500D01*
D02*
G37*
G36*
X364500Y159500D02*
X360483D01*
X360574Y158814D01*
X361032Y157709D01*
X361760Y156760D01*
X362709Y156032D01*
X363814Y155574D01*
X364500Y155483D01*
Y159500D01*
D02*
G37*
G36*
X29126Y169185D02*
X24646D01*
Y164764D01*
X24816Y163475D01*
X25314Y162274D01*
X26105Y161243D01*
X27136Y160451D01*
X28337Y159954D01*
X29126Y159850D01*
Y169185D01*
D02*
G37*
G36*
X54036Y180572D02*
X52872Y180457D01*
X51753Y180118D01*
X50721Y179567D01*
X49817Y178825D01*
X49075Y177921D01*
X48524Y176889D01*
X48184Y175770D01*
X48070Y174606D01*
Y164764D01*
X48184Y163600D01*
X48524Y162481D01*
X49075Y161449D01*
X49817Y160545D01*
X50721Y159803D01*
X51753Y159252D01*
X52872Y158913D01*
X54036Y158798D01*
X55199Y158913D01*
X56318Y159252D01*
X57350Y159803D01*
X58254Y160545D01*
X58996Y161449D01*
X59547Y162481D01*
X59887Y163600D01*
X60001Y164764D01*
Y174606D01*
X59887Y175770D01*
X59547Y176889D01*
X58996Y177921D01*
X58254Y178825D01*
X57350Y179567D01*
X56318Y180118D01*
X55199Y180457D01*
X54036Y180572D01*
D02*
G37*
G36*
X369517Y159500D02*
X365500D01*
Y155483D01*
X366186Y155574D01*
X367291Y156032D01*
X368240Y156760D01*
X368969Y157709D01*
X369426Y158814D01*
X369517Y159500D01*
D02*
G37*
G36*
X148958Y199500D02*
X144875D01*
Y194696D01*
X145561Y194786D01*
X146666Y195244D01*
X147615Y195972D01*
X148344Y196921D01*
X148801Y198027D01*
X148958Y199213D01*
Y199500D01*
D02*
G37*
G36*
X129375Y206379D02*
X127928Y206188D01*
X126579Y205629D01*
X125422Y204741D01*
X124533Y203583D01*
X123974Y202235D01*
X123784Y200787D01*
Y199213D01*
X123974Y197766D01*
X124533Y196417D01*
X124670Y196239D01*
X124624Y195987D01*
X124449Y195705D01*
X124152Y195666D01*
X123756Y195503D01*
X123361Y195339D01*
X122977Y195044D01*
X122682Y194818D01*
X115182Y187318D01*
X114661Y186639D01*
X114497Y186244D01*
X114334Y185848D01*
X114278Y185424D01*
X114222Y185000D01*
Y156724D01*
X113687Y156313D01*
X112830Y155196D01*
X112291Y153896D01*
X112108Y152500D01*
X112291Y151104D01*
X112830Y149804D01*
X113687Y148687D01*
X114804Y147830D01*
X114997Y147750D01*
Y147250D01*
X114804Y147170D01*
X113687Y146313D01*
X112830Y145196D01*
X112291Y143896D01*
X112108Y142500D01*
X112291Y141104D01*
X112830Y139804D01*
X113687Y138687D01*
X114804Y137830D01*
X116104Y137291D01*
X117500Y137108D01*
X118896Y137291D01*
X120196Y137830D01*
X121313Y138687D01*
X122170Y139804D01*
X122709Y141104D01*
X122893Y142500D01*
X122709Y143896D01*
X122170Y145196D01*
X121313Y146313D01*
X120196Y147170D01*
X120003Y147250D01*
Y147750D01*
X120196Y147830D01*
X121313Y148687D01*
X122170Y149804D01*
X122709Y151104D01*
X122893Y152500D01*
X122709Y153896D01*
X122170Y155196D01*
X121313Y156313D01*
X120778Y156724D01*
Y183642D01*
X126358Y189222D01*
X131907D01*
X132033Y188917D01*
X132922Y187759D01*
X134080Y186871D01*
X135428Y186312D01*
X136875Y186121D01*
X138322Y186312D01*
X139671Y186871D01*
X140829Y187759D01*
X141717Y188917D01*
X142276Y190266D01*
X142466Y191713D01*
Y193288D01*
X142291Y194617D01*
X142532Y194880D01*
X142714Y194983D01*
X143189Y194786D01*
X143875Y194696D01*
Y199500D01*
X139793D01*
Y199213D01*
X139876Y198577D01*
X139417Y198235D01*
X138322Y198688D01*
X136875Y198879D01*
X135428Y198688D01*
X135328Y198647D01*
X134932Y198951D01*
X134966Y199213D01*
Y200787D01*
X134776Y202235D01*
X134217Y203583D01*
X133329Y204741D01*
X132171Y205629D01*
X130822Y206188D01*
X129375Y206379D01*
D02*
G37*
G36*
X12500Y209194D02*
X10950Y209041D01*
X9460Y208589D01*
X8087Y207855D01*
X6883Y206867D01*
X5895Y205663D01*
X5161Y204290D01*
X4709Y202800D01*
X4556Y201250D01*
X4709Y199700D01*
X5161Y198210D01*
X5895Y196837D01*
X6883Y195633D01*
X8087Y194645D01*
X9460Y193911D01*
X10950Y193459D01*
X12500Y193306D01*
X14050Y193459D01*
X15540Y193911D01*
X16913Y194645D01*
X18117Y195633D01*
X19105Y196837D01*
X19839Y198210D01*
X20291Y199700D01*
X20444Y201250D01*
X20291Y202800D01*
X19839Y204290D01*
X19105Y205663D01*
X18117Y206867D01*
X16913Y207855D01*
X15540Y208589D01*
X14050Y209041D01*
X12500Y209194D01*
D02*
G37*
G36*
X344500Y203250D02*
X341079D01*
X341149Y202718D01*
X341547Y201757D01*
X342181Y200931D01*
X343007Y200297D01*
X343968Y199899D01*
X344500Y199829D01*
Y203250D01*
D02*
G37*
G36*
X144875Y205304D02*
Y200500D01*
X148958D01*
Y200787D01*
X148801Y201974D01*
X148344Y203079D01*
X147615Y204028D01*
X146666Y204756D01*
X145561Y205214D01*
X144875Y205304D01*
D02*
G37*
G36*
X143875D02*
X143189Y205214D01*
X142084Y204756D01*
X141135Y204028D01*
X140407Y203079D01*
X139949Y201974D01*
X139793Y200787D01*
Y200500D01*
X143875D01*
Y205304D01*
D02*
G37*
G36*
X348921Y203250D02*
X345500D01*
Y199829D01*
X346032Y199899D01*
X346993Y200297D01*
X347819Y200931D01*
X348453Y201757D01*
X348851Y202718D01*
X348921Y203250D01*
D02*
G37*
G36*
X280500Y199390D02*
Y193000D01*
X286890D01*
X286806Y193854D01*
X286411Y195156D01*
X285770Y196355D01*
X284907Y197407D01*
X283855Y198270D01*
X282656Y198911D01*
X281354Y199306D01*
X280500Y199390D01*
D02*
G37*
G36*
X279500Y192000D02*
X273110D01*
X273195Y191146D01*
X273589Y189845D01*
X274231Y188645D01*
X275094Y187593D01*
X276145Y186731D01*
X277345Y186089D01*
X278646Y185695D01*
X279500Y185610D01*
Y192000D01*
D02*
G37*
G36*
X246890D02*
X240500D01*
Y185610D01*
X241354Y185695D01*
X242655Y186089D01*
X243855Y186731D01*
X244907Y187593D01*
X245770Y188645D01*
X246411Y189845D01*
X246806Y191146D01*
X246890Y192000D01*
D02*
G37*
G36*
X239500D02*
X233110D01*
X233194Y191146D01*
X233589Y189845D01*
X234230Y188645D01*
X235093Y187593D01*
X236145Y186731D01*
X237345Y186089D01*
X238646Y185695D01*
X239500Y185610D01*
Y192000D01*
D02*
G37*
G36*
X286890D02*
X280500D01*
Y185610D01*
X281354Y185695D01*
X282656Y186089D01*
X283855Y186731D01*
X284907Y187593D01*
X285770Y188645D01*
X286411Y189845D01*
X286806Y191146D01*
X286890Y192000D01*
D02*
G37*
G36*
X279500Y199390D02*
X278646Y199306D01*
X277345Y198911D01*
X276145Y198270D01*
X275094Y197407D01*
X274231Y196355D01*
X273589Y195156D01*
X273195Y193854D01*
X273110Y193000D01*
X279500D01*
Y199390D01*
D02*
G37*
G36*
X240500D02*
Y193000D01*
X246890D01*
X246806Y193854D01*
X246411Y195156D01*
X245770Y196355D01*
X244907Y197407D01*
X243855Y198270D01*
X242655Y198911D01*
X241354Y199306D01*
X240500Y199390D01*
D02*
G37*
G36*
X239500D02*
X238646Y199306D01*
X237345Y198911D01*
X236145Y198270D01*
X235093Y197407D01*
X234230Y196355D01*
X233589Y195156D01*
X233194Y193854D01*
X233110Y193000D01*
X239500D01*
Y199390D01*
D02*
G37*
G36*
X365000Y115591D02*
X363553Y115401D01*
X362205Y114842D01*
X361047Y113954D01*
X360158Y112796D01*
X359599Y111447D01*
X359409Y110000D01*
X359599Y108553D01*
X360158Y107204D01*
X361047Y106046D01*
X362014Y105304D01*
X362048Y105222D01*
Y104778D01*
X362014Y104696D01*
X361047Y103954D01*
X360158Y102796D01*
X359599Y101447D01*
X359409Y100000D01*
X359599Y98553D01*
X360158Y97205D01*
X361047Y96047D01*
X362205Y95158D01*
X363553Y94599D01*
X365000Y94409D01*
X366447Y94599D01*
X367796Y95158D01*
X368954Y96047D01*
X369842Y97205D01*
X370401Y98553D01*
X370591Y100000D01*
X370401Y101447D01*
X369842Y102796D01*
X368954Y103954D01*
X367986Y104696D01*
X367952Y104778D01*
Y105222D01*
X367986Y105304D01*
X368954Y106046D01*
X369842Y107204D01*
X370401Y108553D01*
X370591Y110000D01*
X370401Y111447D01*
X369842Y112796D01*
X368954Y113954D01*
X367796Y114842D01*
X366447Y115401D01*
X365000Y115591D01*
D02*
G37*
G36*
X142650Y102650D02*
X132351D01*
Y92351D01*
X142650D01*
Y102650D01*
D02*
G37*
G36*
X157500Y102694D02*
X156156Y102517D01*
X154903Y101998D01*
X153827Y101173D01*
X153002Y100097D01*
X152483Y98844D01*
X152306Y97500D01*
X152483Y96156D01*
X153002Y94903D01*
X153827Y93827D01*
X154903Y93002D01*
X156156Y92483D01*
X157500Y92306D01*
X158844Y92483D01*
X160097Y93002D01*
X161173Y93827D01*
X161998Y94903D01*
X162517Y96156D01*
X162694Y97500D01*
X162517Y98844D01*
X161998Y100097D01*
X161173Y101173D01*
X160097Y101998D01*
X158844Y102517D01*
X157500Y102694D01*
D02*
G37*
G36*
X92158Y102000D02*
X88141D01*
X88231Y101314D01*
X88689Y100209D01*
X89417Y99260D01*
X90366Y98532D01*
X91471Y98074D01*
X92158Y97983D01*
Y102000D01*
D02*
G37*
G36*
X378250Y109500D02*
X374797D01*
Y106047D01*
X378250D01*
Y109500D01*
D02*
G37*
G36*
X147500Y112694D02*
X146156Y112517D01*
X144903Y111998D01*
X143827Y111173D01*
X143002Y110097D01*
X142483Y108844D01*
X142306Y107500D01*
X142483Y106156D01*
X143002Y104903D01*
X143827Y103827D01*
X144903Y103002D01*
X146156Y102483D01*
X147500Y102306D01*
X148844Y102483D01*
X150097Y103002D01*
X151173Y103827D01*
X151998Y104903D01*
X152517Y106156D01*
X152694Y107500D01*
X152517Y108844D01*
X151998Y110097D01*
X151173Y111173D01*
X150097Y111998D01*
X148844Y112517D01*
X147500Y112694D01*
D02*
G37*
G36*
X97174Y102000D02*
X93158D01*
Y97983D01*
X93844Y98074D01*
X94949Y98532D01*
X95898Y99260D01*
X96626Y100209D01*
X97084Y101314D01*
X97174Y102000D01*
D02*
G37*
G36*
X177500Y97694D02*
X176156Y97517D01*
X174903Y96998D01*
X173827Y96173D01*
X173002Y95097D01*
X172483Y93844D01*
X172306Y92500D01*
X172483Y91156D01*
X173002Y89903D01*
X173827Y88827D01*
X174903Y88002D01*
X176156Y87483D01*
X177500Y87306D01*
X178844Y87483D01*
X180097Y88002D01*
X181173Y88827D01*
X181998Y89903D01*
X182517Y91156D01*
X182694Y92500D01*
X182517Y93844D01*
X181998Y95097D01*
X181173Y96173D01*
X180097Y96998D01*
X178844Y97517D01*
X177500Y97694D01*
D02*
G37*
G36*
X257000Y82000D02*
X252196D01*
X252286Y81314D01*
X252744Y80209D01*
X253472Y79260D01*
X254421Y78531D01*
X255527Y78074D01*
X256713Y77918D01*
X257000D01*
Y82000D01*
D02*
G37*
G36*
X241000Y87543D02*
X239000D01*
X237695Y87371D01*
X236478Y86867D01*
X235434Y86066D01*
X234633Y85022D01*
X234129Y83805D01*
X233957Y82500D01*
X234129Y81195D01*
X234633Y79979D01*
X235434Y78934D01*
X236478Y78133D01*
X237695Y77629D01*
X239000Y77457D01*
X241000D01*
X242305Y77629D01*
X243522Y78133D01*
X244566Y78934D01*
X245368Y79979D01*
X245871Y81195D01*
X246043Y82500D01*
X245871Y83805D01*
X245368Y85022D01*
X244566Y86066D01*
X243522Y86867D01*
X242305Y87371D01*
X241000Y87543D01*
D02*
G37*
G36*
X122500Y87893D02*
X121104Y87709D01*
X119804Y87170D01*
X118687Y86313D01*
X117830Y85196D01*
X117291Y83896D01*
X117107Y82500D01*
X117291Y81104D01*
X117830Y79804D01*
X118687Y78687D01*
X119804Y77830D01*
X121104Y77291D01*
X122500Y77108D01*
X123896Y77291D01*
X125196Y77830D01*
X126313Y78687D01*
X127170Y79804D01*
X127709Y81104D01*
X127893Y82500D01*
X127709Y83896D01*
X127170Y85196D01*
X126313Y86313D01*
X125196Y87170D01*
X123896Y87709D01*
X122500Y87893D01*
D02*
G37*
G36*
X262804Y82000D02*
X258000D01*
Y77918D01*
X258288D01*
X259473Y78074D01*
X260579Y78531D01*
X261528Y79260D01*
X262256Y80209D01*
X262714Y81314D01*
X262804Y82000D01*
D02*
G37*
G36*
X365000Y93606D02*
X364067Y93483D01*
X363197Y93123D01*
X362451Y92550D01*
X361877Y91803D01*
X361517Y90933D01*
X361394Y90000D01*
X361517Y89067D01*
X361877Y88197D01*
X362451Y87450D01*
X363197Y86878D01*
X364067Y86517D01*
X365000Y86394D01*
X365933Y86517D01*
X366803Y86878D01*
X367550Y87450D01*
X368123Y88197D01*
X368483Y89067D01*
X368606Y90000D01*
X368483Y90933D01*
X368123Y91803D01*
X367550Y92550D01*
X366803Y93123D01*
X365933Y93483D01*
X365000Y93606D01*
D02*
G37*
G36*
X257000Y87083D02*
X256713D01*
X255527Y86926D01*
X254421Y86469D01*
X253472Y85740D01*
X252744Y84791D01*
X252286Y83686D01*
X252196Y83000D01*
X257000D01*
Y87083D01*
D02*
G37*
G36*
X72500Y93466D02*
X71336Y93351D01*
X70217Y93012D01*
X69186Y92460D01*
X68282Y91719D01*
X67540Y90814D01*
X66988Y89783D01*
X66649Y88664D01*
X66534Y87500D01*
X66649Y86336D01*
X66988Y85217D01*
X67540Y84186D01*
X68282Y83282D01*
X69186Y82540D01*
X70217Y81988D01*
X71336Y81649D01*
X72500Y81534D01*
X73664Y81649D01*
X74783Y81988D01*
X75814Y82540D01*
X76718Y83282D01*
X77460Y84186D01*
X78012Y85217D01*
X78351Y86336D01*
X78466Y87500D01*
X78351Y88664D01*
X78012Y89783D01*
X77460Y90814D01*
X76718Y91719D01*
X75814Y92460D01*
X74783Y93012D01*
X73664Y93351D01*
X72500Y93466D01*
D02*
G37*
G36*
X382703Y129500D02*
X379250D01*
Y126047D01*
X382703D01*
Y129500D01*
D02*
G37*
G36*
X277500Y135393D02*
X276104Y135209D01*
X274804Y134670D01*
X273687Y133813D01*
X272830Y132696D01*
X272291Y131396D01*
X272108Y130000D01*
X272291Y128604D01*
X272830Y127304D01*
X273687Y126187D01*
X274804Y125330D01*
X276104Y124791D01*
X277500Y124608D01*
X278896Y124791D01*
X280196Y125330D01*
X281313Y126187D01*
X282170Y127304D01*
X282709Y128604D01*
X282893Y130000D01*
X282709Y131396D01*
X282170Y132696D01*
X281313Y133813D01*
X280196Y134670D01*
X278896Y135209D01*
X277500Y135393D01*
D02*
G37*
G36*
X73000Y127414D02*
Y123000D01*
X77414D01*
X77310Y123789D01*
X76812Y124990D01*
X76021Y126021D01*
X74990Y126813D01*
X73789Y127310D01*
X73000Y127414D01*
D02*
G37*
G36*
X60642Y140642D02*
X49358D01*
Y129358D01*
X60642D01*
Y140642D01*
D02*
G37*
G36*
X40937Y149500D02*
X32586D01*
X32690Y148711D01*
X33188Y147510D01*
X33979Y146479D01*
X35010Y145688D01*
X36211Y145190D01*
X37500Y145020D01*
X40937D01*
Y149500D01*
D02*
G37*
G36*
X212500Y147944D02*
X210950Y147791D01*
X209460Y147339D01*
X208087Y146605D01*
X206883Y145617D01*
X205895Y144413D01*
X205161Y143040D01*
X204709Y141550D01*
X204556Y140000D01*
X204709Y138450D01*
X205161Y136960D01*
X205895Y135587D01*
X206883Y134383D01*
X208087Y133395D01*
X209460Y132661D01*
X210950Y132209D01*
X212500Y132056D01*
X214050Y132209D01*
X215540Y132661D01*
X216913Y133395D01*
X218117Y134383D01*
X219105Y135587D01*
X219839Y136960D01*
X220291Y138450D01*
X220444Y140000D01*
X220291Y141550D01*
X219839Y143040D01*
X219105Y144413D01*
X218117Y145617D01*
X216913Y146605D01*
X215540Y147339D01*
X214050Y147791D01*
X212500Y147944D01*
D02*
G37*
G36*
X382703Y133953D02*
X379250D01*
Y130500D01*
X382703D01*
Y133953D01*
D02*
G37*
G36*
X72000Y127414D02*
X71211Y127310D01*
X70010Y126813D01*
X68979Y126021D01*
X68188Y124990D01*
X67690Y123789D01*
X67586Y123000D01*
X72000D01*
Y127414D01*
D02*
G37*
G36*
X382703Y113953D02*
X379250D01*
Y110500D01*
X382703D01*
Y113953D01*
D02*
G37*
G36*
X378250D02*
X374797D01*
Y110500D01*
X378250D01*
Y113953D01*
D02*
G37*
G36*
X382703Y109500D02*
X379250D01*
Y106047D01*
X382703D01*
Y109500D01*
D02*
G37*
G36*
X12000Y122000D02*
X7586D01*
X7690Y121211D01*
X8188Y120010D01*
X8979Y118979D01*
X10010Y118188D01*
X11211Y117690D01*
X12000Y117586D01*
Y122000D01*
D02*
G37*
G36*
X13000Y127414D02*
Y123000D01*
X17414D01*
X17310Y123789D01*
X16813Y124990D01*
X16021Y126021D01*
X14990Y126813D01*
X13789Y127310D01*
X13000Y127414D01*
D02*
G37*
G36*
X12000D02*
X11211Y127310D01*
X10010Y126813D01*
X8979Y126021D01*
X8188Y124990D01*
X7690Y123789D01*
X7586Y123000D01*
X12000D01*
Y127414D01*
D02*
G37*
G36*
X17414Y122000D02*
X13000D01*
Y117586D01*
X13789Y117690D01*
X14990Y118188D01*
X16021Y118979D01*
X16813Y120010D01*
X17310Y121211D01*
X17414Y122000D01*
D02*
G37*
%LPD*%
D10*
X335000Y173750D02*
Y193750D01*
X323750Y162500D02*
X335000Y173750D01*
X323750Y135000D02*
Y162500D01*
X342500Y125000D02*
X367500D01*
X305000Y110000D02*
X327500D01*
X342500Y125000D01*
X305000Y120000D02*
X330000D01*
X356175Y146175D01*
X372500Y130000D02*
Y143750D01*
X367500Y125000D02*
X372500Y130000D01*
X332500D02*
X353750Y151250D01*
X305000Y130000D02*
X332500D01*
X353750Y160000D02*
X359925Y166175D01*
X353750Y151250D02*
Y160000D01*
X359925Y166175D02*
X366584D01*
X370409Y170000D01*
X378750D01*
X356175Y146175D02*
X366584D01*
X368825Y148416D01*
Y150075D01*
X378750Y160000D01*
X372500Y143750D02*
X378750Y150000D01*
X308750Y193750D02*
X325000D01*
X292500Y177500D02*
X308750Y193750D01*
X292500Y42500D02*
Y177500D01*
Y42500D02*
X305000Y30000D01*
X296250Y48750D02*
X305000Y40000D01*
X296250Y48750D02*
Y175000D01*
X307500Y186250D01*
X327500D01*
X330000Y188750D01*
X305000Y80000D02*
X315000Y70000D01*
Y23750D02*
Y70000D01*
X298750Y7500D02*
X315000Y23750D01*
X270000Y7500D02*
X298750D01*
X260000Y17500D02*
X270000Y7500D01*
X331250Y198750D02*
X335000Y202500D01*
Y203750D01*
X378750Y140000D02*
X385000Y146250D01*
Y181250D01*
X356250Y210000D02*
X385000Y181250D01*
X331250Y210000D02*
X356250D01*
X325000Y203750D02*
X331250Y210000D01*
X65000Y57500D02*
X72500Y65000D01*
X65000Y18750D02*
Y57500D01*
X60000Y13750D02*
X65000Y18750D01*
X210000Y82500D02*
X237500Y110000D01*
X245000D01*
X157500Y152500D02*
X238750D01*
X255000Y136250D01*
Y107500D02*
Y136250D01*
X245000Y97500D02*
X255000Y107500D01*
X160000Y142500D02*
X205000Y97500D01*
X157500Y142500D02*
X160000D01*
X105000Y60000D02*
Y72500D01*
X101250Y56250D02*
X105000Y60000D01*
X90000Y56250D02*
X101250D01*
X81250Y47500D02*
X90000Y56250D01*
X81250Y33750D02*
Y47500D01*
X73750Y26250D02*
X81250Y33750D01*
X73750Y20000D02*
Y26250D01*
X105000Y32500D02*
X121250Y16250D01*
X122500D01*
X167500Y75000D02*
X200000D01*
X207500Y82500D01*
X210000D01*
X175000Y27500D02*
X190000D01*
X195000Y32500D01*
Y50000D01*
X187500Y57500D02*
X195000Y50000D01*
X180000Y57500D02*
X187500D01*
X117500Y152500D02*
Y185000D01*
X125000Y192500D01*
X136875D01*
D11*
X330000Y188750D02*
Y197500D01*
X331250Y198750D01*
D12*
X112500Y112500D02*
X125000D01*
X37500D02*
X112500D01*
Y102657D02*
Y112500D01*
X125000D02*
X147250Y134750D01*
X12500Y87500D02*
X37500Y112500D01*
X35000Y110000D02*
Y135000D01*
X147250Y134750D02*
Y167500D01*
D13*
X54036Y169685D02*
D03*
X29626D02*
D03*
D14*
X41437Y150000D02*
D03*
D15*
X52500Y55000D02*
D03*
Y45000D02*
D03*
X227500Y42500D02*
D03*
X237500D02*
D03*
X90000Y45000D02*
D03*
Y65000D02*
D03*
X72500D02*
D03*
Y45000D02*
D03*
D16*
X377500Y202500D02*
D03*
Y10000D02*
D03*
X12500Y12500D02*
D03*
Y201250D02*
D03*
X260000Y17500D02*
D03*
X240000D02*
D03*
X220000D02*
D03*
X280000D02*
D03*
X212500Y140000D02*
D03*
X237500Y139500D02*
D03*
X260000Y192500D02*
D03*
X280000D02*
D03*
X240000D02*
D03*
X220000D02*
D03*
X186250Y182500D02*
D03*
X88125D02*
D03*
X15000Y62500D02*
D03*
Y42500D02*
D03*
D17*
X378750Y130000D02*
D03*
Y110000D02*
D03*
D18*
Y140000D02*
D03*
Y150000D02*
D03*
Y160000D02*
D03*
Y170000D02*
D03*
X325000Y203750D02*
D03*
X335000Y193750D02*
D03*
Y203750D02*
D03*
X345000Y193750D02*
D03*
Y203750D02*
D03*
X127500Y60000D02*
D03*
Y50000D02*
D03*
Y40000D02*
D03*
X157500Y70000D02*
D03*
Y60000D02*
D03*
Y50000D02*
D03*
Y40000D02*
D03*
X378750Y80000D02*
D03*
Y90000D02*
D03*
Y100000D02*
D03*
D19*
X73750Y20000D02*
D03*
X88750D02*
D03*
D20*
X365000Y160000D02*
D03*
Y140000D02*
D03*
Y110000D02*
D03*
Y100000D02*
D03*
Y60000D02*
D03*
Y30000D02*
D03*
X305000D02*
D03*
Y40000D02*
D03*
Y50000D02*
D03*
Y60000D02*
D03*
Y70000D02*
D03*
Y80000D02*
D03*
Y90000D02*
D03*
Y100000D02*
D03*
Y110000D02*
D03*
Y120000D02*
D03*
Y130000D02*
D03*
Y140000D02*
D03*
Y150000D02*
D03*
Y160000D02*
D03*
X112343Y102500D02*
D03*
X92658D02*
D03*
D21*
X305000Y170000D02*
D03*
D22*
X325000Y193750D02*
D03*
X127500Y70000D02*
D03*
D23*
X122500Y16250D02*
D03*
X162500D02*
D03*
X277500Y40000D02*
D03*
Y80000D02*
D03*
X245000Y110000D02*
D03*
X205000D02*
D03*
X277500Y130000D02*
D03*
Y90000D02*
D03*
X245000Y57500D02*
D03*
X205000D02*
D03*
X245000Y97500D02*
D03*
X205000D02*
D03*
X167500Y75000D02*
D03*
Y35000D02*
D03*
X162500Y27500D02*
D03*
X122500D02*
D03*
X115000Y32500D02*
D03*
Y72500D02*
D03*
X105000D02*
D03*
Y32500D02*
D03*
X162500Y82500D02*
D03*
X122500D02*
D03*
X157500Y142500D02*
D03*
X117500D02*
D03*
Y152500D02*
D03*
X157500D02*
D03*
X37500Y30000D02*
D03*
Y70000D02*
D03*
D24*
X210000Y82500D02*
D03*
D25*
X240000D02*
D03*
X210000Y72500D02*
D03*
X240000D02*
D03*
D26*
X180000Y47500D02*
D03*
D27*
Y52500D02*
D03*
Y57500D02*
D03*
D28*
X182500Y20000D02*
D03*
X175000Y27500D02*
D03*
X182500Y35000D02*
D03*
X257500Y97500D02*
D03*
X265000Y90000D02*
D03*
X257500Y82500D02*
D03*
D29*
X157500Y97500D02*
D03*
X147500Y107500D02*
D03*
X187500Y102500D02*
D03*
X177500Y92500D02*
D03*
D30*
X137500Y97500D02*
D03*
D31*
X147250Y167500D02*
D03*
X137250D02*
D03*
X127250D02*
D03*
X144375Y200000D02*
D03*
X136875Y192500D02*
D03*
X129375Y200000D02*
D03*
D32*
X55000Y135000D02*
D03*
D33*
X35000D02*
D03*
D34*
X72500Y87500D02*
D03*
Y122500D02*
D03*
X12500D02*
D03*
D35*
Y87500D02*
D03*
D36*
X187500Y82500D02*
D03*
D37*
X323750Y135000D02*
D03*
X60000Y13750D02*
D03*
M02*
