M48
;Layer_Color=10053120
;FILE_FORMAT=2:5
INCH
;TYPE=PLATED
T1F00S00C0.02800
T2F00S00C0.03150
T3F00S00C0.03543
T4F00S00C0.03937
T5F00S00C0.04331
T6F00S00C0.05118
T7F00S00C0.07874
T8F00S00C0.09843
T9F00S00C0.11811
%
T01
X0060000Y0013750
X0323750Y0135000
T02
X0122500Y0016250
X0162500
X0052500Y0045000
Y0055000
X0037500Y0070000
Y0030000
X0072500Y0045000
X0090000
Y0065000
X0072500
X0105000Y0072500
X0115000
X0122500Y0082500
X0137500Y0097500
X0157500
X0147500Y0107500
X0162500Y0082500
X0167500Y0075000
X0177500Y0092500
X0187500Y0102500
Y0082500
X0210000
Y0072500
X0205000Y0057500
X0180000
Y0052500
Y0047500
X0167500Y0035000
X0162500Y0027500
X0122500
X0115000Y0032500
X0105000
X0117500Y0142500
Y0152500
X0157500
Y0142500
X0205000Y0110000
Y0097500
X0245000
Y0110000
X0240000Y0082500
Y0072500
X0245000Y0057500
X0237500Y0042500
X0227500
X0277500Y0040000
X0305000
Y0030000
Y0050000
Y0060000
Y0070000
Y0080000
Y0090000
Y0100000
Y0110000
Y0120000
Y0130000
Y0140000
Y0150000
Y0160000
Y0170000
X0365000
Y0160000
Y0150000
Y0140000
Y0130000
Y0120000
Y0110000
Y0100000
Y0090000
Y0080000
Y0070000
Y0060000
Y0050000
Y0040000
Y0030000
X0277500Y0080000
Y0090000
Y0130000
T03
X0012500Y0087500
Y0122500
X0072500
Y0087500
X0092658Y0102500
X0112343
X0127500Y0070000
Y0060000
Y0050000
Y0040000
X0157500
Y0050000
Y0060000
Y0070000
X0378750Y0080000
Y0090000
Y0100000
Y0110000
Y0130000
Y0140000
Y0150000
Y0160000
Y0170000
X0345000Y0193750
X0335000
X0325000
Y0203750
X0335000
X0345000
T04
X0073750Y0020000
X0088750
X0182500
X0175000Y0027500
X0182500Y0035000
X0147250Y0167500
X0137250
X0127250
X0212500Y0140000
X0237500Y0139500
X0257500Y0097500
X0265000Y0090000
X0257500Y0082500
X0144375Y0200000
X0136875Y0192500
X0129375Y0200000
T05
X0035000Y0135000
X0055000
T06
X0220000Y0017500
X0240000
X0260000
X0280000
X0015000Y0042500
Y0062500
X0220000Y0192500
X0240000
X0260000
X0280000
T07
X0041437Y0150000
X0029626Y0169685
X0054036
T08
X0088125Y0182500
X0186250
T09
X0377500Y0010000
X0012500Y0012500
X0377500Y0202500
X0012500Y0201250
M30
