%FSLAX25Y25*%
%MOIN*%
G70*
G01*
G75*
%ADD10C,0.02500*%
%ADD11C,0.01500*%
%ADD12C,0.10000*%
%ADD13O,0.07874X0.17716*%
%ADD14O,0.15748X0.07874*%
%ADD15C,0.06500*%
%ADD16C,0.11811*%
%ADD17R,0.05906X0.05906*%
%ADD18C,0.05906*%
%ADD19C,0.08661*%
%ADD20C,0.07087*%
%ADD21R,0.07087X0.07087*%
%ADD22R,0.05906X0.05906*%
%ADD23C,0.06693*%
%ADD24R,0.08000X0.06000*%
%ADD25O,0.08000X0.06000*%
%ADD26O,0.07874X0.03937*%
%ADD27O,0.07874X0.03937*%
%ADD28O,0.08661X0.07087*%
%ADD29C,0.06299*%
%ADD30R,0.06299X0.06299*%
%ADD31O,0.07087X0.08661*%
%ADD32R,0.07284X0.07284*%
%ADD33C,0.07284*%
%ADD34C,0.07874*%
%ADD35R,0.07874X0.07874*%
%ADD36R,0.06299X0.06299*%
%ADD37C,0.05000*%
%ADD38R,0.00787X0.00787*%
%ADD39C,0.00787*%
D13*
X54036Y169685D02*
D03*
X29626D02*
D03*
D14*
X41437Y150000D02*
D03*
D15*
X52500Y55000D02*
D03*
Y45000D02*
D03*
X227500Y42500D02*
D03*
X237500D02*
D03*
X90000Y45000D02*
D03*
Y65000D02*
D03*
X72500D02*
D03*
Y45000D02*
D03*
D16*
X377500Y202500D02*
D03*
Y10000D02*
D03*
X12500Y12500D02*
D03*
Y201250D02*
D03*
X260000Y17500D02*
D03*
X240000D02*
D03*
X220000D02*
D03*
X280000D02*
D03*
X212500Y140000D02*
D03*
X237500Y139500D02*
D03*
X260000Y192500D02*
D03*
X280000D02*
D03*
X240000D02*
D03*
X220000D02*
D03*
X186250Y182500D02*
D03*
X88125D02*
D03*
X15000Y62500D02*
D03*
Y42500D02*
D03*
D17*
X378750Y130000D02*
D03*
Y110000D02*
D03*
D18*
Y140000D02*
D03*
Y150000D02*
D03*
Y160000D02*
D03*
Y170000D02*
D03*
X325000Y203750D02*
D03*
X335000Y193750D02*
D03*
Y203750D02*
D03*
X345000Y193750D02*
D03*
Y203750D02*
D03*
X127500Y60000D02*
D03*
Y50000D02*
D03*
Y40000D02*
D03*
X157500Y70000D02*
D03*
Y60000D02*
D03*
Y50000D02*
D03*
Y40000D02*
D03*
X378750Y80000D02*
D03*
Y90000D02*
D03*
Y100000D02*
D03*
D19*
X73750Y20000D02*
D03*
X88750D02*
D03*
D20*
X365000Y160000D02*
D03*
Y140000D02*
D03*
Y110000D02*
D03*
Y100000D02*
D03*
Y60000D02*
D03*
Y30000D02*
D03*
X305000D02*
D03*
Y40000D02*
D03*
Y50000D02*
D03*
Y60000D02*
D03*
Y70000D02*
D03*
Y80000D02*
D03*
Y90000D02*
D03*
Y100000D02*
D03*
Y110000D02*
D03*
Y120000D02*
D03*
Y130000D02*
D03*
Y140000D02*
D03*
Y150000D02*
D03*
Y160000D02*
D03*
X112343Y102500D02*
D03*
X92658D02*
D03*
D21*
X305000Y170000D02*
D03*
D22*
X325000Y193750D02*
D03*
X127500Y70000D02*
D03*
D23*
X122500Y16250D02*
D03*
X162500D02*
D03*
X277500Y40000D02*
D03*
Y80000D02*
D03*
X245000Y110000D02*
D03*
X205000D02*
D03*
X277500Y130000D02*
D03*
Y90000D02*
D03*
X245000Y57500D02*
D03*
X205000D02*
D03*
X245000Y97500D02*
D03*
X205000D02*
D03*
X167500Y75000D02*
D03*
Y35000D02*
D03*
X162500Y27500D02*
D03*
X122500D02*
D03*
X115000Y32500D02*
D03*
Y72500D02*
D03*
X105000D02*
D03*
Y32500D02*
D03*
X162500Y82500D02*
D03*
X122500D02*
D03*
X157500Y142500D02*
D03*
X117500D02*
D03*
Y152500D02*
D03*
X157500D02*
D03*
X37500Y30000D02*
D03*
Y70000D02*
D03*
D24*
X210000Y82500D02*
D03*
D25*
X240000D02*
D03*
X210000Y72500D02*
D03*
X240000D02*
D03*
D26*
X180000Y47500D02*
D03*
D27*
Y52500D02*
D03*
Y57500D02*
D03*
D28*
X182500Y20000D02*
D03*
X175000Y27500D02*
D03*
X182500Y35000D02*
D03*
X257500Y97500D02*
D03*
X265000Y90000D02*
D03*
X257500Y82500D02*
D03*
D29*
X157500Y97500D02*
D03*
X147500Y107500D02*
D03*
X187500Y102500D02*
D03*
X177500Y92500D02*
D03*
D30*
X137500Y97500D02*
D03*
D31*
X147250Y167500D02*
D03*
X137250D02*
D03*
X127250D02*
D03*
X144375Y200000D02*
D03*
X136875Y192500D02*
D03*
X129375Y200000D02*
D03*
D32*
X55000Y135000D02*
D03*
D33*
X35000D02*
D03*
D34*
X72500Y87500D02*
D03*
Y122500D02*
D03*
X12500D02*
D03*
D35*
Y87500D02*
D03*
D36*
X187500Y82500D02*
D03*
M02*
